{
.appVersion = "1141";
DisplayStrings = (
"©®/trademark"
);
classes = (
{
automatic = 1;
code = "A Aacute Abreve Acircumflex Adieresis Agrave Amacron Aogonek Aring Atilde AE B C Cacute Ccaron Ccedilla Cdotaccent D Eth Dcaron Dcroat E Eacute Ecaron Ecircumflex Edieresis Edotaccent Egrave Emacron Eogonek F G Gbreve Gcommaaccent Gdotaccent H Hbar I Iacute Icircumflex Idieresis Idotaccent Igrave Imacron Iogonek J K Kcommaaccent L Lacute Lcaron Lcommaaccent Lslash M N Nacute Ncaron Ncommaaccent Eng Ntilde O Oacute Ocircumflex Odieresis Ograve Ohungarumlaut Omacron Oslash Otilde OE P Thorn Q R Racute Rcaron Rcommaaccent S Sacute Scaron Scedilla Scommaaccent T Tbar Tcaron Tcedilla Tcommaaccent U Uacute Ucircumflex Udieresis Ugrave Uhungarumlaut Umacron Uogonek Uring V W Wacute Wcircumflex Wdieresis Wgrave X Y Yacute Ycircumflex Ydieresis Ygrave Z Zacute Zcaron Zdotaccent Delta Omega";
name = Uppercase;
}
);
copyright = "Copyright 2018 The Turret Road Project Authors (https://github.com/noponies/turret-road)";
customParameters = (
{
name = license;
value = "This Font Software is licensed under the SIL Open Font License, Version 1.1. This license is available with a FAQ at: http://scripts.sil.org/OFL";
},
{
name = licenseURL;
value = "http://scripts.sil.org/OFL";
},
{
name = fsType;
value = (
);
},
{
name = "Use Typo Metrics";
value = 1;
},
{
name = "Disable Last Change";
value = 1;
},
{
name = "Use Line Breaks";
value = 1;
},
{
name = vendorID;
value = NOPN;
}
);
date = "2018-07-30 03:44:01 +0000";
designer = Noponies;
designerURL = "https://github.com/noponies/";
disablesNiceNames = 1;
familyName = "Turret Road";
featurePrefixes = (
{
automatic = 1;
code = "languagesystem DFLT dflt;
languagesystem latn dflt;
languagesystem latn ROM;
languagesystem latn MOL;
languagesystem latn KAZ;
languagesystem latn TAT;
languagesystem latn TRK;
languagesystem latn CRT;
languagesystem latn AZE;
";
name = Languagesystems;
}
);
features = (
{
automatic = 1;
code = "feature ccmp;

glyphs = (
{
color = 9;
glyphname = A;
layers = (
{
anchors = (
{
name = bottom;
position = "{317, 0}";
},
{
name = ogonek;
position = "{574, 10}";
},
{
name = top;
position = "{317, 700}";
}
);
layerId = "575D5349-E17C-4630-8554-E10C4C95202B";
paths = (
{
closed = 1;
nodes = (
"593 338 LINE",
"347 700 LINE",
"270 700 LINE",
"40 340 LINE",
"40 0 LINE",
"79 0 LINE",
"79 252 LINE",
"553 252 LINE",
"553 0 LINE",
"593 0 LINE"
);
},
{
closed = 1;
nodes = (
"79 291 LINE",
"79 328 LINE",
"292 660 LINE",
"325 660 LINE",
"553 327 LINE",
"553 291 LINE"
);
}
);
width = 633;
},
{
anchors = (
{
name = bottom;
position = "{317, 0}";
},
{
name = ogonek;
position = "{547, 10}";
},
{
name = top;
position = "{317, 700}";
}
);
layerId = "40E32FB9-B6BE-48EB-82C7-9119AE8E729C";
paths = (
{
closed = 1;
nodes = (
"593 348 LINE",
"359 700 LINE",
"259 700 LINE",
"40 349 LINE",
"40 0 LINE",
"132 0 LINE",
"132 231 LINE",
"500 231 LINE",
"500 0 LINE",
"593 0 LINE"
);
},
{
closed = 1;
nodes = (
"134 325 LINE",
"134 325 LINE",
"310 605 LINE",
"310 605 LINE",
"497 324 LINE",
"497 324 LINE"
);
}
);
width = 633;
},
{
associatedMasterId = "575D5349-E17C-4630-8554-E10C4C95202B";
layerId = "5499D732-9A41-41CA-8256-AB161D9ABCF4";
width = 633;
}
);
note = A;
unicode = 0041;
},
{
color = 9;
glyphname = AE;
layers = (
{
anchors = (
{
name = bottom;
position = "{317, 0}";
},
{
name = ogonek;
position = "{570, 10}";
},
{
name = top;
position = "{317, 700}";
},
{
name = topleft;
position = "{543, 700}";
}
);
layerId = "575D5349-E17C-4630-8554-E10C4C95202B";
paths = (
{
closed = 1;
nodes = (
"79 0 LINE",
"79 252 LINE",
"552 252 LINE",
"552 125 LINE",
"650 0 LINE",
"990 0 LINE",
"990 40 LINE",
"671 40 LINE",
"594 139 LINE",
"594 328 LINE",
"912 328 LINE",
"912 368 LINE",
"594 368 LINE",
"594 561 LINE",
"671 660 LINE",
"990 660 LINE",
"990 700 LINE",
"650 700 LINE",
"552 575 LINE",
"552 398 LINE",
"347 700 LINE",
"270 700 LINE",
"40 340 LINE",
"40 0 LINE"
);
},
{
closed = 1;
nodes = (
"79 328 LINE",
"292 660 LINE",
"325 660 LINE",
"552 328 LINE",
"552 291 LINE",
"79 291 LINE"
);
}
);
width = 1035;
},
{
associatedMasterId = "575D5349-E17C-4630-8554-E10C4C95202B";
layerId = "5499D732-9A41-41CA-8256-AB161D9ABCF4";
width = 1246.5;
},
{
anchors = (
{
name = bottom;
position = "{300, 0}";
},
{
name = ogonek;
position = "{941, 10}";
},
{
name = top;
position = "{300, 700}";
},
{
name = topleft;
position = "{495, 700}";
}
);
layerId = "40E32FB9-B6BE-48EB-82C7-9119AE8E729C";
paths = (
{
closed = 1;
nodes = (
"132 0 LINE",
"132 231 LINE",
"500 231 LINE",
"500 134 LINE",
"600 0 LINE",
"938 0 LINE",
"938 94 LINE",
"646 94 LINE",
"593 166 LINE",
"593 301 LINE",
"870 301 LINE",
"870 395 LINE",
"593 395 LINE",
"593 534 LINE",
"646 606 LINE",
"938 606 LINE",
"938 700 LINE",
"600 700 LINE",
"500 566 LINE",
"500 488 LINE",
"359 700 LINE",
"259 700 LINE",
"40 349 LINE",
"40 0 LINE"
);
},
{
closed = 1;
nodes = (
"310 605 LINE",
"310 605 LINE",
"466 370 LINE",
"477 354 LINE",
"497 324 LINE",
"134 325 LINE"
);
}
);
width = 983;
}
);
unicode = 00C6;
},
{
color = 9;
glyphname = B;
layers = (
{
layerId = "575D5349-E17C-4630-8554-E10C4C95202B";
paths = (
{
closed = 1;
nodes = (
"599 210 LINE",
"498 349 LINE",
"599 490 LINE",
"599 586 LINE",
"551 700 LINE",
"50 700 LINE",
"50 0 LINE",
"551 0 LINE",
"599 114 LINE"
);
},
{
closed = 1;
nodes = (
"463 368 LINE",
"90 368 LINE",
"90 660 LINE",
"524 660 LINE",
"559 579 LINE",
"559 503 LINE"
);
},
{
closed = 1;
nodes = (
"524 40 LINE",
"90 40 LINE",
"90 328 LINE",
"463 328 LINE",
"559 197 LINE",
"559 121 LINE"
);
}
);
width = 639;
},
{
layerId = "40E32FB9-B6BE-48EB-82C7-9119AE8E729C";
paths = (
{
closed = 1;
nodes = (
"599 231 LINE",
"515 349 LINE",
"599 469 LINE",
"599 572 LINE",
"547 700 LINE",
"50 700 LINE",
"50 0 LINE",
"547 0 LINE",
"599 128 LINE"
);
},
{
closed = 1;
nodes = (
"434 395 LINE",
"143 395 LINE",
"143 606 LINE",
"484 606 LINE",
"506 554 LINE",
"506 499 LINE"
);
},
{
closed = 1;
nodes = (
"484 94 LINE",
"143 94 LINE",
"143 301 LINE",
"434 301 LINE",
"506 201 LINE",
"506 146 LINE"
);
}
);
width = 639;
},
{
associatedMasterId = "575D5349-E17C-4630-8554-E10C4C95202B";
layerId = "5499D732-9A41-41CA-8256-AB161D9ABCF4";
paths = (
{
closed = 1;
nodes = (
"599 199.5 LINE",
"489.5 349 LINE",
"599 500.5 LINE",
"599 593 LINE",
"553 700 LINE",
"50 700 LINE",
"50 0 LINE",
"553 0 LINE",
"599 107 LINE"
);
},
{
closed = 1;
nodes = (
"477.5 354.5 LINE",
"63.5 354.5 LINE",
"63.5 687 LINE",
"544 687 LINE",
"585.5 591.5 LINE",
"585.5 505 LINE"
);
},
{
closed = 1;
nodes = (
"544 13 LINE",
"63.5 13 LINE",
"63.5 341.5 LINE",
"477.5 341.5 LINE",
"585.5 195 LINE",
"585.5 108.5 LINE"
);
}
);
width = 639;
}
);
note = B;
unicode = 0042;
},
{
color = 9;
glyphname = C;
layers = (
{
anchors = (
{
name = bottom;
position = "{352, 0}";
},
{
name = top;
position = "{352, 700}";
}
);
layerId = "575D5349-E17C-4630-8554-E10C4C95202B";
paths = (
{
closed = 1;
nodes = (
"566 700 LINE",
"145 700 LINE",
"50 575 LINE",
"50 125 LINE",
"145 0 LINE",
"565 0 LINE",
"647 108 LINE",
"615 132 LINE",
"545 40 LINE",
"165 40 LINE",
"91 139 LINE",
"91 561 LINE",
"165 660 LINE",
"546 660 LINE",
"616 568 LINE",
"648 592 LINE"
);
}
);
width = 688;
},
{
anchors = (
{
name = bottom;
position = "{342, 0}";
},
{
name = top;
position = "{342, 700}";
}
);
layerId = "40E32FB9-B6BE-48EB-82C7-9119AE8E729C";
paths = (
{
closed = 1;
nodes = (
"550 700 LINE",
"141 700 LINE",
"40 566 LINE",
"40 134 LINE",
"141 0 LINE",
"549 0 LINE",
"649 133 LINE",
"575 190 LINE",
"503 94 LINE",
"187 94 LINE",
"134 166 LINE",
"134 534 LINE",
"187 606 LINE",
"504 606 LINE",
"575 510 LINE",
"650 567 LINE"
);
}
);
width = 690;
},
{
anchors = (
{
name = bottom;
position = "{357, 0}";
},
{
name = top;
position = "{357, 700}";
}
);
associatedMasterId = "575D5349-E17C-4630-8554-E10C4C95202B";
layerId = "5499D732-9A41-41CA-8256-AB161D9ABCF4";
paths = (
{
closed = 1;
nodes = (
"574 700 LINE",
"147 700 LINE",
"55 579.5 LINE",
"55 120.5 LINE",
"147 0 LINE",
"573 0 LINE",
"646 95.5 LINE",
"635 103 LINE",
"566 13 LINE",
"154 13 LINE",
"69.5 125.5 LINE",
"69.5 574.5 LINE",
"154 687 LINE",
"567 687 LINE",
"636.5 597 LINE",
"647 604.5 LINE"
);
}
);
width = 690;
}
);
note = C;
unicode = 0043;
},
{
color = 9;
glyphname = D;
layers = (
{
anchors = (
{
name = bottom;
position = "{343, 0}";
},
{
name = center;
position = "{191, 365}";
},
{
name = top;
position = "{343, 700}";
}
);
layerId = "575D5349-E17C-4630-8554-E10C4C95202B";
paths = (
{
closed = 1;
nodes = (
"645 576 LINE",
"550 700 LINE",
"50 700 LINE",
"50 0 LINE",
"550 0 LINE",
"645 124 LINE"
);
},
{
closed = 1;
nodes = (
"530 40 LINE",
"90 40 LINE",
"90 660 LINE",
"530 660 LINE",
"604 562 LINE",
"604 138 LINE"
);
}
);
width = 685;
},
{
anchors = (
{
name = bottom;
position = "{343, 0}";
},
{
name = center;
position = "{200, 375}";
},
{
name = top;
position = "{343, 700}";
}
);
layerId = "40E32FB9-B6BE-48EB-82C7-9119AE8E729C";
paths = (
{
closed = 1;
nodes = (
"645 567 LINE",
"545 700 LINE",
"50 700 LINE",
"50 0 LINE",
"545 0 LINE",
"645 133 LINE"
);
},
{
closed = 1;
nodes = (
"498 94 LINE",
"143 94 LINE",
"143 606 LINE",
"498 606 LINE",
"551 535 LINE",
"551 165 LINE"
);
}
);
width = 685;
},
{
associatedMasterId = "575D5349-E17C-4630-8554-E10C4C95202B";
layerId = "5499D732-9A41-41CA-8256-AB161D9ABCF4";
width = 685;
}
);
note = D;
unicode = 0044;
},
{
color = 9;
glyphname = E;
layers = (
{
anchors = (
{
name = bottom;
position = "{269, -13}";
},
{
name = ogonek;
position = "{474, 10}";
},
{
name = top;
position = "{269, 700}";
},
{
name = topleft;
position = "{30, 700}";
}
);
layerId = "575D5349-E17C-4630-8554-E10C4C95202B";
paths = (
{
closed = 1;
nodes = (
"488 40 LINE",
"169 40 LINE",
"92 139 LINE",
"92 328 LINE",
"410 328 LINE",
"410 368 LINE",
"92 368 LINE",
"92 561 LINE",
"169 660 LINE",
"488 660 LINE",
"488 700 LINE",
"148 700 LINE",
"50 575 LINE",
"50 125 LINE",
"148 0 LINE",
"488 0 LINE"
);
}
);
width = 528;
},
{
anchors = (
{
name = bottom;
position = "{269, 0}";
},
{
name = ogonek;
position = "{452, 10}";
},
{
name = top;
position = "{269, 700}";
},
{
name = topleft;
position = "{30, 700}";
}
);
layerId = "40E32FB9-B6BE-48EB-82C7-9119AE8E729C";
paths = (
{
closed = 1;
nodes = (
"488 94 LINE",
"196 94 LINE",
"143 166 LINE",
"143 301 LINE",
"420 301 LINE",
"420 395 LINE",
"143 395 LINE",
"143 534 LINE",
"196 606 LINE",
"488 606 LINE",
"488 700 LINE",
"150 700 LINE",
"50 566 LINE",
"50 134 LINE",
"150 0 LINE",
"488 0 LINE"
);
}
);
width = 528;
},
{
anchors = (
{
name = bottom;
position = "{259, -19.5}";
},
{
name = ogonek;
position = "{445, 10}";
},
{
name = top;
position = "{259, 700}";
},
{
name = topleft;
position = "{20, 700}";
}
);
associatedMasterId = "575D5349-E17C-4630-8554-E10C4C95202B";
layerId = "5499D732-9A41-41CA-8256-AB161D9ABCF4";
paths = (
{
closed = 1;
nodes = (
"478 13 LINE",
"145.5 13 LINE",
"56.5 125.5 LINE",
"56.5 341.5 LINE",
"395 341.5 LINE",
"395 354.5 LINE",
"56.5 354.5 LINE",
"56.5 574.5 LINE",
"145.5 687 LINE",
"478 687 LINE",
"478 700 LINE",
"137 700 LINE",
"40 579.5 LINE",
"40 120.5 LINE",
"137 0 LINE",
"478 0 LINE"
);
}
);
width = 518;
}
);
note = E;
unicode = 0045;
},
{
color = 9;
glyphname = F;
layers = (
{
layerId = "575D5349-E17C-4630-8554-E10C4C95202B";
paths = (
{
closed = 1;
nodes = (
"474 700 LINE",
"136 700 LINE",
"40 576 LINE",
"40 0 LINE",
"81 0 LINE",
"81 334 LINE",
"381 334 LINE",
"381 374 LINE",
"81 374 LINE",
"81 562 LINE",
"157 660 LINE",
"474 660 LINE"
);
}
);
width = 504;
},
{
layerId = "40E32FB9-B6BE-48EB-82C7-9119AE8E729C";
paths = (
{
closed = 1;
nodes = (
"474 700 LINE",
"138 700 LINE",
"40 567 LINE",
"40 0 LINE",
"132 0 LINE",
"132 307 LINE",
"393 307 LINE",
"393 401 LINE",
"132 401 LINE",
"132 535 LINE",
"184 606 LINE",
"474 606 LINE"
);
}
);
width = 504;
},
{
associatedMasterId = "575D5349-E17C-4630-8554-E10C4C95202B";
layerId = "5499D732-9A41-41CA-8256-AB161D9ABCF4";
paths = (
{
closed = 1;
nodes = (
"474 700 LINE",
"135 700 LINE",
"40 580.5 LINE",
"40 0 LINE",
"55.5 0 LINE",
"55.5 347.5 LINE",
"375 347.5 LINE",
"375 360.5 LINE",
"55.5 360.5 LINE",
"55.5 575.5 LINE",
"143.5 687 LINE",
"474 687 LINE"
);
}
);
width = 504;
}
);
note = F;
unicode = 0046;
},
{
color = 9;
glyphname = G;
layers = (
{
anchors = (
{
name = bottom;
position = "{346, 0}";
},
{
name = top;
position = "{346, 700}";
}
);
layerId = "575D5349-E17C-4630-8554-E10C4C95202B";
paths = (
{
closed = 1;
nodes = (
"651 283 LINE",
"463 283 LINE",
"463 242 LINE",
"610 242 LINE",
"610 139 LINE",
"535 40 LINE",
"155 40 LINE",
"80 139 LINE",
"80 561 LINE",
"155 660 LINE",
"535 660 LINE",
"605 568 LINE",
"637 592 LINE",
"555 700 LINE",
"135 700 LINE",
"40 575 LINE",
"40 125 LINE",
"135 0 LINE",
"555 0 LINE",
"651 125 LINE"
);
}
);
width = 691;
},
{
anchors = (
{
name = bottom;
position = "{346, 0}";
},
{
name = top;
position = "{346, 700}";
}
);
layerId = "40E32FB9-B6BE-48EB-82C7-9119AE8E729C";
paths = (
{
closed = 1;
nodes = (
"651 317 LINE",
"423 317 LINE",
"423 222 LINE",
"557 222 LINE",
"557 166 LINE",
"503 94 LINE",
"187 94 LINE",
"133 166 LINE",
"133 534 LINE",
"187 606 LINE",
"503 606 LINE",
"575 510 LINE",
"650 567 LINE",
"549 700 LINE",
"141 700 LINE",
"40 566 LINE",
"40 134 LINE",
"141 0 LINE",
"549 0 LINE",
"651 134 LINE"
);
}
);
width = 691;
},
{
associatedMasterId = "575D5349-E17C-4630-8554-E10C4C95202B";
layerId = "5499D732-9A41-41CA-8256-AB161D9ABCF4";
width = 691;
}
);
note = G;
unicode = 0047;
},
{
color = 9;
glyphname = H;
layers = (
{
anchors = (
{
name = bottom;
position = "{301, 0}";
},
{
name = center;
position = "{301, 560}";
},
{
name = top;
position = "{301, 700}";
},
{
name = topleft;
position = "{20, 700}";
}
);
layerId = "575D5349-E17C-4630-8554-E10C4C95202B";
paths = (
{
closed = 1;
nodes = (
"552 700 LINE",
"512 700 LINE",
"512 372 LINE",
"90 372 LINE",
"90 700 LINE",
"50 700 LINE",
"50 0 LINE",
"90 0 LINE",
"90 332 LINE",
"512 332 LINE",
"512 0 LINE",
"552 0 LINE"
);
}
);
width = 602;
},
{
anchors = (
{
name = bottom;
position = "{301, 0}";
},
{
name = center;
position = "{301, 577}";
},
{
name = top;
position = "{301, 700}";
},
{
name = topleft;
position = "{20, 700}";
}
);
layerId = "40E32FB9-B6BE-48EB-82C7-9119AE8E729C";
paths = (
{
closed = 1;
nodes = (
"552 700 LINE",
"460 700 LINE",
"460 399 LINE",
"142 399 LINE",
"142 700 LINE",
"50 700 LINE",
"50 0 LINE",
"142 0 LINE",
"142 305 LINE",
"460 305 LINE",
"460 0 LINE",
"552 0 LINE"
);
}
);
width = 602;
},
{
associatedMasterId = "575D5349-E17C-4630-8554-E10C4C95202B";
layerId = "5499D732-9A41-41CA-8256-AB161D9ABCF4";
width = 602;
}
);
note = H;
unicode = 0048;
},
{
color = 9;
glyphname = I;
layers = (
{
anchors = (
{
name = bottom;
position = "{70, 0}";
},
{
name = ogonek;
position = "{73, 10}";
},
{
name = top;
position = "{70, 700}";
},
{
name = topleft;
position = "{20, 700}";
}
);
layerId = "575D5349-E17C-4630-8554-E10C4C95202B";
paths = (
{
closed = 1;
nodes = (
"90 700 LINE",
"50 700 LINE",
"50 0 LINE",
"90 0 LINE"
);
}
);
width = 140;
},
{
anchors = (
{
name = bottom;
position = "{95, 0}";
},
{
name = ogonek;
position = "{102, 10}";
},
{
name = top;
position = "{95, 700}";
},
{
name = topleft;
position = "{20, 700}";
}
);
layerId = "40E32FB9-B6BE-48EB-82C7-9119AE8E729C";
paths = (
{
closed = 1;
nodes = (
"140 700 LINE",
"50 700 LINE",
"50 0 LINE",
"140 0 LINE"
);
}
);
width = 190;
},
{
anchors = (
{
name = bottom;
position = "{57.5, 0}";
},
{
name = ogonek;
position = "{21, 10}";
},
{
name = top;
position = "{57.5, 700}";
},
{
name = topleft;
position = "{20, 700}";
}
);
associatedMasterId = "575D5349-E17C-4630-8554-E10C4C95202B";
layerId = "5499D732-9A41-41CA-8256-AB161D9ABCF4";
paths = (
{
closed = 1;
nodes = (
"65 1050 LINE",
"5 700 LINE",
"50 -350 LINE",
"110 0 LINE"
);
}
);
width = 115;
}
);
note = I;
unicode = 0049;
},
{
color = 9;
glyphname = J;
layers = (
{
layerId = "575D5349-E17C-4630-8554-E10C4C95202B";
paths = (
{
closed = 1;
nodes = (
"366 700 LINE",
"324 700 LINE",
"324 138 LINE",
"246 40 LINE",
"30 40 LINE",
"30 0 LINE",
"267 0 LINE",
"366 124 LINE"
);
}
);
width = 416;
},
{
layerId = "40E32FB9-B6BE-48EB-82C7-9119AE8E729C";
paths = (
{
closed = 1;
nodes = (
"366 700 LINE",
"276 700 LINE",
"276 165 LINE",
"224 94 LINE",
"30 94 LINE",
"30 0 LINE",
"269 0 LINE",
"366 133 LINE"
);
}
);
width = 416;
},
{
associatedMasterId = "575D5349-E17C-4630-8554-E10C4C95202B";
layerId = "5499D732-9A41-41CA-8256-AB161D9ABCF4";
paths = (
{
closed = 1;
nodes = (
"366 700 LINE",
"348 700 LINE",
"348 124.5 LINE",
"257 13 LINE",
"30 13 LINE",
"30 0 LINE",
"266 0 LINE",
"366 119.5 LINE"
);
}
);
width = 421;
}
);
note = J;
unicode = 004A;
},
{
color = 9;
glyphname = K;
layers = (
{
anchors = (
{
name = bottom;
position = "{271, 0}";
},
{
name = top;
position = "{271, 700}";
}
);
layerId = "575D5349-E17C-4630-8554-E10C4C95202B";
paths = (
{
closed = 1;
nodes = (
"502 40 LINE",
"461 40 LINE",
"232 351 LINE",
"461 660 LINE",
"502 660 LINE",
"502 700 LINE",
"440 700 LINE",
"196 371 LINE",
"91 371 LINE",
"91 700 LINE",
"50 700 LINE",
"50 0 LINE",
"91 0 LINE",
"91 332 LINE",
"196 331 LINE",
"440 0 LINE",
"502 0 LINE"
);
}
);
width = 542;
},
{
anchors = (
{
name = bottom;
position = "{271, 0}";
},
{
name = top;
position = "{271, 700}";
}
);
layerId = "40E32FB9-B6BE-48EB-82C7-9119AE8E729C";
paths = (
{
closed = 1;
nodes = (
"502 96 LINE",
"452 96 LINE",
"272 351 LINE",
"452 606 LINE",
"502 606 LINE",
"502 700 LINE",
"405 700 LINE",
"192 398 LINE",
"142 398 LINE",
"142 700 LINE",
"50 700 LINE",
"50 0 LINE",
"142 0 LINE",
"142 305 LINE",
"192 304 LINE",
"405 2 LINE",
"502 2 LINE"
);
}
);
width = 542;
},
{
associatedMasterId = "575D5349-E17C-4630-8554-E10C4C95202B";
layerId = "5499D732-9A41-41CA-8256-AB161D9ABCF4";
width = 542;
}
);
note = K;
unicode = 004B;
},
{
color = 9;
glyphname = L;
layers = (
{
anchors = (
{
name = bottom;
position = "{234, 0}";
},
{
name = center;
position = "{169, 404}";
},
{
name = top;
position = "{234, 700}";
},
{
name = topright;
position = "{438, 700}";
}
);
layerId = "575D5349-E17C-4630-8554-E10C4C95202B";
paths = (
{
closed = 1;
nodes = (
"428 40 LINE",
"169 40 LINE",
"91 138 LINE",
"91 700 LINE",
"50 700 LINE",
"50 124 LINE",
"148 0 LINE",
"428 0 LINE"
);
}
);
width = 458;
},
{
anchors = (
{
name = bottom;
position = "{234, 0}";
},
{
name = center;
position = "{234, 350}";
},
{
name = top;
position = "{234, 700}";
},
{
name = topright;
position = "{438, 700}";
}
);
layerId = "40E32FB9-B6BE-48EB-82C7-9119AE8E729C";
paths = (
{
closed = 1;
nodes = (
"428 94 LINE",
"193 94 LINE",
"141 165 LINE",
"141 700 LINE",
"50 700 LINE",
"50 133 LINE",
"148 0 LINE",
"428 0 LINE"
);
}
);
width = 458;
},
{
associatedMasterId = "575D5349-E17C-4630-8554-E10C4C95202B";
layerId = "5499D732-9A41-41CA-8256-AB161D9ABCF4";
width = 448;
}
);
note = L;
unicode = 004C;
},
{
color = 9;
glyphname = M;
layers = (
{
layerId = "575D5349-E17C-4630-8554-E10C4C95202B";
paths = (
{
closed = 1;
nodes = (
"974 576 LINE",
"881 700 LINE",
"626 700 LINE",
"512 128 LINE",
"397 700 LINE",
"143 700 LINE",
"50 576 LINE",
"50 0 LINE",
"89 0 LINE",
"89 562 LINE",
"162 660 LINE",
"366 660 LINE",
"491 37 LINE",
"533 37 LINE",
"658 660 LINE",
"861 660 LINE",
"935 562 LINE",
"935 0 LINE",
"974 0 LINE"
);
}
);
width = 1024;
},
{
layerId = "40E32FB9-B6BE-48EB-82C7-9119AE8E729C";
paths = (
{
closed = 1;
nodes = (
"974 567 LINE",
"872 700 LINE",
"595 700 LINE",
"512 291 LINE",
"428 700 LINE",
"152 700 LINE",
"50 567 LINE",
"50 0 LINE",
"145 0 LINE",
"145 535 LINE",
"199 606 LINE",
"351 606 LINE",
"468 34 LINE",
"556 34 LINE",
"673 606 LINE",
"824 606 LINE",
"879 535 LINE",
"879 0 LINE",
"974 0 LINE"
);
}
);
width = 1024;
},
{
associatedMasterId = "575D5349-E17C-4630-8554-E10C4C95202B";
layerId = "5499D732-9A41-41CA-8256-AB161D9ABCF4";
paths = (
{
closed = 1;
nodes = (
"964 580.5 LINE",
"875.5 700 LINE",
"631.5 700 LINE",
"502 46.5 LINE",
"371.5 700 LINE",
"128.5 700 LINE",
"40 580.5 LINE",
"40 0 LINE",
"51 0 LINE",
"51 575.5 LINE",
"133.5 687 LINE",
"363.5 687 LINE",
"492.5 38.5 LINE",
"511.5 38.5 LINE",
"640.5 687 LINE",
"869.5 687 LINE",
"953 575.5 LINE",
"953 0 LINE",
"964 0 LINE"
);
}
);
width = 1004;
}
);
note = M;
unicode = 004D;
},
{
color = 9;
glyphname = N;
layers = (
{
anchors = (
{
name = bottom;
position = "{348, 0}";
},
{
name = top;
position = "{348, 700}";
}
);
layerId = "575D5349-E17C-4630-8554-E10C4C95202B";
paths = (
{
closed = 1;
nodes = (
"636 700 LINE",
"597 700 LINE",
"597 40 LINE",
"524 40 LINE",
"357 699 LINE",
"144 699 LINE",
"50 575 LINE",
"50 1 LINE",
"89 1 LINE",
"89 561 LINE",
"164 659 LINE",
"326 659 LINE",
"493 0 LINE",
"636 0 LINE"
);
}
);
width = 686;
},
{
anchors = (
{
name = bottom;
position = "{348, 0}";
},
{
name = top;
position = "{348, 700}";
}
);
layerId = "40E32FB9-B6BE-48EB-82C7-9119AE8E729C";
paths = (
{
closed = 1;
nodes = (
"636 700 LINE",
"544 700 LINE",
"544 94 LINE",
"528 94 LINE",
"378 699 LINE",
"149 699 LINE",
"50 566 LINE",
"50 1 LINE",
"142 1 LINE",
"142 534 LINE",
"196 605 LINE",
"305 605 LINE",
"456 0 LINE",
"636 0 LINE"
);
}
);
width = 686;
},
{
anchors = (
{
name = bottom;
position = "{338, 0}";
},
{
name = top;
position = "{338, 700}";
}
);
associatedMasterId = "575D5349-E17C-4630-8554-E10C4C95202B";
layerId = "5499D732-9A41-41CA-8256-AB161D9ABCF4";
paths = (
{
closed = 1;
nodes = (
"626 700 LINE",
"613.5 700 LINE",
"613.5 13 LINE",
"512 13 LINE",
"336.5 699 LINE",
"131.5 699 LINE",
"40 579.5 LINE",
"40 1 LINE",
"52.5 1 LINE",
"52.5 574.5 LINE",
"138 686 LINE",
"326.5 686 LINE",
"501.5 0 LINE",
"626 0 LINE"
);
}
);
width = 676;
}
);
note = N;
unicode = 004E;
},
{
glyphname = Eng;
layers = (
{
components = (
{
name = N;
}
);
layerId = "575D5349-E17C-4630-8554-E10C4C95202B";
paths = (
{
closed = 1;
nodes = (
"636 -69 LINE",
"636 29 LINE",
"597 29 LINE",
"597 -54 LINE",
"558 -108 LINE",
"589 -132 LINE"
);
}
);
width = 686;
},
{
components = (
{
name = N;
}
);
layerId = "40E32FB9-B6BE-48EB-82C7-9119AE8E729C";
paths = (
{
closed = 1;
nodes = (
"636 -78 LINE",
"636 39 LINE",
"573 39 LINE",
"573 -58 LINE",
"537 -105 LINE",
"587 -141 LINE"
);
}
);
width = 686;
}
);
leftMetricsKey = N;
rightMetricsKey = N;
unicode = 014A;
},
{
color = 9;
glyphname = O;
layers = (
{
anchors = (
{
name = bottom;
position = "{354, 0}";
},
{
name = center;
position = "{354, 350}";
},
{
name = ogonek;
position = "{629, 10}";
},
{
name = top;
position = "{354, 700}";
},
{
name = topleft;
position = "{30, 700}";
},
{
name = topright;
position = "{678, 700}";
}
);
layerId = "575D5349-E17C-4630-8554-E10C4C95202B";
paths = (
{
closed = 1;
nodes = (
"658 576 LINE",
"564 700 LINE",
"145 700 LINE",
"50 576 LINE",
"50 124 LINE",
"145 0 LINE",
"564 0 LINE",
"658 124 LINE"
);
},
{
closed = 1;
nodes = (
"544 40 LINE",
"165 40 LINE",
"90 138 LINE",
"90 562 LINE",
"165 660 LINE",
"544 660 LINE",
"618 562 LINE",
"618 138 LINE"
);
}
);
width = 708;
},
{
anchors = (
{
name = bottom;
position = "{354, 0}";
},
{
name = center;
position = "{354, 350}";
},
{
name = ogonek;
position = "{629, 10}";
},
{
name = top;
position = "{354, 700}";
},
{
name = topleft;
position = "{30, 700}";
},
{
name = topright;
position = "{678, 700}";
}
);
layerId = "40E32FB9-B6BE-48EB-82C7-9119AE8E729C";
paths = (
{
closed = 1;
nodes = (
"658 567 LINE",
"558 700 LINE",
"151 700 LINE",
"50 567 LINE",
"50 133 LINE",
"151 0 LINE",
"558 0 LINE",
"658 133 LINE"
);
},
{
closed = 1;
nodes = (
"512 94 LINE",
"197 94 LINE",
"143 165 LINE",
"143 535 LINE",
"197 606 LINE",
"512 606 LINE",
"565 535 LINE",
"565 165 LINE"
);
}
);
width = 708;
},
{
anchors = (
{
name = bottom;
position = "{344, 0}";
},
{
name = center;
position = "{344, 350}";
},
{
name = ogonek;
position = "{619, 10}";
},
{
name = top;
position = "{344, 700}";
},
{
name = topleft;
position = "{20, 700}";
},
{
name = topright;
position = "{668, 700}";
}
);
associatedMasterId = "575D5349-E17C-4630-8554-E10C4C95202B";
layerId = "5499D732-9A41-41CA-8256-AB161D9ABCF4";
paths = (
{
closed = 1;
nodes = (
"648 580.5 LINE",
"557 700 LINE",
"132 700 LINE",
"40 580.5 LINE",
"40 119.5 LINE",
"132 0 LINE",
"557 0 LINE",
"648 119.5 LINE"
);
},
{
closed = 1;
nodes = (
"550 13 LINE",
"139 13 LINE",
"53.5 124.5 LINE",
"53.5 575.5 LINE",
"139 687 LINE",
"550 687 LINE",
"634.5 575.5 LINE",
"634.5 124.5 LINE"
);
}
);
width = 688;
}
);
note = O;
unicode = 004F;
},
{
color = 9;
glyphname = P;
layers = (
{
layerId = "575D5349-E17C-4630-8554-E10C4C95202B";
paths = (
{
closed = 1;
nodes = (
"585 586 LINE",
"537 700 LINE",
"50 700 LINE",
"50 0 LINE",
"90 0 LINE",
"90 328 LINE",
"471 328 LINE",
"585 490 LINE"
);
},
{
closed = 1;
nodes = (
"449 368 LINE",
"90 368 LINE",
"90 660 LINE",
"511 660 LINE",
"545 579 LINE",
"545 503 LINE"
);
}
);
width = 625;
},
{
layerId = "40E32FB9-B6BE-48EB-82C7-9119AE8E729C";
paths = (
{
closed = 1;
nodes = (
"585 572 LINE",
"533 700 LINE",
"50 700 LINE",
"50 0 LINE",
"143 0 LINE",
"143 301 LINE",
"469 301 LINE",
"585 469 LINE"
);
},
{
closed = 1;
nodes = (
"420 395 LINE",
"143 395 LINE",
"143 606 LINE",
"471 606 LINE",
"492 554 LINE",
"492 499 LINE"
);
}
);
width = 625;
},
{
associatedMasterId = "575D5349-E17C-4630-8554-E10C4C95202B";
layerId = "5499D732-9A41-41CA-8256-AB161D9ABCF4";
paths = (
{
closed = 1;
nodes = (
"585 593 LINE",
"539 700 LINE",
"50 700 LINE",
"50 0 LINE",
"63.5 0 LINE",
"63.5 341.5 LINE",
"472 341.5 LINE",
"585 500.5 LINE"
);
},
{
closed = 1;
nodes = (
"463.5 354.5 LINE",
"63.5 354.5 LINE",
"63.5 687 LINE",
"531 687 LINE",
"571.5 591.5 LINE",
"571.5 505 LINE"
);
}
);
width = 625;
}
);
note = P;
unicode = 0050;
},
{
color = 9;
glyphname = Thorn;
layers = (
{
layerId = "575D5349-E17C-4630-8554-E10C4C95202B";
paths = (
{
closed = 1;
nodes = (
"90 -5 LINE",
"90 233 LINE",
"471 233 LINE",
"585 395 LINE",
"585 491 LINE",
"537 605 LINE",
"90 605 LINE",
"90 770 LINE",
"50 770 LINE",
"50 -5 LINE"
);
},
{
closed = 1;
nodes = (
"90 565 LINE",
"511 565 LINE",
"545 484 LINE",
"545 408 LINE",
"449 273 LINE",
"90 273 LINE"
);
}
);
width = 625;
},
{
layerId = "40E32FB9-B6BE-48EB-82C7-9119AE8E729C";
paths = (
{
closed = 1;
nodes = (
"143 -2 LINE",
"143 203 LINE",
"469 203 LINE",
"585 371 LINE",
"585 474 LINE",
"533 602 LINE",
"143 602 LINE",
"143 770 LINE",
"50 770 LINE",
"50 -2 LINE"
);
},
{
closed = 1;
nodes = (
"143 508 LINE",
"471 508 LINE",
"492 456 LINE",
"492 401 LINE",
"420 297 LINE",
"143 297 LINE"
);
}
);
width = 625;
},
{
associatedMasterId = "575D5349-E17C-4630-8554-E10C4C95202B";
layerId = "5499D732-9A41-41CA-8256-AB161D9ABCF4";
width = 637.5;
}
);
leftMetricsKey = P;
rightMetricsKey = P;
unicode = 00DE;
},
{
color = 9;
glyphname = Q;
layers = (
{
layerId = "575D5349-E17C-4630-8554-E10C4C95202B";
paths = (
{
closed = 1;
nodes = (
"656 576 LINE",
"562 699 LINE",
"145 699 LINE",
"50 576 LINE",
"50 123 LINE",
"145 0 LINE",
"352 0 LINE",
"352 -84 LINE",
"284 -135 LINE",
"308 -167 LINE",
"391 -105 LINE",
"391 0 LINE",
"562 0 LINE",
"656 123 LINE"
);
},
{
closed = 1;
nodes = (
"543 39 LINE",
"164 39 LINE",
"90 137 LINE",
"90 561 LINE",
"164 659 LINE",
"543 659 LINE",
"616 561 LINE",
"616 137 LINE"
);
}
);
width = 706;
},
{
layerId = "40E32FB9-B6BE-48EB-82C7-9119AE8E729C";
paths = (
{
closed = 1;
nodes = (
"656 565 LINE",
"556 699 LINE",
"151 699 LINE",
"50 565 LINE",
"50 135 LINE",
"151 0 LINE",
"323 0 LINE",
"323 -35 LINE",
"250 -90 LINE",
"306 -167 LINE",
"416 -83 LINE",
"416 0 LINE",
"556 0 LINE",
"656 135 LINE"
);
},
{
closed = 1;
nodes = (
"511 95 LINE",
"196 95 LINE",
"143 167 LINE",
"143 532 LINE",
"196 603 LINE",
"511 603 LINE",
"563 532 LINE",
"563 167 LINE"
);
}
);
width = 706;
},
{
associatedMasterId = "575D5349-E17C-4630-8554-E10C4C95202B";
layerId = "5499D732-9A41-41CA-8256-AB161D9ABCF4";
paths = (
{
closed = 1;
nodes = (
"646 581.5 LINE",
"555 699 LINE",
"132 699 LINE",
"40 581.5 LINE",
"40 117 LINE",
"132 0 LINE",
"356.5 0 LINE",
"356.5 -108.5 LINE",
"291 -157.5 LINE",
"299 -167 LINE",
"368.5 -116 LINE",
"368.5 0 LINE",
"555 0 LINE",
"646 117 LINE"
);
},
{
closed = 1;
nodes = (
"549 11 LINE",
"138 11 LINE",
"53.5 122 LINE",
"53.5 575.5 LINE",
"138 687 LINE",
"549 687 LINE",
"632.5 575.5 LINE",
"632.5 122 LINE"
);
}
);
width = 686;
}
);
note = Q;
unicode = 0051;
},
{
color = 9;
glyphname = R;
layers = (
{
anchors = (
{
name = bottom;
position = "{313, 0}";
},
{
name = top;
position = "{313, 700}";
}
);
layerId = "575D5349-E17C-4630-8554-E10C4C95202B";
paths = (
{
closed = 1;
nodes = (
"586 588 LINE",
"537 700 LINE",
"50 700 LINE",
"50 0 LINE",
"89 0 LINE",
"89 330 LINE",
"376 330 LINE",
"520 0 LINE",
"566 0 LINE",
"419 330 LINE",
"471 330 LINE",
"586 491 LINE"
);
},
{
closed = 1;
nodes = (
"451 369 LINE",
"90 369 LINE",
"90 660 LINE",
"511 660 LINE",
"546 580 LINE",
"546 504 LINE"
);
}
);
width = 626;
},
{
anchors = (
{
name = bottom;
position = "{313, 0}";
},
{
name = top;
position = "{313, 700}";
}
);
layerId = "40E32FB9-B6BE-48EB-82C7-9119AE8E729C";
paths = (
{
closed = 1;
nodes = (
"586 574 LINE",
"533 700 LINE",
"50 700 LINE",
"50 0 LINE",
"142 0 LINE",
"142 303 LINE",
"351 303 LINE",
"480 0 LINE",
"583 0 LINE",
"452 303 LINE",
"469 303 LINE",
"586 470 LINE"
);
},
{
closed = 1;
nodes = (
"422 396 LINE",
"143 396 LINE",
"143 606 LINE",
"472 606 LINE",
"493 555 LINE",
"493 500 LINE"
);
}
);
width = 626;
},
{
associatedMasterId = "575D5349-E17C-4630-8554-E10C4C95202B";
layerId = "5499D732-9A41-41CA-8256-AB161D9ABCF4";
width = 626;
}
);
note = R;
unicode = 0052;
},
{
color = 9;
glyphname = S;
layers = (
{
anchors = (
{
name = bottom;
position = "{335, 0}";
},
{
name = top;
position = "{335, 700}";
}
);
layerId = "575D5349-E17C-4630-8554-E10C4C95202B";
paths = (
{
closed = 1;
nodes = (
"629 272 LINE",
"524 360 LINE",
"158 360 LINE",
"80 427 LINE",
"80 557 LINE",
"203 660 LINE",
"467 660 LINE",
"589 557 LINE",
"589 499 LINE",
"629 499 LINE",
"629 575 LINE",
"483 700 LINE",
"189 700 LINE",
"40 575 LINE",
"40 408 LINE",
"144 320 LINE",
"511 320 LINE",
"589 253 LINE",
"589 143 LINE",
"465 40 LINE",
"201 40 LINE",
"80 143 LINE",
"80 212 LINE",
"40 212 LINE",
"40 125 LINE",
"186 0 LINE",
"480 0 LINE",
"629 125 LINE"
);
}
);
width = 669;
},
{
anchors = (
{
name = bottom;
position = "{335, 0}";
},
{
name = top;
position = "{335, 700}";
}
);
layerId = "40E32FB9-B6BE-48EB-82C7-9119AE8E729C";
paths = (
{
closed = 1;
nodes = (
"629 295 LINE",
"516 391 LINE",
"186 391 LINE",
"133 437 LINE",
"133 527 LINE",
"226 606 LINE",
"444 606 LINE",
"536 527 LINE",
"536 468 LINE",
"629 468 LINE",
"629 569 LINE",
"479 700 LINE",
"193 700 LINE",
"40 570 LINE",
"40 393 LINE",
"152 297 LINE",
"483 297 LINE",
"536 251 LINE",
"536 174 LINE",
"442 94 LINE",
"224 94 LINE",
"133 173 LINE",
"133 222 LINE",
"40 222 LINE",
"40 131 LINE",
"190 0 LINE",
"476 0 LINE",
"629 130 LINE"
);
}
);
width = 669;
},
{
associatedMasterId = "575D5349-E17C-4630-8554-E10C4C95202B";
layerId = "5499D732-9A41-41CA-8256-AB161D9ABCF4";
width = 669;
}
);
note = S;
unicode = 0053;
},
{
color = 9;
glyphname = T;
layers = (
{
anchors = (
{
name = bottom;
position = "{297, 0}";
},
{
name = center;
position = "{315, 350}";
},
{
name = top;
position = "{315, 700}";
}
);
layerId = "575D5349-E17C-4630-8554-E10C4C95202B";
paths = (
{
closed = 1;
nodes = (
"589 700 LINE",
"388 700 LINE",
"313 602 LINE",
"237 700 LINE",
"40 700 LINE",
"40 660 LINE",
"218 660 LINE",
"293 562 LINE",
"293 0 LINE",
"333 0 LINE",
"333 562 LINE",
"408 660 LINE",
"589 660 LINE"
);
}
);
width = 629;
},
{
anchors = (
{
name = bottom;
position = "{315, 0}";
},
{
name = center;
position = "{315, 350}";
},
{
name = top;
position = "{315, 700}";
}
);
layerId = "40E32FB9-B6BE-48EB-82C7-9119AE8E729C";
paths = (
{
closed = 1;
nodes = (
"589 700 LINE",
"367 700 LINE",
"313 629 LINE",
"259 700 LINE",
"40 700 LINE",
"40 606 LINE",
"214 606 LINE",
"267 535 LINE",
"267 0 LINE",
"360 0 LINE",
"360 535 LINE",
"412 606 LINE",
"589 606 LINE"
);
}
);
width = 629;
},
{
associatedMasterId = "575D5349-E17C-4630-8554-E10C4C95202B";
layerId = "5499D732-9A41-41CA-8256-AB161D9ABCF4";
width = 629;
}
);
note = T;
unicode = 0054;
},
{
color = 9;
glyphname = U;
layers = (
{
anchors = (
{
name = bottom;
position = "{338, 0}";
},
{
name = ogonek;
position = "{521, 10}";
},
{
name = top;
position = "{338, 700}";
},
{
name = topright;
position = "{646, 700}";
}
);
layerId = "575D5349-E17C-4630-8554-E10C4C95202B";
paths = (
{
closed = 1;
nodes = (
"626 700 LINE",
"587 700 LINE",
"587 137 LINE",
"511 40 LINE",
"165 40 LINE",
"90 137 LINE",
"90 700 LINE",
"50 700 LINE",
"50 123 LINE",
"144 0 LINE",
"532 0 LINE",
"626 123 LINE"
);
}
);
width = 676;
},
{
anchors = (
{
name = bottom;
position = "{338, 0}";
},
{
name = ogonek;
position = "{493, 4}";
},
{
name = top;
position = "{338, 700}";
},
{
name = topright;
position = "{646, 700}";
}
);
layerId = "40E32FB9-B6BE-48EB-82C7-9119AE8E729C";
paths = (
{
closed = 1;
nodes = (
"626 700 LINE",
"534 700 LINE",
"534 164 LINE",
"480 94 LINE",
"196 94 LINE",
"143 164 LINE",
"143 700 LINE",
"50 700 LINE",
"50 132 LINE",
"149 0 LINE",
"527 0 LINE",
"626 132 LINE"
);
}
);
width = 676;
},
{
anchors = (
{
name = bottom;
position = "{328, 0}";
},
{
name = ogonek;
position = "{471.5, 10}";
},
{
name = top;
position = "{328, 700}";
},
{
name = topright;
position = "{636, 700}";
}
);
associatedMasterId = "575D5349-E17C-4630-8554-E10C4C95202B";
layerId = "5499D732-9A41-41CA-8256-AB161D9ABCF4";
paths = (
{
closed = 1;
nodes = (
"616 700 LINE",
"603.5 700 LINE",
"603.5 123.5 LINE",
"516.5 13 LINE",
"139.5 13 LINE",
"53.5 123.5 LINE",
"53.5 700 LINE",
"40 700 LINE",
"40 118.5 LINE",
"131.5 0 LINE",
"524.5 0 LINE",
"616 118.5 LINE"
);
}
);
width = 656;
}
);
note = U;
unicode = 0055;
},
{
color = 9;
glyphname = V;
layers = (
{
layerId = "575D5349-E17C-4630-8554-E10C4C95202B";
paths = (
{
closed = 1;
nodes = (
"80 700 LINE",
"40 700 LINE",
"40 363 LINE",
"287 0 LINE",
"364 0 LINE",
"595 361 LINE",
"595 700 LINE",
"555 700 LINE",
"555 373 LINE",
"342 40 LINE",
"309 40 LINE",
"80 376 LINE"
);
}
);
width = 635;
},
{
layerId = "40E32FB9-B6BE-48EB-82C7-9119AE8E729C";
paths = (
{
closed = 1;
nodes = (
"133 700 LINE",
"40 700 LINE",
"40 353 LINE",
"275 0 LINE",
"375 0 LINE",
"595 352 LINE",
"595 700 LINE",
"502 700 LINE",
"502 379 LINE",
"324 95 LINE",
"324 95 LINE",
"133 382 LINE"
);
}
);
width = 635;
},
{
associatedMasterId = "575D5349-E17C-4630-8554-E10C4C95202B";
layerId = "5499D732-9A41-41CA-8256-AB161D9ABCF4";
width = 635;
}
);
note = V;
unicode = 0056;
},
{
color = 9;
glyphname = W;
layers = (
{
anchors = (
{
name = bottom;
position = "{502, 0}";
},
{
name = top;
position = "{502, 700}";
}
);
layerId = "575D5349-E17C-4630-8554-E10C4C95202B";
paths = (
{
closed = 1;
nodes = (
"964 700 LINE",
"925 700 LINE",
"925 355 LINE",
"846 40 LINE",
"648 40 LINE",
"523 663 LINE",
"480 663 LINE",
"356 40 LINE",
"158 40 LINE",
"79 355 LINE",
"79 700 LINE",
"40 700 LINE",
"40 351 LINE",
"128 0 LINE",
"387 0 LINE",
"502 572 LINE",
"616 0 LINE",
"876 0 LINE",
"964 351 LINE"
);
}
);
width = 1004;
},
{
anchors = (
{
name = bottom;
position = "{502, 0}";
},
{
name = top;
position = "{502, 700}";
}
);
layerId = "40E32FB9-B6BE-48EB-82C7-9119AE8E729C";
paths = (
{
closed = 1;
nodes = (
"964 700 LINE",
"869 700 LINE",
"869 359 LINE",
"802 94 LINE",
"663 94 LINE",
"546 666 LINE",
"457 666 LINE",
"341 94 LINE",
"202 94 LINE",
"135 359 LINE",
"135 700 LINE",
"40 700 LINE",
"40 347 LINE",
"128 0 LINE",
"418 0 LINE",
"502 409 LINE",
"585 0 LINE",
"876 0 LINE",
"964 347 LINE"
);
}
);
width = 1004;
},
{
associatedMasterId = "575D5349-E17C-4630-8554-E10C4C95202B";
layerId = "5499D732-9A41-41CA-8256-AB161D9ABCF4";
width = 1004;
}
);
note = W;
unicode = 0057;
},
{
color = 9;
glyphname = X;
layers = (
{
layerId = "575D5349-E17C-4630-8554-E10C4C95202B";
paths = (
{
closed = 1;
nodes = (
"625 40 LINE",
"583 40 LINE",
"358 350 LINE",
"583 660 LINE",
"625 660 LINE",
"625 700 LINE",
"562 700 LINE",
"332 384 LINE",
"103 700 LINE",
"40 700 LINE",
"40 660 LINE",
"82 660 LINE",
"307 350 LINE",
"82 40 LINE",
"40 40 LINE",
"40 0 LINE",
"103 0 LINE",
"332 316 LINE",
"562 0 LINE",
"625 0 LINE"
);
}
);
width = 665;
},
{
layerId = "40E32FB9-B6BE-48EB-82C7-9119AE8E729C";
paths = (
{
closed = 1;
nodes = (
"625 94 LINE",
"573 94 LINE",
"391 350 LINE",
"573 606 LINE",
"625 606 LINE",
"625 700 LINE",
"525 700 LINE",
"332 430 LINE",
"140 700 LINE",
"40 700 LINE",
"40 606 LINE",
"92 606 LINE",
"274 350 LINE",
"92 94 LINE",
"40 94 LINE",
"40 0 LINE",
"140 0 LINE",
"332 270 LINE",
"525 0 LINE",
"625 0 LINE"
);
}
);
width = 665;
},
{
associatedMasterId = "575D5349-E17C-4630-8554-E10C4C95202B";
layerId = "5499D732-9A41-41CA-8256-AB161D9ABCF4";
paths = (
{
closed = 1;
nodes = (
"625 13 LINE",
"588 13 LINE",
"341.5 350 LINE",
"588 687 LINE",
"625 687 LINE",
"625 700 LINE",
"580.5 700 LINE",
"332 361 LINE",
"84.5 700 LINE",
"40 700 LINE",
"40 687 LINE",
"77 687 LINE",
"323.5 350 LINE",
"77 13 LINE",
"40 13 LINE",
"40 0 LINE",
"84.5 0 LINE",
"332 339 LINE",
"580.5 0 LINE",
"625 0 LINE"
);
}
);
width = 665;
}
);
note = X;
unicode = 0058;
},
{
color = 9;
glyphname = Y;
layers = (
{
anchors = (
{
name = bottom;
position = "{318, 0}";
},
{
name = top;
position = "{318, 700}";
},
{
name = topleft;
position = "{20, 700}";
}
);
layerId = "575D5349-E17C-4630-8554-E10C4C95202B";
paths = (
{
closed = 1;
nodes = (
"80 700 LINE",
"40 700 LINE",
"40 612 LINE",
"287 249 LINE",
"307 249 LINE",
"307 37 LINE",
"259 37 LINE",
"259 0 LINE",
"346 0 LINE",
"346 249 LINE",
"364 249 LINE",
"596 609 LINE",
"596 700 LINE",
"556 700 LINE",
"556 621 LINE",
"343 288 LINE",
"310 288 LINE",
"80 624 LINE"
);
}
);
width = 636;
},
{
anchors = (
{
name = bottom;
position = "{318, 0}";
},
{
name = top;
position = "{318, 700}";
},
{
name = topleft;
position = "{20, 700}";
}
);
layerId = "40E32FB9-B6BE-48EB-82C7-9119AE8E729C";
paths = (
{
closed = 1;
nodes = (
"133 700 LINE",
"40 700 LINE",
"40 582 LINE",
"275 228 LINE",
"280 228 LINE",
"280 94 LINE",
"236 94 LINE",
"236 0 LINE",
"373 0 LINE",
"373 228 LINE",
"375 228 LINE",
"596 580 LINE",
"596 700 LINE",
"503 700 LINE",
"503 607 LINE",
"325 323 LINE",
"302 357 LINE",
"133 610 LINE"
);
}
);
width = 636;
},
{
associatedMasterId = "575D5349-E17C-4630-8554-E10C4C95202B";
layerId = "5499D732-9A41-41CA-8256-AB161D9ABCF4";
width = 636;
}
);
note = Y;
unicode = 0059;
},
{
color = 9;
glyphname = Z;
layers = (
{
anchors = (
{
name = bottom;
position = "{305, 0}";
},
{
name = top;
position = "{305, 700}";
}
);
layerId = "575D5349-E17C-4630-8554-E10C4C95202B";
paths = (
{
closed = 1;
nodes = (
"570 700 LINE",
"46 700 LINE",
"46 660 LINE",
"530 660 LINE",
"530 614 LINE",
"40 105 LINE",
"40 0 LINE",
"565 0 LINE",
"565 40 LINE",
"80 40 LINE",
"80 89 LINE",
"570 599 LINE"
);
}
);
width = 610;
},
{
anchors = (
{
name = bottom;
position = "{305, 0}";
},
{
name = top;
position = "{305, 700}";
}
);
layerId = "40E32FB9-B6BE-48EB-82C7-9119AE8E729C";
paths = (
{
closed = 1;
nodes = (
"570 700 LINE",
"46 700 LINE",
"46 606 LINE",
"477 606 LINE",
"477 604 LINE",
"40 136 LINE",
"40 0 LINE",
"565 0 LINE",
"565 94 LINE",
"133 94 LINE",
"133 99 LINE",
"570 567 LINE"
);
}
);
width = 610;
},
{
anchors = (
{
name = bottom;
position = "{305, 0}";
},
{
name = top;
position = "{305, 700}";
}
);
associatedMasterId = "575D5349-E17C-4630-8554-E10C4C95202B";
layerId = "5499D732-9A41-41CA-8256-AB161D9ABCF4";
paths = (
{
closed = 1;
nodes = (
"570 700 LINE",
"46 700 LINE",
"46 687 LINE",
"556.5 687 LINE",
"556.5 619 LINE",
"40 89.5 LINE",
"40 0 LINE",
"565 0 LINE",
"565 13 LINE",
"53.5 13 LINE",
"53.5 84 LINE",
"570 615 LINE"
);
}
);
width = 610;
}
);
note = Z;
unicode = 005A;
},
{
color = 9;
glyphname = a;
layers = (
{
anchors = (
{
name = bottom;
position = "{283, 0}";
},
{
name = ogonek;
position = "{504, 10}";
},
{
name = top;
position = "{283, 488}";
}
);
layerId = "575D5349-E17C-4630-8554-E10C4C95202B";
paths = (
{
closed = 1;
nodes = (
"515 477 LINE",
"476 477 LINE",
"476 412 LINE",
"414 477 LINE",
"134 477 LINE",
"40 400 LINE",
"40 78 LINE",
"134 0 LINE",
"412 0 LINE",
"476 46 LINE",
"476 1 LINE",
"515 1 LINE"
);
},
{
closed = 1;
nodes = (
"399 41 LINE",
"149 41 LINE",
"81 96 LINE",
"81 381 LINE",
"148 438 LINE",
"396 438 LINE",
"476 352 LINE",
"476 98 LINE"
);
}
);
width = 565;
},
{
anchors = (
{
name = bottom;
position = "{283, 0}";
},
{
name = ogonek;
position = "{479, 10}";
},
{
name = top;
position = "{283, 488}";
}
);
layerId = "40E32FB9-B6BE-48EB-82C7-9119AE8E729C";
paths = (
{
closed = 1;
nodes = (
"515 477 LINE",
"424 477 LINE",
"424 448 LINE",
"390 477 LINE",
"141 477 LINE",
"40 394 LINE",
"40 84 LINE",
"141 0 LINE",
"390 0 LINE",
"424 29 LINE",
"424 1 LINE",
"515 1 LINE"
);
},
{
closed = 1;
nodes = (
"375 92 LINE",
"174 92 LINE",
"132 126 LINE",
"132 351 LINE",
"174 386 LINE",
"370 386 LINE",
"424 328 LINE",
"424 138 LINE"
);
}
);
width = 565;
},
{
anchors = (
{
name = bottom;
position = "{283, 0}";
},
{
name = ogonek;
position = "{508, 10}";
},
{
name = top;
position = "{283, 478}";
}
);
associatedMasterId = "575D5349-E17C-4630-8554-E10C4C95202B";
layerId = "5499D732-9A41-41CA-8256-AB161D9ABCF4";
paths = (
{
closed = 1;
nodes = (
"515 477 LINE",
"502 477 LINE",
"502 389 LINE",
"421 477 LINE",
"130.5 477 LINE",
"40 403 LINE",
"40 75 LINE",
"130.5 0 LINE",
"418 0 LINE",
"502 59.5 LINE",
"502 1 LINE",
"515 1 LINE"
);
},
{
closed = 1;
nodes = (
"411 15.5 LINE",
"136.5 15.5 LINE",
"55.5 81 LINE",
"55.5 396 LINE",
"135 464 LINE",
"409 464 LINE",
"502 364 LINE",
"502 83 LINE"
);
}
);
width = 565;
}
);
leftKerningGroup = "lower-round";
note = a;
unicode = 0061;
},
{
color = 9;
glyphname = b;
layers = (
{
layerId = "575D5349-E17C-4630-8554-E10C4C95202B";
paths = (
{
closed = 1;
nodes = (
"527 402 LINE",
"433 478 LINE",
"152 478 LINE",
"91 413 LINE",
"91 700 LINE",
"50 700 LINE",
"50 0 LINE",
"91 0 LINE",
"91 45 LINE",
"154 0 LINE",
"433 0 LINE",
"527 76 LINE"
);
},
{
closed = 1;
nodes = (
"419 40 LINE",
"167 40 LINE",
"91 96 LINE",
"91 356 LINE",
"170 438 LINE",
"419 438 LINE",
"488 383 LINE",
"488 95 LINE"
);
}
);
width = 567;
},
{
layerId = "40E32FB9-B6BE-48EB-82C7-9119AE8E729C";
paths = (
{
closed = 1;
nodes = (
"527 393 LINE",
"426 478 LINE",
"176 478 LINE",
"142 448 LINE",
"142 700 LINE",
"50 700 LINE",
"50 0 LINE",
"142 0 LINE",
"142 29 LINE",
"186 0 LINE",
"426 0 LINE",
"527 85 LINE"
);
},
{
closed = 1;
nodes = (
"393 94 LINE",
"191 94 LINE",
"142 141 LINE",
"142 326 LINE",
"196 384 LINE",
"393 384 LINE",
"436 349 LINE",
"436 130 LINE"
);
}
);
width = 567;
},
{
associatedMasterId = "575D5349-E17C-4630-8554-E10C4C95202B";
layerId = "5499D732-9A41-41CA-8256-AB161D9ABCF4";
paths = (
{
closed = 1;
nodes = (
"577.5 603 LINE",
"386 674.5 LINE",
"-35.5 520.5 LINE",
"-76.5 380.5 LINE",
"53.5 811 LINE",
"4 821 LINE",
"4 -350 LINE",
"111.5 -350 LINE",
"111.5 67.5 LINE",
"160 0 LINE",
"578.5 -9.5 LINE",
"707.5 114 LINE"
);
},
{
closed = 1;
nodes = (
"432 13 LINE",
"155 13 LINE",
"65.5 78.5 LINE",
"65.5 371 LINE",
"157 465 LINE",
"432 465 LINE",
"514 400 LINE",
"514 77.5 LINE"
);
}
);
width = 567;
}
);
note = b;
unicode = 0062;
},
{
color = 9;
glyphname = c;
layers = (
{
anchors = (
{
name = bottom;
position = "{289, 0}";
},
{
name = top;
position = "{289, 478}";
}
);
layerId = "575D5349-E17C-4630-8554-E10C4C95202B";
paths = (
{
closed = 1;
nodes = (
"528 152 LINE",
"487 152 LINE",
"487 95 LINE",
"420 39 LINE",
"167 39 LINE",
"91 96 LINE",
"91 380 LINE",
"167 437 LINE",
"420 437 LINE",
"487 381 LINE",
"487 324 LINE",
"528 324 LINE",
"528 400 LINE",
"434 478 LINE",
"155 478 LINE",
"50 401 LINE",
"50 75 LINE",
"155 -2 LINE",
"434 -2 LINE",
"528 76 LINE"
);
}
);
width = 578;
},
{
anchors = (
{
name = bottom;
position = "{289, 0}";
},
{
name = top;
position = "{289, 488}";
}
);
layerId = "40E32FB9-B6BE-48EB-82C7-9119AE8E729C";
paths = (
{
closed = 1;
nodes = (
"528 180 LINE",
"436 180 LINE",
"436 125 LINE",
"394 90 LINE",
"191 90 LINE",
"142 127 LINE",
"142 349 LINE",
"191 386 LINE",
"394 386 LINE",
"436 351 LINE",
"436 296 LINE",
"528 296 LINE",
"528 394 LINE",
"427 478 LINE",
"161 478 LINE",
"50 396 LINE",
"50 80 LINE",
"161 -2 LINE",
"427 -2 LINE",
"528 82 LINE"
);
}
);
width = 578;
},
{
anchors = (
{
name = bottom;
position = "{289, 0}";
},
{
name = top;
position = "{289, 478}";
}
);
associatedMasterId = "575D5349-E17C-4630-8554-E10C4C95202B";
layerId = "5499D732-9A41-41CA-8256-AB161D9ABCF4";
paths = (
{
closed = 1;
nodes = (
"528 133 LINE",
"512.5 133 LINE",
"512.5 80 LINE",
"433 13.5 LINE",
"155 13.5 LINE",
"65.5 80.5 LINE",
"65.5 395.5 LINE",
"155 462.5 LINE",
"433 462.5 LINE",
"512.5 396 LINE",
"512.5 343 LINE",
"528 343 LINE",
"528 403 LINE",
"437.5 478 LINE",
"152 478 LINE",
"50 403.5 LINE",
"50 72.5 LINE",
"152 -2 LINE",
"437.5 -2 LINE",
"528 73 LINE"
);
}
);
width = 578;
}
);
leftKerningGroup = "lower-round";
note = c;
unicode = 0063;
},
{
color = 9;
glyphname = d;
layers = (
{
anchors = (
{
name = bottom;
position = "{283, 0}";
},
{
name = center;
position = "{328, 597}";
},
{
name = top;
position = "{283, 700}";
},
{
name = topright;
position = "{546, 478}";
}
);
layerId = "575D5349-E17C-4630-8554-E10C4C95202B";
paths = (
{
closed = 1;
nodes = (
"516 697 LINE",
"475 697 LINE",
"475 415 LINE",
"414 478 LINE",
"134 478 LINE",
"40 403 LINE",
"40 76 LINE",
"134 0 LINE",
"413 0 LINE",
"475 46 LINE",
"475 0 LINE",
"516 0 LINE"
);
},
{
closed = 1;
nodes = (
"399 40 LINE",
"149 40 LINE",
"81 94 LINE",
"81 384 LINE",
"148 439 LINE",
"397 439 LINE",
"475 356 LINE",
"475 96 LINE"
);
}
);
width = 566;
},
{
anchors = (
{
name = bottom;
position = "{283, 0}";
},
{
name = center;
position = "{321, 576}";
},
{
name = top;
position = "{283, 700}";
},
{
name = topright;
position = "{546, 478}";
}
);
layerId = "40E32FB9-B6BE-48EB-82C7-9119AE8E729C";
paths = (
{
closed = 1;
nodes = (
"516 697 LINE",
"424 697 LINE",
"424 448 LINE",
"390 478 LINE",
"141 478 LINE",
"40 394 LINE",
"40 85 LINE",
"141 0 LINE",
"386 0 LINE",
"424 29 LINE",
"424 1 LINE",
"516 1 LINE"
);
},
{
closed = 1;
nodes = (
"375 94 LINE",
"174 94 LINE",
"132 129 LINE",
"132 350 LINE",
"174 385 LINE",
"371 385 LINE",
"424 326 LINE",
"424 141 LINE"
);
}
);
width = 566;
},
{
associatedMasterId = "575D5349-E17C-4630-8554-E10C4C95202B";
layerId = "5499D732-9A41-41CA-8256-AB161D9ABCF4";
width = 566;
}
);
leftKerningGroup = "lower-round";
note = d;
unicode = 0064;
},
{
glyphname = eth;
layers = (
{
layerId = "575D5349-E17C-4630-8554-E10C4C95202B";
paths = (
{
closed = 1;
nodes = (
"516 0 LINE",
"516 635 LINE",
"436 697 LINE",
"413 662 LINE",
"476 614 LINE",
"475 398 LINE",
"134 398 LINE",
"40 323 LINE",
"40 76 LINE",
"134 0 LINE"
);
},
{
closed = 1;
nodes = (
"81 94 LINE",
"81 304 LINE",
"148 359 LINE",
"475 359 LINE",
"475 40 LINE",
"149 40 LINE"
);
},
{
closed = 1;
nodes = (
"570 652 LINE",
"549 685 LINE",
"396 588 LINE",
"417 555 LINE"
);
}
);
width = 620;
},
{
layerId = "40E32FB9-B6BE-48EB-82C7-9119AE8E729C";
paths = (
{
closed = 1;
nodes = (
"516 1 LINE",
"516 630 LINE",
"415 715 LINE",
"341 668 LINE",
"424 601 LINE",
"424 418 LINE",
"141 418 LINE",
"40 334 LINE",
"40 85 LINE",
"141 0 LINE"
);
},
{
closed = 1;
nodes = (
"132 129 LINE",
"132 290 LINE",
"174 325 LINE",
"424 325 LINE",
"424 94 LINE",
"174 94 LINE"
);
},
{
closed = 1;
nodes = (
"580 638 LINE",
"541 709 LINE",
"342 600 LINE",
"380 529 LINE"
);
}
);
width = 630;
},
{
associatedMasterId = "575D5349-E17C-4630-8554-E10C4C95202B";
layerId = "5499D732-9A41-41CA-8256-AB161D9ABCF4";
width = 609;
}
);
leftKerningGroup = "lower-round";
leftMetricsKey = d;
rightMetricsKey = d;
unicode = 00F0;
},
{
color = 9;
glyphname = e;
layers = (
{
anchors = (
{
name = bottom;
position = "{278, 0}";
},
{
name = ogonek;
position = "{410, 10}";
},
{
name = top;
position = "{278, 478}";
}
);
layerId = "575D5349-E17C-4630-8554-E10C4C95202B";
paths = (
{
closed = 1;
nodes = (
"516 400 LINE",
"422 477 LINE",
"143 477 LINE",
"40 401 LINE",
"40 77 LINE",
"144 0 LINE",
"422 0 LINE",
"497 61 LINE",
"470 93 LINE",
"408 41 LINE",
"157 41 LINE",
"81 98 LINE",
"81 232 LINE",
"516 232 LINE"
);
},
{
closed = 1;
nodes = (
"81 271 LINE",
"81 380 LINE",
"157 438 LINE",
"408 438 LINE",
"475 381 LINE",
"475 271 LINE"
);
}
);
width = 556;
},
{
anchors = (
{
name = bottom;
position = "{278, 0}";
},
{
name = ogonek;
position = "{381, 10}";
},
{
name = top;
position = "{278, 488}";
}
);
layerId = "40E32FB9-B6BE-48EB-82C7-9119AE8E729C";
paths = (
{
closed = 1;
nodes = (
"516 394 LINE",
"415 477 LINE",
"150 477 LINE",
"40 396 LINE",
"40 82 LINE",
"150 0 LINE",
"415 0 LINE",
"511 78 LINE",
"451 150 LINE",
"382 92 LINE",
"181 92 LINE",
"132 128 LINE",
"132 207 LINE",
"516 207 LINE"
);
},
{
closed = 1;
nodes = (
"132 295 LINE",
"132 349 LINE",
"181 386 LINE",
"382 386 LINE",
"424 351 LINE",
"424 295 LINE"
);
}
);
width = 556;
},
{
anchors = (
{
name = bottom;
position = "{278, 0}";
},
{
name = ogonek;
position = "{365, 10}";
},
{
name = top;
position = "{278, 478}";
}
);
associatedMasterId = "575D5349-E17C-4630-8554-E10C4C95202B";
layerId = "5499D732-9A41-41CA-8256-AB161D9ABCF4";
paths = (
{
closed = 1;
nodes = (
"516 403 LINE",
"425.5 477 LINE",
"139.5 477 LINE",
"40 403.5 LINE",
"40 74.5 LINE",
"141 0 LINE",
"425.5 0 LINE",
"490 52.5 LINE",
"479.5 64.5 LINE",
"421 15.5 LINE",
"145 15.5 LINE",
"55.5 83 LINE",
"55.5 246 LINE",
"516 246 LINE"
);
},
{
closed = 1;
nodes = (
"55.5 259 LINE",
"55.5 395.5 LINE",
"145 464 LINE",
"421 464 LINE",
"500.5 396 LINE",
"500.5 259 LINE"
);
}
);
width = 556;
}
);
leftKerningGroup = "lower-round";
note = e;
unicode = 0065;
},
{
color = 9;
glyphname = f;
layers = (
{
layerId = "575D5349-E17C-4630-8554-E10C4C95202B";
paths = (
{
closed = 1;
nodes = (
"340 478 LINE",
"204 478 LINE",
"204 563 LINE",
"282 661 LINE",
"340 661 LINE",
"340 700 LINE",
"261 700 LINE",
"162 577 LINE",
"162 478 LINE",
"30 478 LINE",
"30 438 LINE",
"162 438 LINE",
"162 0 LINE",
"204 0 LINE",
"204 438 LINE",
"340 438 LINE"
);
}
);
width = 370;
},
{
layerId = "40E32FB9-B6BE-48EB-82C7-9119AE8E729C";
paths = (
{
closed = 1;
nodes = (
"350 478 LINE",
"238 478 LINE",
"238 536 LINE",
"288 607 LINE",
"350 607 LINE",
"350 700 LINE",
"244 700 LINE",
"148 568 LINE",
"148 478 LINE",
"40 478 LINE",
"40 384 LINE",
"148 384 LINE",
"148 0 LINE",
"238 0 LINE",
"238 384 LINE",
"350 384 LINE"
);
}
);
width = 380;
},
{
associatedMasterId = "575D5349-E17C-4630-8554-E10C4C95202B";
layerId = "5499D732-9A41-41CA-8256-AB161D9ABCF4";
paths = (
{
closed = 1;
nodes = (
"335 478 LINE",
"187 478 LINE",
"187 576.5 LINE",
"279 688 LINE",
"335 688 LINE",
"335 700 LINE",
"269.5 700 LINE",
"169 581.5 LINE",
"169 478 LINE",
"25 478 LINE",
"25 465 LINE",
"169 465 LINE",
"169 0 LINE",
"187 0 LINE",
"187 465 LINE",
"335 465 LINE"
);
}
);
width = 365;
}
);
note = f;
unicode = 0066;
},
{
color = 9;
glyphname = g;
layers = (
{
anchors = (
{
name = bottom;
position = "{283, 0}";
},
{
name = top;
position = "{283, 478}";
}
);
layerId = "575D5349-E17C-4630-8554-E10C4C95202B";
paths = (
{
closed = 1;
nodes = (
"516 478 LINE",
"475 478 LINE",
"475 432 LINE",
"412 477 LINE",
"134 477 LINE",
"40 402 LINE",
"40 76 LINE",
"134 0 LINE",
"412 0 LINE",
"475 45 LINE",
"475 -127 LINE",
"399 -183 LINE",
"193 -183 LINE",
"130 -132 LINE",
"104 -162 LINE",
"179 -222 LINE",
"412 -222 LINE",
"516 -147 LINE"
);
},
{
closed = 1;
nodes = (
"399 40 LINE",
"148 40 LINE",
"81 95 LINE",
"81 383 LINE",
"148 438 LINE",
"399 438 LINE",
"475 382 LINE",
"475 95 LINE"
);
}
);
width = 566;
},
{
anchors = (
{
name = bottom;
position = "{307, -245}";
},
{
name = top;
position = "{288, 478}";
}
);
layerId = "40E32FB9-B6BE-48EB-82C7-9119AE8E729C";
paths = (
{
closed = 1;
nodes = (
"516 478 LINE",
"424 478 LINE",
"424 447 LINE",
"385 477 LINE",
"141 477 LINE",
"40 393 LINE",
"40 85 LINE",
"141 0 LINE",
"385 0 LINE",
"424 29 LINE",
"424 -92 LINE",
"375 -129 LINE",
"213 -129 LINE",
"143 -70 LINE",
"85 -142 LINE",
"181 -222 LINE",
"405 -222 LINE",
"516 -139 LINE"
);
},
{
closed = 1;
nodes = (
"375 94 LINE",
"174 94 LINE",
"132 129 LINE",
"132 349 LINE",
"174 384 LINE",
"375 384 LINE",
"424 347 LINE",
"424 131 LINE"
);
}
);
width = 566;
},
{
associatedMasterId = "575D5349-E17C-4630-8554-E10C4C95202B";
layerId = "5499D732-9A41-41CA-8256-AB161D9ABCF4";
width = 549;
}
);
leftKerningGroup = "lower-round";
note = g;
unicode = 0067;
},
{
color = 9;
glyphname = h;
layers = (
{
anchors = (
{
name = bottom;
position = "{269, 0}";
},
{
name = center;
position = "{239, 592}";
},
{
name = top;
position = "{269, 644}";
}
);
layerId = "575D5349-E17C-4630-8554-E10C4C95202B";
paths = (
{
closed = 1;
nodes = (
"497 403 LINE",
"393 478 LINE",
"151 478 LINE",
"90 415 LINE",
"90 698 LINE",
"50 698 LINE",
"50 1 LINE",
"90 1 LINE",
"90 356 LINE",
"169 439 LINE",
"380 439 LINE",
"456 383 LINE",
"456 0 LINE",
"497 0 LINE"
);
}
);
width = 537;
},
{
anchors = (
{
name = bottom;
position = "{269, 0}";
},
{
name = center;
position = "{269, 400}";
},
{
name = top;
position = "{269, 800}";
}
);
layerId = "40E32FB9-B6BE-48EB-82C7-9119AE8E729C";
paths = (
{
closed = 1;
nodes = (
"497 395 LINE",
"387 478 LINE",
"171 478 LINE",
"141 448 LINE",
"141 700 LINE",
"50 700 LINE",
"50 1 LINE",
"141 1 LINE",
"141 326 LINE",
"195 385 LINE",
"357 385 LINE",
"405 348 LINE",
"405 0 LINE",
"497 0 LINE"
);
}
);
width = 537;
},
{
associatedMasterId = "575D5349-E17C-4630-8554-E10C4C95202B";
layerId = "5499D732-9A41-41CA-8256-AB161D9ABCF4";
width = 537;
}
);
note = h;
unicode = 0068;
},
{
color = 9;
glyphname = i;
layers = (
{
components = (
{
name = idotless;
}
);
layerId = "575D5349-E17C-4630-8554-E10C4C95202B";
paths = (
{
closed = 1;
nodes = (
"90 605 LINE",
"50 605 LINE",
"50 556 LINE",
"90 556 LINE"
);
}
);
width = 140;
},
{
components = (
{
name = idotless;
}
);
layerId = "40E32FB9-B6BE-48EB-82C7-9119AE8E729C";
paths = (
{
closed = 1;
nodes = (
"132 631 LINE",
"51 631 LINE",
"51 536 LINE",
"132 536 LINE"
);
}
);
width = 182;
},
{
associatedMasterId = "575D5349-E17C-4630-8554-E10C4C95202B";
components = (
{
alignment = -1;
name = idotless;
}
);
layerId = "5499D732-9A41-41CA-8256-AB161D9ABCF4";
paths = (
{
closed = 1;
nodes = (
"66 592 LINE",
"46.5 592 LINE",
"46.5 566 LINE",
"66 566 LINE"
);
}
);
width = 116;
}
);
note = i;
unicode = 0069;
},
{
color = 9;
glyphname = idotless;
layers = (
{
anchors = (
{
name = bottom;
position = "{70, 0}";
},
{
name = ogonek;
position = "{73, 10}";
},
{
name = top;
position = "{70, 478}";
}
);
layerId = "575D5349-E17C-4630-8554-E10C4C95202B";
paths = (
{
closed = 1;
nodes = (
"90 478 LINE",
"50 478 LINE",
"50 0 LINE",
"90 0 LINE"
);
}
);
width = 140;
},
{
anchors = (
{
name = bottom;
position = "{87, 0}";
},
{
name = ogonek;
position = "{96, 10}";
},
{
name = top;
position = "{87, 478}";
}
);
layerId = "40E32FB9-B6BE-48EB-82C7-9119AE8E729C";
paths = (
{
closed = 1;
nodes = (
"131 478 LINE",
"50 478 LINE",
"50 0 LINE",
"131 0 LINE"
);
}
);
width = 181;
},
{
anchors = (
{
name = bottom;
position = "{58, 0}";
},
{
name = ogonek;
position = "{25, 10}";
},
{
name = top;
position = "{58, 478}";
}
);
associatedMasterId = "575D5349-E17C-4630-8554-E10C4C95202B";
layerId = "5499D732-9A41-41CA-8256-AB161D9ABCF4";
paths = (
{
closed = 1;
nodes = (
"66 478 LINE",
"46.5 478 LINE",
"46.5 0 LINE",
"66 0 LINE"
);
}
);
width = 116;
}
);
unicode = 0131;
},
{
color = 9;
glyphname = j;
layers = (
{
components = (
{
name = jdotless;
}
);
layerId = "575D5349-E17C-4630-8554-E10C4C95202B";
paths = (
{
closed = 1;
nodes = (
"115 615 LINE",
"75 615 LINE",
"75 556 LINE",
"115 556 LINE"
);
}
);
width = 197;
},
{
components = (
{
name = jdotless;
transform = "{1, 0, 0, 1, 5, 0}";
}
);
layerId = "40E32FB9-B6BE-48EB-82C7-9119AE8E729C";
paths = (
{
closed = 1;
nodes = (
"148 631 LINE",
"67 631 LINE",
"67 536 LINE",
"148 536 LINE"
);
}
);
width = 183;
},
{
associatedMasterId = "575D5349-E17C-4630-8554-E10C4C95202B";
components = (
{
alignment = -1;
name = jdotless;
}
);
layerId = "5499D732-9A41-41CA-8256-AB161D9ABCF4";
paths = (
{
closed = 1;
nodes = (
"103.5 607 LINE",
"84 607 LINE",
"84 566 LINE",
"103.5 566 LINE"
);
}
);
width = 206.5;
}
);
note = j;
unicode = 006A;
},
{
color = 9;
glyphname = jdotless;
layers = (
{
anchors = (
{
name = bottom;
position = "{69, 0}";
},
{
name = top;
position = "{69, 478}";
}
);
layerId = "575D5349-E17C-4630-8554-E10C4C95202B";
paths = (
{
closed = 1;
nodes = (
"117 478 LINE",
"76 478 LINE",
"76 -153 LINE",
"0 -200 LINE",
"23 -231 LINE",
"117 -169 LINE"
);
}
);
width = 157;
},
{
anchors = (
{
name = bottom;
position = "{94, 0}";
},
{
name = top;
position = "{94, 478}";
}
);
layerId = "40E32FB9-B6BE-48EB-82C7-9119AE8E729C";
paths = (
{
closed = 1;
nodes = (
"143 478 LINE",
"62 478 LINE",
"62 -114 LINE",
"0 -167 LINE",
"48 -243 LINE",
"143 -159 LINE"
);
}
);
width = 183;
},
{
anchors = (
{
name = bottom;
position = "{59, 0}";
},
{
name = top;
position = "{59, 478}";
}
);
associatedMasterId = "575D5349-E17C-4630-8554-E10C4C95202B";
layerId = "5499D732-9A41-41CA-8256-AB161D9ABCF4";
paths = (
{
closed = 1;
nodes = (
"106.5 478 LINE",
"85.5 478 LINE",
"85.5 -172.5 LINE",
"2.5 -216.5 LINE",
"13 -225 LINE",
"106.5 -174 LINE"
);
}
);
width = 146.5;
}
);
unicode = 0237;
},
{
color = 9;
glyphname = k;
layers = (
{
anchors = (
{
name = bottom;
position = "{233, 0}";
},
{
name = top;
position = "{233, 478}";
}
);
layerId = "575D5349-E17C-4630-8554-E10C4C95202B";
paths = (
{
closed = 1;
nodes = (
"90 193 LINE",
"123 214 LINE",
"385 41 LINE",
"385 0 LINE",
"425 0 LINE",
"425 62 LINE",
"160 238 LINE",
"425 410 LINE",
"425 477 LINE",
"385 477 LINE",
"385 431 LINE",
"90 240 LINE",
"90 698 LINE",
"50 698 LINE",
"50 0 LINE",
"90 0 LINE"
);
}
);
width = 465;
},
{
anchors = (
{
name = bottom;
position = "{233, 0}";
},
{
name = top;
position = "{233, 478}";
}
);
layerId = "40E32FB9-B6BE-48EB-82C7-9119AE8E729C";
paths = (
{
closed = 1;
nodes = (
"140 177 LINE",
"140 187 LINE",
"335 51 LINE",
"335 0 LINE",
"425 0 LINE",
"425 101 LINE",
"221 244 LINE",
"425 386 LINE",
"425 487 LINE",
"335 487 LINE",
"335 436 LINE",
"140 299 LINE",
"140 698 LINE",
"50 698 LINE",
"50 0 LINE",
"140 0 LINE"
);
}
);
width = 465;
},
{
associatedMasterId = "575D5349-E17C-4630-8554-E10C4C95202B";
layerId = "5499D732-9A41-41CA-8256-AB161D9ABCF4";
width = 465;
}
);
note = k;
unicode = 006B;
},
{
color = 9;
glyphname = l;
layers = (
{
anchors = (
{
name = bottom;
position = "{148, 0}";
},
{
name = center;
position = "{72, 393}";
},
{
name = top;
position = "{71, 700}";
},
{
name = topright;
position = "{275, 700}";
}
);
layerId = "575D5349-E17C-4630-8554-E10C4C95202B";
paths = (
{
closed = 1;
nodes = (
"255 40 LINE",
"176 40 LINE",
"93 137 LINE",
"93 700 LINE",
"50 700 LINE",
"50 123 LINE",
"155 0 LINE",
"255 0 LINE"
);
}
);
width = 295;
},
{
anchors = (
{
name = bottom;
position = "{148, 0}";
},
{
name = center;
position = "{148, 400}";
},
{
name = top;
position = "{109, 700}";
},
{
name = topright;
position = "{275, 800}";
}
);
layerId = "40E32FB9-B6BE-48EB-82C7-9119AE8E729C";
paths = (
{
closed = 1;
nodes = (
"255 94 LINE",
"183 94 LINE",
"135 164 LINE",
"135 700 LINE",
"50 700 LINE",
"50 132 LINE",
"141 0 LINE",
"255 0 LINE"
);
}
);
width = 295;
},
{
associatedMasterId = "575D5349-E17C-4630-8554-E10C4C95202B";
layerId = "5499D732-9A41-41CA-8256-AB161D9ABCF4";
width = 295;
}
);
note = l;
unicode = 006C;
},
{
color = 9;
glyphname = m;
layers = (
{
layerId = "575D5349-E17C-4630-8554-E10C4C95202B";
paths = (
{
closed = 1;
nodes = (
"742 351 LINE",
"649 478 LINE",
"439 478 LINE",
"391 232 LINE",
"343 478 LINE",
"134 478 LINE",
"40 351 LINE",
"40 0 LINE",
"80 0 LINE",
"80 338 LINE",
"153 437 LINE",
"311 437 LINE",
"369 141 LINE",
"413 141 LINE",
"471 437 LINE",
"629 437 LINE",
"702 338 LINE",
"702 0 LINE",
"742 0 LINE"
);
}
);
width = 782;
},
{
layerId = "40E32FB9-B6BE-48EB-82C7-9119AE8E729C";
paths = (
{
closed = 1;
nodes = (
"742 347 LINE",
"642 478 LINE",
"422 478 LINE",
"391 326 LINE",
"360 478 LINE",
"141 478 LINE",
"40 347 LINE",
"40 0 LINE",
"134 0 LINE",
"134 317 LINE",
"187 386 LINE",
"294 386 LINE",
"351 124 LINE",
"431 124 LINE",
"488 386 LINE",
"595 386 LINE",
"648 317 LINE",
"648 0 LINE",
"742 0 LINE"
);
}
);
width = 782;
},
{
associatedMasterId = "575D5349-E17C-4630-8554-E10C4C95202B";
layerId = "5499D732-9A41-41CA-8256-AB161D9ABCF4";
paths = (
{
closed = 1;
nodes = (
"742 353 LINE",
"652.5 478 LINE",
"452.5 478 LINE",
"391 160 LINE",
"329.5 478 LINE",
"130.5 478 LINE",
"40 353 LINE",
"40 0 LINE",
"53 0 LINE",
"53 348.5 LINE",
"136 462.5 LINE",
"319.5 462.5 LINE",
"379.5 149.5 LINE",
"402.5 149.5 LINE",
"462.5 462.5 LINE",
"646 462.5 LINE",
"729 348.5 LINE",
"729 0 LINE",
"742 0 LINE"
);
}
);
width = 782;
}
);
note = m;
unicode = 006D;
},
{
color = 9;
glyphname = n;
layers = (
{
anchors = (
{
name = bottom;
position = "{269, 0}";
},
{
name = top;
position = "{269, 478}";
}
);
layerId = "575D5349-E17C-4630-8554-E10C4C95202B";
paths = (
{
closed = 1;
nodes = (
"498 401 LINE",
"393 477 LINE",
"154 477 LINE",
"91 430 LINE",
"91 477 LINE",
"50 477 LINE",
"50 1 LINE",
"91 1 LINE",
"91 380 LINE",
"168 438 LINE",
"380 438 LINE",
"457 380 LINE",
"457 0 LINE",
"498 0 LINE"
);
}
);
width = 538;
},
{
anchors = (
{
name = bottom;
position = "{269, 0}";
},
{
name = top;
position = "{269, 478}";
}
);
layerId = "40E32FB9-B6BE-48EB-82C7-9119AE8E729C";
paths = (
{
closed = 1;
nodes = (
"498 396 LINE",
"387 477 LINE",
"185 477 LINE",
"142 439 LINE",
"142 477 LINE",
"50 477 LINE",
"50 1 LINE",
"142 1 LINE",
"142 349 LINE",
"191 386 LINE",
"357 386 LINE",
"406 349 LINE",
"406 0 LINE",
"498 0 LINE"
);
}
);
width = 538;
},
{
anchors = (
{
name = bottom;
position = "{269, 0}";
},
{
name = top;
position = "{269, 478}";
}
);
associatedMasterId = "575D5349-E17C-4630-8554-E10C4C95202B";
layerId = "5499D732-9A41-41CA-8256-AB161D9ABCF4";
paths = (
{
closed = 1;
nodes = (
"498 403.5 LINE",
"396 477 LINE",
"148.5 477 LINE",
"65.5 415.5 LINE",
"65.5 477 LINE",
"50 477 LINE",
"50 1 LINE",
"65.5 1 LINE",
"65.5 395.5 LINE",
"156.5 464 LINE",
"391.5 464 LINE",
"482.5 395.5 LINE",
"482.5 0 LINE",
"498 0 LINE"
);
}
);
width = 538;
}
);
leftKerningGroup = "lower-angled";
note = n;
unicode = 006E;
},
{
glyphname = eng;
layers = (
{
components = (
{
name = n;
}
);
layerId = "575D5349-E17C-4630-8554-E10C4C95202B";
paths = (
{
closed = 1;
nodes = (
"498 74 LINE",
"457 74 LINE",
"457 -39 LINE",
"417 -93 LINE",
"451 -117 LINE",
"498 -54 LINE"
);
}
);
width = 538;
},
{
associatedMasterId = "575D5349-E17C-4630-8554-E10C4C95202B";
layerId = "5499D732-9A41-41CA-8256-AB161D9ABCF4";
width = 507;
},
{
components = (
{
name = n;
}
);
layerId = "40E32FB9-B6BE-48EB-82C7-9119AE8E729C";
paths = (
{
closed = 1;
nodes = (
"498 168 LINE",
"406 168 LINE",
"406 -50 LINE",
"344 -102 LINE",
"403 -173 LINE",
"498 -95 LINE"
);
}
);
width = 538;
}
);
leftKerningGroup = "lower-angled";
leftMetricsKey = n;
rightMetricsKey = n;
unicode = 014B;
},
{
color = 9;
glyphname = o;
layers = (
{
anchors = (
{
name = bottom;
position = "{274, 0}";
},
{
name = center;
position = "{274, 239}";
},
{
name = ogonek;
position = "{493, 10}";
},
{
name = top;
position = "{274, 478}";
},
{
name = topright;
position = "{528, 478}";
}
);
layerId = "575D5349-E17C-4630-8554-E10C4C95202B";
paths = (
{
closed = 1;
nodes = (
"508 401 LINE",
"404 477 LINE",
"144 477 LINE",
"40 401 LINE",
"40 75 LINE",
"144 -2 LINE",
"404 -2 LINE",
"508 75 LINE"
);
},
{
closed = 1;
nodes = (
"390 39 LINE",
"158 39 LINE",
"81 96 LINE",
"81 381 LINE",
"158 438 LINE",
"390 438 LINE",
"467 381 LINE",
"467 96 LINE"
);
}
);
width = 548;
},
{
anchors = (
{
name = bottom;
position = "{274, 0}";
},
{
name = center;
position = "{274, 239}";
},
{
name = ogonek;
position = "{493, 10}";
},
{
name = top;
position = "{274, 478}";
},
{
name = topright;
position = "{528, 478}";
}
);
layerId = "40E32FB9-B6BE-48EB-82C7-9119AE8E729C";
paths = (
{
closed = 1;
nodes = (
"508 396 LINE",
"398 477 LINE",
"150 477 LINE",
"40 396 LINE",
"40 80 LINE",
"150 -2 LINE",
"398 -2 LINE",
"508 80 LINE"
);
},
{
closed = 1;
nodes = (
"367 90 LINE",
"181 90 LINE",
"132 127 LINE",
"132 349 LINE",
"181 386 LINE",
"367 386 LINE",
"416 349 LINE",
"416 127 LINE"
);
}
);
width = 548;
},
{
anchors = (
{
name = bottom;
position = "{274, 0}";
},
{
name = center;
position = "{274, 239}";
},
{
name = ogonek;
position = "{493, 10}";
},
{
name = top;
position = "{274, 478}";
},
{
name = topright;
position = "{528, 478}";
}
);
associatedMasterId = "575D5349-E17C-4630-8554-E10C4C95202B";
layerId = "5499D732-9A41-41CA-8256-AB161D9ABCF4";
paths = (
{
closed = 1;
nodes = (
"508 403.5 LINE",
"407 477 LINE",
"141 477 LINE",
"40 403.5 LINE",
"40 72.5 LINE",
"141 -2 LINE",
"407 -2 LINE",
"508 72.5 LINE"
);
},
{
closed = 1;
nodes = (
"401.5 13.5 LINE",
"146.5 13.5 LINE",
"55.5 80.5 LINE",
"55.5 397 LINE",
"146.5 464 LINE",
"401.5 464 LINE",
"492.5 397 LINE",
"492.5 80.5 LINE"
);
}
);
width = 548;
}
);
leftKerningGroup = "lower-round";
note = o;
unicode = 006F;
},
{
color = 9;
glyphname = p;
layers = (
{
layerId = "575D5349-E17C-4630-8554-E10C4C95202B";
paths = (
{
closed = 1;
nodes = (
"525 402 LINE",
"432 478 LINE",
"161 478 LINE",
"89 411 LINE",
"89 477 LINE",
"50 477 LINE",
"50 -222 LINE",
"89 -222 LINE",
"89 47 LINE",
"154 0 LINE",
"432 0 LINE",
"525 76 LINE"
);
},
{
closed = 1;
nodes = (
"417 40 LINE",
"166 40 LINE",
"89 95 LINE",
"89 355 LINE",
"177 438 LINE",
"417 438 LINE",
"486 383 LINE",
"486 95 LINE"
);
}
);
width = 565;
},
{
layerId = "40E32FB9-B6BE-48EB-82C7-9119AE8E729C";
paths = (
{
closed = 1;
nodes = (
"525 393 LINE",
"425 478 LINE",
"185 478 LINE",
"141 435 LINE",
"141 477 LINE",
"50 477 LINE",
"50 -222 LINE",
"141 -222 LINE",
"141 34 LINE",
"185 0 LINE",
"425 0 LINE",
"525 85 LINE"
);
},
{
closed = 1;
nodes = (
"391 94 LINE",
"190 94 LINE",
"141 131 LINE",
"141 324 LINE",
"202 384 LINE",
"391 384 LINE",
"434 348 LINE",
"434 129 LINE"
);
}
);
width = 565;
},
{
associatedMasterId = "575D5349-E17C-4630-8554-E10C4C95202B";
layerId = "5499D732-9A41-41CA-8256-AB161D9ABCF4";
paths = (
{
closed = 1;
nodes = (
"525 406.5 LINE",
"435.5 478 LINE",
"159 478 LINE",
"63 389 LINE",
"63 477 LINE",
"50 477 LINE",
"50 -222 LINE",
"63 -222 LINE",
"63 63.5 LINE",
"148.5 0 LINE",
"435.5 0 LINE",
"525 71.5 LINE"
);
},
{
closed = 1;
nodes = (
"430 13 LINE",
"154 13 LINE",
"63 77 LINE",
"63 370.5 LINE",
"164.5 465 LINE",
"430 465 LINE",
"512 400.5 LINE",
"512 78 LINE"
);
}
);
width = 565;
}
);
leftKerningGroup = "lower-angled";
note = p;
unicode = 0070;
},
{
glyphname = thorn;
layers = (
{
layerId = "575D5349-E17C-4630-8554-E10C4C95202B";
paths = (
{
closed = 1;
nodes = (
"525 447 LINE",
"432 523 LINE",
"161 523 LINE",
"89 456 LINE",
"89 700 LINE",
"50 700 LINE",
"50 -137 LINE",
"89 -137 LINE",
"89 92 LINE",
"154 45 LINE",
"432 45 LINE",
"525 121 LINE"
);
},
{
closed = 1;
nodes = (
"417 85 LINE",
"166 85 LINE",
"89 140 LINE",
"89 400 LINE",
"177 483 LINE",
"417 483 LINE",
"486 428 LINE",
"486 140 LINE"
);
}
);
width = 565;
},
{
layerId = "40E32FB9-B6BE-48EB-82C7-9119AE8E729C";
paths = (
{
closed = 1;
nodes = (
"525 466 LINE",
"425 551 LINE",
"165 551 LINE",
"141 528 LINE",
"141 700 LINE",
"50 700 LINE",
"50 -85 LINE",
"141 -85 LINE",
"141 87 LINE",
"165 73 LINE",
"425 73 LINE",
"525 158 LINE"
);
},
{
closed = 1;
nodes = (
"391 167 LINE",
"190 167 LINE",
"141 204 LINE",
"141 397 LINE",
"202 457 LINE",
"391 457 LINE",
"434 421 LINE",
"434 202 LINE"
);
}
);
width = 565;
},
{
associatedMasterId = "575D5349-E17C-4630-8554-E10C4C95202B";
layerId = "5499D732-9A41-41CA-8256-AB161D9ABCF4";
width = 547.5;
}
);
leftMetricsKey = p;
rightMetricsKey = p;
unicode = 00FE;
},
{
color = 9;
glyphname = q;
layers = (
{
layerId = "575D5349-E17C-4630-8554-E10C4C95202B";
paths = (
{
closed = 1;
nodes = (
"515 477 LINE",
"476 477 LINE",
"476 411 LINE",
"404 478 LINE",
"133 478 LINE",
"40 402 LINE",
"40 76 LINE",
"133 0 LINE",
"411 0 LINE",
"476 47 LINE",
"476 -222 LINE",
"515 -222 LINE"
);
},
{
closed = 1;
nodes = (
"399 40 LINE",
"148 40 LINE",
"79 95 LINE",
"79 383 LINE",
"148 438 LINE",
"388 438 LINE",
"476 355 LINE",
"476 95 LINE"
);
}
);
width = 565;
},
{
layerId = "40E32FB9-B6BE-48EB-82C7-9119AE8E729C";
paths = (
{
closed = 1;
nodes = (
"515 477 LINE",
"424 477 LINE",
"424 435 LINE",
"377 478 LINE",
"140 478 LINE",
"40 393 LINE",
"40 85 LINE",
"140 0 LINE",
"377 0 LINE",
"424 34 LINE",
"424 -222 LINE",
"515 -222 LINE"
);
},
{
closed = 1;
nodes = (
"375 94 LINE",
"174 94 LINE",
"131 129 LINE",
"131 348 LINE",
"174 384 LINE",
"363 384 LINE",
"424 324 LINE",
"424 131 LINE"
);
}
);
width = 565;
},
{
associatedMasterId = "575D5349-E17C-4630-8554-E10C4C95202B";
layerId = "5499D732-9A41-41CA-8256-AB161D9ABCF4";
paths = (
{
closed = 1;
nodes = (
"515 477 LINE",
"502 477 LINE",
"502 389 LINE",
"407.5 478 LINE",
"129.5 478 LINE",
"40 406.5 LINE",
"40 71.5 LINE",
"129.5 0 LINE",
"418 0 LINE",
"502 63.5 LINE",
"502 -222 LINE",
"515 -222 LINE"
);
},
{
closed = 1;
nodes = (
"411 13 LINE",
"135 13 LINE",
"53 78 LINE",
"53 400.5 LINE",
"135 465 LINE",
"400.5 465 LINE",
"502 370.5 LINE",
"502 77 LINE"
);
}
);
width = 565;
}
);
leftKerningGroup = "lower-round";
note = q;
unicode = 0071;
},
{
color = 9;
glyphname = r;
layers = (
{
anchors = (
{
name = bottom;
position = "{235, 0}";
},
{
name = top;
position = "{235, 478}";
}
);
layerId = "575D5349-E17C-4630-8554-E10C4C95202B";
paths = (
{
closed = 1;
nodes = (
"340 478 LINE",
"155 478 LINE",
"91 429 LINE",
"91 478 LINE",
"50 478 LINE",
"50 0 LINE",
"91 0 LINE",
"91 380 LINE",
"168 437 LINE",
"326 437 LINE",
"359 413 LINE",
"384 445 LINE"
);
}
);
width = 424;
},
{
anchors = (
{
name = bottom;
position = "{235, 0}";
},
{
name = top;
position = "{235, 478}";
}
);
layerId = "40E32FB9-B6BE-48EB-82C7-9119AE8E729C";
paths = (
{
closed = 1;
nodes = (
"335 478 LINE",
"188 478 LINE",
"141 437 LINE",
"141 478 LINE",
"50 478 LINE",
"50 0 LINE",
"141 0 LINE",
"141 350 LINE",
"188 386 LINE",
"304 386 LINE",
"359 346 LINE",
"412 419 LINE"
);
}
);
width = 452;
},
{
associatedMasterId = "575D5349-E17C-4630-8554-E10C4C95202B";
layerId = "5499D732-9A41-41CA-8256-AB161D9ABCF4";
width = 461;
}
);
leftKerningGroup = "lower-angled";
note = r;
unicode = 0072;
},
{
color = 9;
glyphname = s;
layers = (
{
anchors = (
{
name = bottom;
position = "{252, 0}";
},
{
name = top;
position = "{252, 478}";
}
);
layerId = "575D5349-E17C-4630-8554-E10C4C95202B";
paths = (
{
closed = 1;
nodes = (
"463 173 LINE",
"372 255 LINE",
"142 255 LINE",
"78 311 LINE",
"78 383 LINE",
"142 439 LINE",
"437 439 LINE",
"437 476 LINE",
"127 476 LINE",
"40 398 LINE",
"40 296 LINE",
"127 218 LINE",
"357 218 LINE",
"425 156 LINE",
"425 93 LINE",
"358 37 LINE",
"48 37 LINE",
"48 0 LINE",
"371 0 LINE",
"463 75 LINE"
);
}
);
width = 503;
},
{
anchors = (
{
name = bottom;
position = "{252, 0}";
},
{
name = top;
position = "{252, 478}";
}
);
layerId = "40E32FB9-B6BE-48EB-82C7-9119AE8E729C";
paths = (
{
closed = 1;
nodes = (
"463 195 LINE",
"367 284 LINE",
"167 284 LINE",
"129 318 LINE",
"129 353 LINE",
"167 387 LINE",
"441 387 LINE",
"441 476 LINE",
"133 476 LINE",
"40 392 LINE",
"40 279 LINE",
"133 195 LINE",
"332 195 LINE",
"374 156 LINE",
"374 123 LINE",
"334 89 LINE",
"47 89 LINE",
"47 0 LINE",
"365 0 LINE",
"463 81 LINE"
);
}
);
width = 503;
},
{
associatedMasterId = "575D5349-E17C-4630-8554-E10C4C95202B";
layerId = "5499D732-9A41-41CA-8256-AB161D9ABCF4";
width = 503;
}
);
leftKerningGroup = "lower-round";
note = s;
unicode = 0073;
},
{
glyphname = germandbls;
layers = (
{
layerId = "575D5349-E17C-4630-8554-E10C4C95202B";
paths = (
{
closed = 1;
nodes = (
"90 0 LINE",
"90 40 LINE",
"90 328 LINE",
"463 328 LINE",
"559 197 LINE",
"559 121 LINE",
"524 40 LINE",
"192 40 LINE",
"192 0 LINE",
"551 0 LINE",
"599 114 LINE",
"599 210 LINE",
"498 349 LINE",
"599 490 LINE",
"599 586 LINE",
"551 700 LINE",
"50 700 LINE",
"50 0 LINE"
);
},
{
closed = 1;
nodes = (
"90 660 LINE",
"524 660 LINE",
"559 579 LINE",
"559 503 LINE",
"463 368 LINE",
"90 368 LINE"
);
}
);
width = 639;
},
{
layerId = "40E32FB9-B6BE-48EB-82C7-9119AE8E729C";
paths = (
{
closed = 1;
nodes = (
"143 0 LINE",
"143 94 LINE",
"143 301 LINE",
"434 301 LINE",
"506 201 LINE",
"506 146 LINE",
"484 94 LINE",
"265 94 LINE",
"265 0 LINE",
"547 0 LINE",
"599 128 LINE",
"599 231 LINE",
"515 349 LINE",
"599 469 LINE",
"599 572 LINE",
"547 700 LINE",
"50 700 LINE",
"50 0 LINE"
);
},
{
closed = 1;
nodes = (
"143 606 LINE",
"484 606 LINE",
"506 554 LINE",
"506 499 LINE",
"434 395 LINE",
"143 395 LINE"
);
}
);
width = 639;
},
{
associatedMasterId = "575D5349-E17C-4630-8554-E10C4C95202B";
layerId = "5499D732-9A41-41CA-8256-AB161D9ABCF4";
width = 658.5;
}
);
leftMetricsKey = B;
rightMetricsKey = B;
unicode = 00DF;
},
{
color = 9;
glyphname = t;
layers = (
{
anchors = (
{
name = bottom;
position = "{178, 0}";
},
{
name = center;
position = "{195, 596}";
},
{
name = top;
position = "{193, 710}";
},
{
name = topright;
position = "{370, 478}";
}
);
layerId = "575D5349-E17C-4630-8554-E10C4C95202B";
paths = (
{
closed = 1;
nodes = (
"350 478 LINE",
"214 478 LINE",
"214 699 LINE",
"172 699 LINE",
"172 478 LINE",
"40 478 LINE",
"40 439 LINE",
"172 439 LINE",
"172 0 LINE",
"214 0 LINE",
"214 439 LINE",
"350 439 LINE"
);
}
);
width = 390;
},
{
anchors = (
{
name = bottom;
position = "{182, 0}";
},
{
name = center;
position = "{195, 596}";
},
{
name = top;
position = "{195, 714}";
},
{
name = topright;
position = "{370, 478}";
}
);
layerId = "40E32FB9-B6BE-48EB-82C7-9119AE8E729C";
paths = (
{
closed = 1;
nodes = (
"350 478 LINE",
"238 478 LINE",
"238 699 LINE",
"148 699 LINE",
"148 478 LINE",
"40 478 LINE",
"40 385 LINE",
"148 385 LINE",
"148 0 LINE",
"238 0 LINE",
"238 385 LINE",
"350 385 LINE"
);
}
);
width = 390;
},
{
associatedMasterId = "575D5349-E17C-4630-8554-E10C4C95202B";
layerId = "5499D732-9A41-41CA-8256-AB161D9ABCF4";
width = 390;
}
);
note = t;
unicode = 0074;
},
{
color = 9;
glyphname = u;
layers = (
{
anchors = (
{
name = bottom;
position = "{269, 0}";
},
{
name = ogonek;
position = "{478, 15}";
},
{
name = top;
position = "{269, 478}";
},
{
name = topright;
position = "{517, 478}";
}
);
layerId = "575D5349-E17C-4630-8554-E10C4C95202B";
paths = (
{
closed = 1;
nodes = (
"487 476 LINE",
"447 476 LINE",
"447 98 LINE",
"370 41 LINE",
"157 41 LINE",
"81 98 LINE",
"81 477 LINE",
"40 477 LINE",
"40 77 LINE",
"144 0 LINE",
"383 0 LINE",
"447 46 LINE",
"447 0 LINE",
"487 0 LINE"
);
}
);
width = 537;
},
{
anchors = (
{
name = bottom;
position = "{269, 0}";
},
{
name = ogonek;
position = "{448, 10}";
},
{
name = top;
position = "{269, 478}";
},
{
name = topright;
position = "{517, 478}";
}
);
layerId = "40E32FB9-B6BE-48EB-82C7-9119AE8E729C";
paths = (
{
closed = 1;
nodes = (
"487 478 LINE",
"396 478 LINE",
"396 138 LINE",
"347 92 LINE",
"180 92 LINE",
"132 138 LINE",
"132 478 LINE",
"40 478 LINE",
"40 82 LINE",
"150 0 LINE",
"349 0 LINE",
"396 39 LINE",
"396 1 LINE",
"487 1 LINE"
);
}
);
width = 537;
},
{
anchors = (
{
name = bottom;
position = "{269, 0}";
},
{
name = ogonek;
position = "{460.5, 10}";
},
{
name = top;
position = "{269, 478}";
},
{
name = topright;
position = "{517, 478}";
}
);
associatedMasterId = "575D5349-E17C-4630-8554-E10C4C95202B";
layerId = "5499D732-9A41-41CA-8256-AB161D9ABCF4";
paths = (
{
closed = 1;
nodes = (
"487 475 LINE",
"472.5 475 LINE",
"472.5 83 LINE",
"381.5 15.5 LINE",
"145.5 15.5 LINE",
"55.5 83 LINE",
"55.5 476.5 LINE",
"40 476.5 LINE",
"40 74.5 LINE",
"141 0 LINE",
"390 0 LINE",
"472.5 59.5 LINE",
"472.5 -0.5 LINE",
"487 -0.5 LINE"
);
}
);
width = 537;
}
);
leftKerningGroup = "lower-angled";
note = u;
unicode = 0075;
},
{
color = 9;
glyphname = v;
layers = (
{
layerId = "575D5349-E17C-4630-8554-E10C4C95202B";
paths = (
{
closed = 1;
nodes = (
"483 478 LINE",
"443 478 LINE",
"443 230 LINE",
"286 41 LINE",
"249 41 LINE",
"81 233 LINE",
"81 478 LINE",
"40 478 LINE",
"40 217 LINE",
"232 0 LINE",
"305 0 LINE",
"483 216 LINE"
);
}
);
width = 523;
},
{
layerId = "40E32FB9-B6BE-48EB-82C7-9119AE8E729C";
paths = (
{
closed = 1;
nodes = (
"483 478 LINE",
"392 478 LINE",
"392 241 LINE",
"269 92 LINE",
"264 92 LINE",
"132 244 LINE",
"132 478 LINE",
"40 478 LINE",
"40 209 LINE",
"223 0 LINE",
"313 0 LINE",
"483 208 LINE"
);
}
);
width = 523;
},
{
associatedMasterId = "575D5349-E17C-4630-8554-E10C4C95202B";
layerId = "5499D732-9A41-41CA-8256-AB161D9ABCF4";
paths = (
{
closed = 1;
nodes = (
"483 478 LINE",
"468.5 478 LINE",
"468.5 224.5 LINE",
"294.5 15.5 LINE",
"241.5 15.5 LINE",
"55.5 227.5 LINE",
"55.5 478 LINE",
"40 478 LINE",
"40 221 LINE",
"236.5 0 LINE",
"301 0 LINE",
"483 220 LINE"
);
}
);
width = 523;
}
);
leftKerningGroup = "lower-angled";
note = v;
unicode = 0076;
},
{
color = 9;
glyphname = w;
layers = (
{
anchors = (
{
name = bottom;
position = "{391, 0}";
},
{
name = top;
position = "{391, 478}";
}
);
layerId = "575D5349-E17C-4630-8554-E10C4C95202B";
paths = (
{
closed = 1;
nodes = (
"741 478 LINE",
"702 478 LINE",
"702 202 LINE",
"598 41 LINE",
"471 41 LINE",
"413 337 LINE",
"369 337 LINE",
"310 41 LINE",
"183 41 LINE",
"80 202 LINE",
"80 478 LINE",
"40 478 LINE",
"40 190 LINE",
"162 0 LINE",
"342 0 LINE",
"391 244 LINE",
"439 0 LINE",
"619 0 LINE",
"741 190 LINE"
);
}
);
width = 781;
},
{
anchors = (
{
name = bottom;
position = "{391, 0}";
},
{
name = top;
position = "{391, 478}";
}
);
layerId = "40E32FB9-B6BE-48EB-82C7-9119AE8E729C";
paths = (
{
closed = 1;
nodes = (
"741 478 LINE",
"648 478 LINE",
"648 215 LINE",
"565 92 LINE",
"488 92 LINE",
"431 354 LINE",
"351 354 LINE",
"293 92 LINE",
"216 92 LINE",
"134 215 LINE",
"134 478 LINE",
"40 478 LINE",
"40 188 LINE",
"166 0 LINE",
"349 0 LINE",
"391 163 LINE",
"432 0 LINE",
"615 0 LINE",
"741 188 LINE"
);
}
);
width = 781;
},
{
associatedMasterId = "575D5349-E17C-4630-8554-E10C4C95202B";
layerId = "5499D732-9A41-41CA-8256-AB161D9ABCF4";
width = 781;
}
);
leftKerningGroup = "lower-angled";
note = w;
unicode = 0077;
},
{
color = 9;
glyphname = x;
layers = (
{
layerId = "575D5349-E17C-4630-8554-E10C4C95202B";
paths = (
{
closed = 1;
nodes = (
"461 0 LINE",
"461 41 LINE",
"418 41 LINE",
"275 237 LINE",
"418 436 LINE",
"461 436 LINE",
"461 477 LINE",
"398 477 LINE",
"250 271 LINE",
"103 477 LINE",
"40 477 LINE",
"40 436 LINE",
"83 436 LINE",
"226 237 LINE",
"83 41 LINE",
"40 41 LINE",
"40 0 LINE",
"103 0 LINE",
"250 204 LINE",
"398 0 LINE"
);
}
);
width = 501;
},
{
layerId = "40E32FB9-B6BE-48EB-82C7-9119AE8E729C";
paths = (
{
closed = 1;
nodes = (
"461 0 LINE",
"461 92 LINE",
"410 92 LINE",
"306 237 LINE",
"410 386 LINE",
"461 386 LINE",
"461 478 LINE",
"364 478 LINE",
"250 319 LINE",
"137 478 LINE",
"40 478 LINE",
"40 386 LINE",
"91 386 LINE",
"195 237 LINE",
"91 92 LINE",
"40 92 LINE",
"40 0 LINE",
"137 0 LINE",
"250 159 LINE",
"364 0 LINE"
);
}
);
width = 501;
},
{
associatedMasterId = "575D5349-E17C-4630-8554-E10C4C95202B";
layerId = "5499D732-9A41-41CA-8256-AB161D9ABCF4";
paths = (
{
closed = 1;
nodes = (
"461 61.5 LINE",
"396.5 15.5 LINE",
"207.5 309.5 LINE",
"474 535.5 LINE",
"486.5 461 LINE",
"461 522.5 LINE",
"366.5 476.5 LINE",
"193 167.5 LINE",
"29.5 556 LINE",
"-8.5 476.5 LINE",
"40 415 LINE",
"104.5 461 LINE",
"293.5 162.5 LINE",
"27 -57 LINE",
"14.5 15.5 LINE",
"40 -46 LINE",
"134.5 0 LINE",
"306.5 306 LINE",
"472 -79.5 LINE",
"509.5 0 LINE"
);
}
);
width = 501;
}
);
leftKerningGroup = "lower-angled";
note = x;
unicode = 0078;
},
{
color = 9;
glyphname = y;
layers = (
{
anchors = (
{
name = bottom;
position = "{262, 0}";
},
{
name = top;
position = "{262, 478}";
}
);
layerId = "575D5349-E17C-4630-8554-E10C4C95202B";
paths = (
{
closed = 1;
nodes = (
"483 478 LINE",
"443 478 LINE",
"443 238 LINE",
"286 52 LINE",
"249 52 LINE",
"81 241 LINE",
"81 478 LINE",
"40 478 LINE",
"40 227 LINE",
"242 0 LINE",
"123 -141 LINE",
"155 -167 LINE",
"483 225 LINE"
);
}
);
width = 523;
},
{
anchors = (
{
name = bottom;
position = "{262, 0}";
},
{
name = top;
position = "{262, 478}";
}
);
layerId = "40E32FB9-B6BE-48EB-82C7-9119AE8E729C";
paths = (
{
closed = 1;
nodes = (
"483 478 LINE",
"392 478 LINE",
"392 235 LINE",
"269 84 LINE",
"264 84 LINE",
"132 239 LINE",
"132 478 LINE",
"40 478 LINE",
"40 204 LINE",
"208 7 LINE",
"101 -126 LINE",
"172 -185 LINE",
"483 202 LINE"
);
}
);
width = 523;
},
{
anchors = (
{
name = bottom;
position = "{262, 0}";
},
{
name = top;
position = "{262, 478}";
}
);
associatedMasterId = "575D5349-E17C-4630-8554-E10C4C95202B";
layerId = "5499D732-9A41-41CA-8256-AB161D9ABCF4";
paths = (
{
closed = 1;
nodes = (
"483 478 LINE",
"468.5 478 LINE",
"468.5 239.5 LINE",
"294.5 36 LINE",
"241.5 36 LINE",
"55.5 242 LINE",
"55.5 478 LINE",
"40 478 LINE",
"40 238.5 LINE",
"259 -3.5 LINE",
"134 -148.5 LINE",
"146.5 -158 LINE",
"483 236.5 LINE"
);
}
);
width = 523;
}
);
leftKerningGroup = "lower-angled";
note = y;
unicode = 0079;
},
{
color = 9;
glyphname = z;
layers = (
{
anchors = (
{
name = bottom;
position = "{267, 0}";
},
{
name = top;
position = "{267, 478}";
}
);
layerId = "575D5349-E17C-4630-8554-E10C4C95202B";
paths = (
{
closed = 1;
nodes = (
"493 478 LINE",
"46 478 LINE",
"46 437 LINE",
"453 437 LINE",
"453 393 LINE",
"40 48 LINE",
"40 0 LINE",
"488 0 LINE",
"488 41 LINE",
"94 41 LINE",
"493 373 LINE"
);
}
);
width = 533;
},
{
anchors = (
{
name = bottom;
position = "{267, 0}";
},
{
name = top;
position = "{267, 478}";
}
);
layerId = "40E32FB9-B6BE-48EB-82C7-9119AE8E729C";
paths = (
{
closed = 1;
nodes = (
"493 478 LINE",
"46 478 LINE",
"46 386 LINE",
"400 386 LINE",
"387 372 LINE",
"40 84 LINE",
"40 0 LINE",
"488 0 LINE",
"488 92 LINE",
"194 92 LINE",
"493 344 LINE"
);
}
);
width = 533;
},
{
associatedMasterId = "575D5349-E17C-4630-8554-E10C4C95202B";
layerId = "5499D732-9A41-41CA-8256-AB161D9ABCF4";
width = 533;
}
);
leftKerningGroup = "lower-angled";
note = z;
unicode = 007A;
},
{
glyphname = ordfeminine;
layers = (
{
layerId = "40E32FB9-B6BE-48EB-82C7-9119AE8E729C";
paths = (
{
closed = 1;
nodes = (
"315 637 LINE",
"247 700 LINE",
"109 700 LINE",
"50 657 LINE",
"50 473 LINE",
"109 430 LINE",
"247 430 LINE",
"315 493 LINE"
);
},
{
closed = 1;
nodes = (
"231 483 LINE",
"133 483 LINE",
"102 507 LINE",
"102 624 LINE",
"133 648 LINE",
"231 648 LINE",
"280 617 LINE",
"281 513 LINE"
);
},
{
closed = 1;
nodes = (
"268 430 LINE",
"316 430 LINE",
"316 700 LINE",
"268 700 LINE"
);
}
);
width = 366;
},
{
associatedMasterId = "575D5349-E17C-4630-8554-E10C4C95202B";
layerId = "E1ADDF7C-A343-4E6D-B630-136BDFE64807";
paths = (
{
closed = 1;
nodes = (
"249 391 LINE",
"316 391 LINE",
"316 665 LINE",
"249 665 LINE"
);
},
{
closed = 1;
nodes = (
"214 394 OFFCURVE",
"250 409 OFFCURVE",
"275 434 CURVE SMOOTH",
"300 459 OFFCURVE",
"315 492 OFFCURVE",
"315 531 CURVE SMOOTH",
"315 568 OFFCURVE",
"299 603 OFFCURVE",
"275 628 CURVE SMOOTH",
"250 654 OFFCURVE",
"214 668 OFFCURVE",
"177 668 CURVE SMOOTH",
"138 668 OFFCURVE",
"105 653 OFFCURVE",
"80 628 CURVE SMOOTH",
"55 603 OFFCURVE",
"40 568 OFFCURVE",
"40 531 CURVE SMOOTH",
"40 492 OFFCURVE",
"55 459 OFFCURVE",
"80 434 CURVE SMOOTH",
"105 409 OFFCURVE",
"138 394 OFFCURVE",
"177 394 CURVE SMOOTH"
);
},
{
closed = 1;
nodes = (
"216 601 OFFCURVE",
"247 570 OFFCURVE",
"247 531 CURVE SMOOTH",
"247 492 OFFCURVE",
"216 461 OFFCURVE",
"177 461 CURVE SMOOTH",
"138 461 OFFCURVE",
"107 492 OFFCURVE",
"107 531 CURVE SMOOTH",
"107 570 OFFCURVE",
"138 601 OFFCURVE",
"177 601 CURVE SMOOTH"
);
}
);
width = 356;
},
{
layerId = "575D5349-E17C-4630-8554-E10C4C95202B";
paths = (
{
closed = 1;
nodes = (
"315 647 LINE",
"247 700 LINE",
"109 700 LINE",
"50 657 LINE",
"50 473 LINE",
"109 430 LINE",
"247 430 LINE",
"315 483 LINE"
);
},
{
closed = 1;
nodes = (
"235 476 LINE",
"131 476 LINE",
"97 503 LINE",
"97 628 LINE",
"131 655 LINE",
"235 655 LINE",
"269 628 LINE",
"269 503 LINE"
);
},
{
closed = 1;
nodes = (
"274 430 LINE",
"316 430 LINE",
"316 700 LINE",
"274 700 LINE"
);
}
);
width = 366;
}
);
note = ordfeminine;
unicode = 00AA;
},
{
glyphname = ordmasculine;
layers = (
{
layerId = "40E32FB9-B6BE-48EB-82C7-9119AE8E729C";
paths = (
{
closed = 1;
nodes = (
"315 657 LINE",
"257 700 LINE",
"109 700 LINE",
"50 657 LINE",
"50 473 LINE",
"109 430 LINE",
"257 430 LINE",
"315 473 LINE"
);
},
{
closed = 1;
nodes = (
"231 483 LINE",
"135 483 LINE",
"103 507 LINE",
"103 624 LINE",
"135 648 LINE",
"231 648 LINE",
"263 624 LINE",
"263 507 LINE"
);
}
);
width = 355;
},
{
associatedMasterId = "575D5349-E17C-4630-8554-E10C4C95202B";
layerId = "E1ADDF7C-A343-4E6D-B630-136BDFE64807";
paths = (
{
closed = 1;
nodes = (
"214 394 OFFCURVE",
"250 409 OFFCURVE",
"275 434 CURVE SMOOTH",
"300 459 OFFCURVE",
"315 492 OFFCURVE",
"315 531 CURVE SMOOTH",
"315 568 OFFCURVE",
"299 603 OFFCURVE",
"275 628 CURVE SMOOTH",
"250 654 OFFCURVE",
"214 668 OFFCURVE",
"177 668 CURVE SMOOTH",
"138 668 OFFCURVE",
"105 653 OFFCURVE",
"80 628 CURVE SMOOTH",
"55 603 OFFCURVE",
"40 568 OFFCURVE",
"40 531 CURVE SMOOTH",
"40 492 OFFCURVE",
"55 459 OFFCURVE",
"80 434 CURVE SMOOTH",
"105 409 OFFCURVE",
"138 394 OFFCURVE",
"177 394 CURVE SMOOTH"
);
},
{
closed = 1;
nodes = (
"216 601 OFFCURVE",
"247 570 OFFCURVE",
"247 531 CURVE SMOOTH",
"247 492 OFFCURVE",
"216 461 OFFCURVE",
"177 461 CURVE SMOOTH",
"138 461 OFFCURVE",
"107 492 OFFCURVE",
"107 531 CURVE SMOOTH",
"107 570 OFFCURVE",
"138 601 OFFCURVE",
"177 601 CURVE SMOOTH"
);
}
);
width = 355;
},
{
layerId = "575D5349-E17C-4630-8554-E10C4C95202B";
paths = (
{
closed = 1;
nodes = (
"315 657 LINE",
"257 700 LINE",
"109 700 LINE",
"50 657 LINE",
"50 473 LINE",
"109 430 LINE",
"257 430 LINE",
"315 473 LINE"
);
},
{
closed = 1;
nodes = (
"238 471 LINE",
"128 471 LINE",
"92 499 LINE",
"92 632 LINE",
"128 660 LINE",
"238 660 LINE",
"274 632 LINE",
"274 499 LINE"
);
}
);
width = 355;
}
);
note = ordmasculine;
unicode = 00BA;
},
{
glyphname = Delta;
layers = (
{
layerId = "575D5349-E17C-4630-8554-E10C4C95202B";
paths = (
{
closed = 1;
nodes = (
"710 0 LINE",
"710 40 LINE",
"402 701 LINE",
"358 701 LINE",
"50 40 LINE",
"50 0 LINE"
);
},
{
closed = 1;
nodes = (
"380 652 LINE",
"665 40 LINE",
"95 40 LINE"
);
}
);
width = 760;
},
{
guideLines = (
{
angle = 90;
position = "{683, 127}";
}
);
layerId = "40E32FB9-B6BE-48EB-82C7-9119AE8E729C";
paths = (
{
closed = 1;
nodes = (
"683 0 LINE",
"683 84 LINE",
"398 694 LINE",
"335 694 LINE",
"50 84 LINE",
"50 0 LINE"
);
},
{
closed = 1;
nodes = (
"367 570 LINE",
"593 82 LINE",
"140 82 LINE"
);
}
);
width = 733;
}
);
unicode = 0394;
},
{
glyphname = Omega;
layers = (
{
components = (
{
name = U;
transform = "{1, 0, 0, -1, 0, 700}";
}
);
layerId = "575D5349-E17C-4630-8554-E10C4C95202B";
paths = (
{
closed = 1;
nodes = (
"50 0 LINE",
"170 0 LINE",
"170 40 LINE",
"50 40 LINE"
);
},
{
closed = 1;
nodes = (
"506 0 LINE",
"626 0 LINE",
"626 40 LINE",
"506 40 LINE"
);
}
);
width = 676;
},
{
components = (
{
name = U;
transform = "{1, 0, 0, -1, 0, 700}";
}
);
layerId = "40E32FB9-B6BE-48EB-82C7-9119AE8E729C";
paths = (
{
closed = 1;
nodes = (
"50 0 LINE",
"200 0 LINE",
"200 80 LINE",
"50 80 LINE"
);
},
{
closed = 1;
nodes = (
"476 0 LINE",
"626 0 LINE",
"626 80 LINE",
"476 80 LINE"
);
}
);
width = 676;
}
);
unicode = 03A9;
},
{
glyphname = mu;
layers = (
{
components = (
{
name = u;
}
);
layerId = "575D5349-E17C-4630-8554-E10C4C95202B";
paths = (
{
closed = 1;
nodes = (
"40 -69 LINE",
"81 -69 LINE",
"81 149 LINE",
"40 149 LINE"
);
}
);
width = 537;
},
{
components = (
{
name = u;
}
);
layerId = "40E32FB9-B6BE-48EB-82C7-9119AE8E729C";
paths = (
{
closed = 1;
nodes = (
"40 -89 LINE",
"132 -89 LINE",
"132 149 LINE",
"40 149 LINE"
);
}
);
width = 537;
}
);
leftMetricsKey = u;
rightMetricsKey = u;
unicode = 03BC;
},
{
glyphname = pi;
layers = (
{
layerId = "575D5349-E17C-4630-8554-E10C4C95202B";
paths = (
{
closed = 1;
nodes = (
"40 479 LINE",
"40 439 LINE",
"480 439 LINE",
"480 479 LINE"
);
},
{
closed = 1;
nodes = (
"182 474 LINE",
"142 474 LINE",
"142 0 LINE",
"182 0 LINE"
);
},
{
closed = 1;
nodes = (
"379 474 LINE",
"339 474 LINE",
"339 0 LINE",
"379 0 LINE"
);
},
{
closed = 1;
nodes = (
"414 0 LINE",
"414 40 LINE",
"363 40 LINE",
"363 0 LINE"
);
}
);
width = 520;
},
{
layerId = "40E32FB9-B6BE-48EB-82C7-9119AE8E729C";
paths = (
{
closed = 1;
nodes = (
"40 479 LINE",
"40 399 LINE",
"480 399 LINE",
"480 479 LINE"
);
},
{
closed = 1;
nodes = (
"212 474 LINE",
"132 474 LINE",
"132 0 LINE",
"212 0 LINE"
);
},
{
closed = 1;
nodes = (
"389 474 LINE",
"309 474 LINE",
"309 0 LINE",
"389 0 LINE"
);
},
{
closed = 1;
nodes = (
"424 0 LINE",
"424 70 LINE",
"349 70 LINE",
"349 0 LINE"
);
}
);
width = 520;
}
);
unicode = 03C0;
},
{
color = 9;
glyphname = zero;
layers = (
{
layerId = "575D5349-E17C-4630-8554-E10C4C95202B";
paths = (
{
closed = 1;
nodes = (
"604 574 LINE",
"508 700 LINE",
"135 700 LINE",
"40 574 LINE",
"40 123 LINE",
"134 0 LINE",
"509 0 LINE",
"604 123 LINE"
);
},
{
closed = 1;
nodes = (
"489 40 LINE",
"154 40 LINE",
"79 138 LINE",
"79 561 LINE",
"153 660 LINE",
"489 660 LINE",
"564 561 LINE",
"564 138 LINE"
);
}
);
width = 644;
},
{
layerId = "40E32FB9-B6BE-48EB-82C7-9119AE8E729C";
paths = (
{
closed = 1;
nodes = (
"604 565 LINE",
"504 700 LINE",
"139 700 LINE",
"40 565 LINE",
"40 132 LINE",
"139 0 LINE",
"504 0 LINE",
"604 132 LINE"
);
},
{
closed = 1;
nodes = (
"458 94 LINE",
"185 94 LINE",
"132 165 LINE",
"132 534 LINE",
"185 606 LINE",
"458 606 LINE",
"511 534 LINE",
"511 165 LINE"
);
}
);
width = 644;
},
{
associatedMasterId = "575D5349-E17C-4630-8554-E10C4C95202B";
layerId = "5499D732-9A41-41CA-8256-AB161D9ABCF4";
paths = (
{
closed = 1;
nodes = (
"604 578.5 LINE",
"510 700 LINE",
"133 700 LINE",
"40 578.5 LINE",
"40 118.5 LINE",
"131.5 0 LINE",
"511.5 0 LINE",
"604 118.5 LINE"
);
},
{
closed = 1;
nodes = (
"504.5 13 LINE",
"138.5 13 LINE",
"52.5 124.5 LINE",
"52.5 574.5 LINE",
"137 687 LINE",
"504.5 687 LINE",
"590.5 574.5 LINE",
"590.5 124.5 LINE"
);
}
);
width = 644;
}
);
note = zero;
unicode = 0030;
},
{
color = 9;
glyphname = one;
layers = (
{
layerId = "575D5349-E17C-4630-8554-E10C4C95202B";
paths = (
{
closed = 1;
nodes = (
"289 700 LINE",
"150 700 LINE",
"40 623 LINE",
"40 549 LINE",
"83 549 LINE",
"83 604 LINE",
"165 660 LINE",
"246 660 LINE",
"246 0 LINE",
"289 0 LINE"
);
}
);
width = 329;
},
{
layerId = "40E32FB9-B6BE-48EB-82C7-9119AE8E729C";
paths = (
{
closed = 1;
nodes = (
"289 702 LINE",
"144 702 LINE",
"40 617 LINE",
"40 525 LINE",
"127 525 LINE",
"127 571 LINE",
"174 608 LINE",
"202 608 LINE",
"202 0 LINE",
"289 0 LINE"
);
}
);
width = 339;
},
{
associatedMasterId = "575D5349-E17C-4630-8554-E10C4C95202B";
layerId = "5499D732-9A41-41CA-8256-AB161D9ABCF4";
paths = (
{
closed = 1;
nodes = (
"289 699 LINE",
"153 699 LINE",
"40 626 LINE",
"40 571 LINE",
"61 571 LINE",
"61 620.5 LINE",
"160.5 686 LINE",
"268 686 LINE",
"268 0 LINE",
"289 0 LINE"
);
}
);
width = 324;
}
);
note = one;
unicode = 0031;
},
{
color = 9;
glyphname = two;
layers = (
{
layerId = "575D5349-E17C-4630-8554-E10C4C95202B";
paths = (
{
closed = 1;
nodes = (
"604 575 LINE",
"509 701 LINE",
"121 701 LINE",
"40 593 LINE",
"72 569 LINE",
"142 661 LINE",
"491 661 LINE",
"564 562 LINE",
"564 480 LINE",
"486 366 LINE",
"76 147 LINE",
"76 0 LINE",
"590 0 LINE",
"590 40 LINE",
"116 40 LINE",
"116 121 LINE",
"513 336 LINE",
"604 467 LINE"
);
}
);
width = 644;
},
{
layerId = "40E32FB9-B6BE-48EB-82C7-9119AE8E729C";
paths = (
{
closed = 1;
nodes = (
"616 566 LINE",
"517 701 LINE",
"139 701 LINE",
"40 568 LINE",
"114 511 LINE",
"186 607 LINE",
"471 607 LINE",
"523 535 LINE",
"523 478 LINE",
"462 387 LINE",
"84 181 LINE",
"84 0 LINE",
"604 0 LINE",
"604 94 LINE",
"177 94 LINE",
"177 123 LINE",
"525 315 LINE",
"616 448 LINE"
);
}
);
width = 656;
},
{
associatedMasterId = "575D5349-E17C-4630-8554-E10C4C95202B";
layerId = "5499D732-9A41-41CA-8256-AB161D9ABCF4";
paths = (
{
closed = 1;
nodes = (
"598 579.5 LINE",
"505 701 LINE",
"112 701 LINE",
"40 605.5 LINE",
"51 598 LINE",
"120 688 LINE",
"501 688 LINE",
"584.5 575.5 LINE",
"584.5 481 LINE",
"498 355.5 LINE",
"72 130 LINE",
"72 0 LINE",
"583 0 LINE",
"583 13 LINE",
"85.5 13 LINE",
"85.5 120 LINE",
"507 346.5 LINE",
"598 476.5 LINE"
);
}
);
width = 638;
}
);
note = two;
unicode = 0032;
},
{
color = 9;
glyphname = three;
layers = (
{
layerId = "575D5349-E17C-4630-8554-E10C4C95202B";
paths = (
{
closed = 1;
nodes = (
"519 286 LINE",
"433 350 LINE",
"519 416 LINE",
"519 625 LINE",
"425 702 LINE",
"144 702 LINE",
"40 626 LINE",
"40 551 LINE",
"81 551 LINE",
"81 607 LINE",
"159 662 LINE",
"409 662 LINE",
"478 607 LINE",
"478 436 LINE",
"366 349 LINE",
"478 266 LINE",
"478 96 LINE",
"410 40 LINE",
"158 40 LINE",
"81 97 LINE",
"81 151 LINE",
"40 151 LINE",
"40 76 LINE",
"144 0 LINE",
"425 0 LINE",
"519 76 LINE"
);
}
);
width = 559;
},
{
layerId = "40E32FB9-B6BE-48EB-82C7-9119AE8E729C";
paths = (
{
closed = 1;
nodes = (
"519 305 LINE",
"461 350 LINE",
"519 397 LINE",
"519 616 LINE",
"418 702 LINE",
"151 702 LINE",
"40 618 LINE",
"40 505 LINE",
"132 505 LINE",
"132 571 LINE",
"182 608 LINE",
"384 608 LINE",
"427 572 LINE",
"427 443 LINE",
"310 349 LINE",
"427 258 LINE",
"427 130 LINE",
"384 94 LINE",
"182 94 LINE",
"132 132 LINE",
"132 197 LINE",
"40 197 LINE",
"40 84 LINE",
"151 0 LINE",
"418 0 LINE",
"519 85 LINE"
);
}
);
width = 559;
},
{
associatedMasterId = "575D5349-E17C-4630-8554-E10C4C95202B";
layerId = "5499D732-9A41-41CA-8256-AB161D9ABCF4";
paths = (
{
closed = 1;
nodes = (
"519 276.5 LINE",
"419 350 LINE",
"519 425.5 LINE",
"519 629.5 LINE",
"428.5 702 LINE",
"140.5 702 LINE",
"40 630 LINE",
"40 574 LINE",
"55.5 574 LINE",
"55.5 625 LINE",
"147.5 689 LINE",
"421.5 689 LINE",
"503.5 624.5 LINE",
"503.5 432.5 LINE",
"394 349 LINE",
"503.5 270 LINE",
"503.5 79 LINE",
"423 13 LINE",
"146 13 LINE",
"55.5 79.5 LINE",
"55.5 128 LINE",
"40 128 LINE",
"40 72 LINE",
"140.5 0 LINE",
"428.5 0 LINE",
"519 71.5 LINE"
);
}
);
width = 559;
}
);
note = three;
unicode = 0033;
},
{
color = 9;
glyphname = four;
layers = (
{
layerId = "575D5349-E17C-4630-8554-E10C4C95202B";
paths = (
{
closed = 1;
nodes = (
"497 283 LINE",
"302 283 LINE",
"302 402 LINE",
"263 402 LINE",
"263 283 LINE",
"82 283 LINE",
"82 619 LINE",
"144 669 LINE",
"119 700 LINE",
"40 638 LINE",
"40 244 LINE",
"263 244 LINE",
"263 0 LINE",
"302 0 LINE",
"302 244 LINE",
"497 244 LINE"
);
}
);
width = 527;
},
{
layerId = "40E32FB9-B6BE-48EB-82C7-9119AE8E729C";
paths = (
{
closed = 1;
nodes = (
"497 306 LINE",
"326 306 LINE",
"326 415 LINE",
"235 415 LINE",
"235 306 LINE",
"133 306 LINE",
"133 572 LINE",
"199 627 LINE",
"142 700 LINE",
"40 617 LINE",
"40 213 LINE",
"235 213 LINE",
"235 0 LINE",
"326 0 LINE",
"326 213 LINE",
"497 213 LINE"
);
}
);
width = 527;
},
{
associatedMasterId = "575D5349-E17C-4630-8554-E10C4C95202B";
layerId = "5499D732-9A41-41CA-8256-AB161D9ABCF4";
paths = (
{
closed = 1;
nodes = (
"497 271.5 LINE",
"290 271.5 LINE",
"290 395.5 LINE",
"277 395.5 LINE",
"277 271.5 LINE",
"56.5 271.5 LINE",
"56.5 642.5 LINE",
"116.5 690 LINE",
"107.5 700 LINE",
"40 648.5 LINE",
"40 259.5 LINE",
"277 259.5 LINE",
"277 0 LINE",
"290 0 LINE",
"290 259.5 LINE",
"497 259.5 LINE"
);
}
);
width = 527;
}
);
note = four;
unicode = 0034;
},
{
color = 9;
glyphname = five;
layers = (
{
layerId = "575D5349-E17C-4630-8554-E10C4C95202B";
paths = (
{
closed = 1;
nodes = (
"605 233 LINE",
"512 367 LINE",
"115 459 LINE",
"115 661 LINE",
"574 661 LINE",
"574 701 LINE",
"75 701 LINE",
"75 427 LINE",
"487 331 LINE",
"564 221 LINE",
"564 138 LINE",
"489 40 LINE",
"141 40 LINE",
"72 131 LINE",
"40 106 LINE",
"121 0 LINE",
"509 0 LINE",
"605 123 LINE"
);
}
);
width = 645;
},
{
layerId = "40E32FB9-B6BE-48EB-82C7-9119AE8E729C";
paths = (
{
closed = 1;
nodes = (
"617 252 LINE",
"522 392 LINE",
"176 473 LINE",
"176 607 LINE",
"589 607 LINE",
"589 701 LINE",
"83 701 LINE",
"83 398 LINE",
"465 308 LINE",
"523 223 LINE",
"523 165 LINE",
"470 94 LINE",
"185 94 LINE",
"114 190 LINE",
"40 131 LINE",
"139 0 LINE",
"516 0 LINE",
"617 132 LINE"
);
}
);
width = 657;
},
{
associatedMasterId = "575D5349-E17C-4630-8554-E10C4C95202B";
layerId = "5499D732-9A41-41CA-8256-AB161D9ABCF4";
paths = (
{
closed = 1;
nodes = (
"599 223.5 LINE",
"507 354.5 LINE",
"84.5 452 LINE",
"84.5 688 LINE",
"566.5 688 LINE",
"566.5 701 LINE",
"71 701 LINE",
"71 441.5 LINE",
"498 342.5 LINE",
"584.5 220 LINE",
"584.5 124.5 LINE",
"498.5 13 LINE",
"119 13 LINE",
"51 101.5 LINE",
"40 93.5 LINE",
"112 0 LINE",
"505.5 0 LINE",
"599 118.5 LINE"
);
}
);
width = 639;
}
);
note = five;
unicode = 0035;
},
{
color = 9;
glyphname = six;
layers = (
{
layerId = "575D5349-E17C-4630-8554-E10C4C95202B";
paths = (
{
closed = 1;
nodes = (
"518 307 LINE",
"424 382 LINE",
"79 382 LINE",
"79 605 LINE",
"148 660 LINE",
"401 660 LINE",
"479 605 LINE",
"479 550 LINE",
"518 550 LINE",
"518 625 LINE",
"414 700 LINE",
"134 700 LINE",
"40 624 LINE",
"40 1 LINE",
"424 1 LINE",
"518 76 LINE"
);
},
{
closed = 1;
nodes = (
"409 41 LINE",
"79 41 LINE",
"79 343 LINE",
"409 343 LINE",
"479 289 LINE",
"479 95 LINE"
);
}
);
width = 558;
},
{
layerId = "40E32FB9-B6BE-48EB-82C7-9119AE8E729C";
paths = (
{
closed = 1;
nodes = (
"528 324 LINE",
"427 409 LINE",
"141 409 LINE",
"141 570 LINE",
"184 606 LINE",
"387 606 LINE",
"437 569 LINE",
"437 514 LINE",
"528 514 LINE",
"528 617 LINE",
"417 700 LINE",
"151 700 LINE",
"50 615 LINE",
"50 1 LINE",
"427 1 LINE",
"528 85 LINE"
);
},
{
closed = 1;
nodes = (
"394 95 LINE",
"141 95 LINE",
"141 315 LINE",
"394 315 LINE",
"437 280 LINE",
"437 130 LINE"
);
}
);
width = 568;
},
{
associatedMasterId = "575D5349-E17C-4630-8554-E10C4C95202B";
layerId = "5499D732-9A41-41CA-8256-AB161D9ABCF4";
paths = (
{
closed = 1;
nodes = (
"513 298.5 LINE",
"422.5 368.5 LINE",
"48 368.5 LINE",
"48 622.5 LINE",
"130 687 LINE",
"408 687 LINE",
"500 623 LINE",
"500 573 LINE",
"513 573 LINE",
"513 629 LINE",
"412.5 700 LINE",
"125.5 700 LINE",
"35 628.5 LINE",
"35 1 LINE",
"422.5 1 LINE",
"513 71.5 LINE"
);
},
{
closed = 1;
nodes = (
"416.5 14 LINE",
"48 14 LINE",
"48 357 LINE",
"416.5 357 LINE",
"500 293.5 LINE",
"500 77.5 LINE"
);
}
);
width = 553;
}
);
note = six;
unicode = 0036;
},
{
color = 9;
glyphname = seven;
layers = (
{
layerId = "575D5349-E17C-4630-8554-E10C4C95202B";
paths = (
{
closed = 1;
nodes = (
"534 574 LINE",
"439 700 LINE",
"124 700 LINE",
"40 592 LINE",
"73 568 LINE",
"143 660 LINE",
"420 660 LINE",
"494 561 LINE",
"494 475 LINE",
"316 -2 LINE",
"360 -2 LINE",
"534 469 LINE"
);
}
);
width = 574;
},
{
layerId = "40E32FB9-B6BE-48EB-82C7-9119AE8E729C";
paths = (
{
closed = 1;
nodes = (
"546 565 LINE",
"447 700 LINE",
"140 700 LINE",
"40 567 LINE",
"115 510 LINE",
"185 606 LINE",
"402 606 LINE",
"454 534 LINE",
"454 470 LINE",
"284 -2 LINE",
"383 -2 LINE",
"546 454 LINE"
);
}
);
width = 586;
},
{
associatedMasterId = "575D5349-E17C-4630-8554-E10C4C95202B";
layerId = "5499D732-9A41-41CA-8256-AB161D9ABCF4";
paths = (
{
closed = 1;
nodes = (
"528 578.5 LINE",
"435 700 LINE",
"116 700 LINE",
"40 604.5 LINE",
"52 597 LINE",
"122 687 LINE",
"429 687 LINE",
"514 574.5 LINE",
"514 477.5 LINE",
"332 -2 LINE",
"348.5 -2 LINE",
"528 476.5 LINE"
);
}
);
width = 568;
}
);
note = seven;
unicode = 0037;
},
{
color = 9;
glyphname = eight;
layers = (
{
layerId = "575D5349-E17C-4630-8554-E10C4C95202B";
paths = (
{
closed = 1;
nodes = (
"519 286 LINE",
"433 350 LINE",
"519 416 LINE",
"519 623 LINE",
"424 700 LINE",
"135 700 LINE",
"40 623 LINE",
"40 416 LINE",
"127 350 LINE",
"40 286 LINE",
"40 74 LINE",
"135 -2 LINE",
"424 -2 LINE",
"519 74 LINE"
);
},
{
closed = 1;
nodes = (
"392 370 LINE",
"167 370 LINE",
"81 436 LINE",
"81 605 LINE",
"150 660 LINE",
"410 660 LINE",
"477 605 LINE",
"477 436 LINE"
);
},
{
closed = 1;
nodes = (
"410 38 LINE",
"149 38 LINE",
"81 94 LINE",
"81 266 LINE",
"167 330 LINE",
"393 330 LINE",
"477 266 LINE",
"477 94 LINE"
);
}
);
width = 559;
},
{
layerId = "40E32FB9-B6BE-48EB-82C7-9119AE8E729C";
paths = (
{
closed = 1;
nodes = (
"519 305 LINE",
"461 350 LINE",
"519 397 LINE",
"519 616 LINE",
"417 702 LINE",
"142 702 LINE",
"40 616 LINE",
"40 397 LINE",
"99 350 LINE",
"40 305 LINE",
"40 83 LINE",
"142 -2 LINE",
"417 -2 LINE",
"519 83 LINE"
);
},
{
closed = 1;
nodes = (
"369 397 LINE",
"190 397 LINE",
"132 443 LINE",
"132 572 LINE",
"175 608 LINE",
"384 608 LINE",
"426 572 LINE",
"426 443 LINE"
);
},
{
closed = 1;
nodes = (
"384 92 LINE",
"175 92 LINE",
"132 128 LINE",
"132 258 LINE",
"190 303 LINE",
"370 303 LINE",
"426 259 LINE",
"426 128 LINE"
);
}
);
width = 559;
},
{
associatedMasterId = "575D5349-E17C-4630-8554-E10C4C95202B";
layerId = "5499D732-9A41-41CA-8256-AB161D9ABCF4";
paths = (
{
closed = 1;
nodes = (
"519 276.5 LINE",
"419 350 LINE",
"519 425.5 LINE",
"519 626.5 LINE",
"427.5 699 LINE",
"131.5 699 LINE",
"40 626.5 LINE",
"40 425.5 LINE",
"141 350 LINE",
"40 276.5 LINE",
"40 69.5 LINE",
"131.5 -2 LINE",
"427.5 -2 LINE",
"519 69.5 LINE"
);
},
{
closed = 1;
nodes = (
"403.5 356.5 LINE",
"155.5 356.5 LINE",
"55.5 432.5 LINE",
"55.5 621.5 LINE",
"137.5 686 LINE",
"423 686 LINE",
"502.5 621.5 LINE",
"502.5 432.5 LINE"
);
},
{
closed = 1;
nodes = (
"423 11 LINE",
"136 11 LINE",
"55.5 77 LINE",
"55.5 270 LINE",
"155.5 343.5 LINE",
"404.5 343.5 LINE",
"502.5 269.5 LINE",
"502.5 77 LINE"
);
}
);
width = 559;
}
);
note = eight;
unicode = 0038;
},
{
color = 9;
glyphname = nine;
layers = (
{
layerId = "575D5349-E17C-4630-8554-E10C4C95202B";
paths = (
{
closed = 1;
nodes = (
"519 700 LINE",
"134 700 LINE",
"40 623 LINE",
"40 393 LINE",
"134 317 LINE",
"478 317 LINE",
"478 94 LINE",
"409 39 LINE",
"159 39 LINE",
"81 94 LINE",
"81 150 LINE",
"40 150 LINE",
"40 76 LINE",
"144 -1 LINE",
"425 -1 LINE",
"519 76 LINE"
);
},
{
closed = 1;
nodes = (
"150 356 LINE",
"81 412 LINE",
"81 604 LINE",
"149 660 LINE",
"478 660 LINE",
"478 356 LINE"
);
}
);
width = 559;
},
{
layerId = "40E32FB9-B6BE-48EB-82C7-9119AE8E729C";
paths = (
{
closed = 1;
nodes = (
"519 700 LINE",
"141 700 LINE",
"40 614 LINE",
"40 376 LINE",
"141 291 LINE",
"427 291 LINE",
"427 129 LINE",
"384 93 LINE",
"182 93 LINE",
"132 130 LINE",
"132 186 LINE",
"40 186 LINE",
"40 84 LINE",
"150 -1 LINE",
"418 -1 LINE",
"519 85 LINE"
);
},
{
closed = 1;
nodes = (
"175 384 LINE",
"132 420 LINE",
"132 570 LINE",
"175 606 LINE",
"427 606 LINE",
"427 384 LINE"
);
}
);
width = 569;
},
{
associatedMasterId = "575D5349-E17C-4630-8554-E10C4C95202B";
layerId = "5499D732-9A41-41CA-8256-AB161D9ABCF4";
paths = (
{
closed = 1;
nodes = (
"519 700 LINE",
"130.5 700 LINE",
"40 627.5 LINE",
"40 401.5 LINE",
"130.5 330 LINE",
"503.5 330 LINE",
"503.5 76.5 LINE",
"421.5 12 LINE",
"147.5 12 LINE",
"55.5 76 LINE",
"55.5 127 LINE",
"40 127 LINE",
"40 72 LINE",
"141 -1 LINE",
"428.5 -1 LINE",
"519 71.5 LINE"
);
},
{
closed = 1;
nodes = (
"137.5 342 LINE",
"55.5 408 LINE",
"55.5 621 LINE",
"136 687 LINE",
"503.5 687 LINE",
"503.5 342 LINE"
);
}
);
width = 554;
}
);
note = nine;
unicode = 0039;
},
{
color = 9;
glyphname = zero.dnom;
layers = (
{
layerId = "575D5349-E17C-4630-8554-E10C4C95202B";
paths = (
{
closed = 1;
nodes = (
"437 393 LINE",
"369 483 LINE",
"107 483 LINE",
"40 393 LINE",
"40 88 LINE",
"106 0 LINE",
"369 0 LINE",
"437 88 LINE"
);
},
{
closed = 1;
nodes = (
"351 38 LINE",
"124 38 LINE",
"75 102 LINE",
"75 380 LINE",
"124 445 LINE",
"351 445 LINE",
"401 380 LINE",
"401 102 LINE"
);
}
);
width = 477;
},
{
layerId = "40E32FB9-B6BE-48EB-82C7-9119AE8E729C";
paths = (
{
closed = 1;
nodes = (
"417 390 LINE",
"348 483 LINE",
"96 483 LINE",
"28 390 LINE",
"28 91 LINE",
"96 0 LINE",
"348 0 LINE",
"417 91 LINE"
);
},
{
closed = 1;
nodes = (
"316 65 LINE",
"128 65 LINE",
"91 114 LINE",
"91 368 LINE",
"128 418 LINE",
"316 418 LINE",
"353 368 LINE",
"353 114 LINE"
);
}
);
width = 457;
},
{
associatedMasterId = "575D5349-E17C-4630-8554-E10C4C95202B";
layerId = "5499D732-9A41-41CA-8256-AB161D9ABCF4";
paths = (
{
closed = 1;
nodes = (
"604 578.5 LINE",
"510 700 LINE",
"133 700 LINE",
"40 578.5 LINE",
"40 118.5 LINE",
"131.5 0 LINE",
"511.5 0 LINE",
"604 118.5 LINE"
);
},
{
closed = 1;
nodes = (
"504.5 13 LINE",
"138.5 13 LINE",
"52.5 124.5 LINE",
"52.5 574.5 LINE",
"137 687 LINE",
"504.5 687 LINE",
"590.5 574.5 LINE",
"590.5 124.5 LINE"
);
}
);
width = 644;
}
);
note = zero;
},
{
color = 9;
glyphname = one.dnom;
layers = (
{
layerId = "575D5349-E17C-4630-8554-E10C4C95202B";
paths = (
{
closed = 1;
nodes = (
"219 483 LINE",
"118 483 LINE",
"40 428 LINE",
"40 369 LINE",
"77 369 LINE",
"77 409 LINE",
"131 445 LINE",
"182 445 LINE",
"182 0 LINE",
"219 0 LINE"
);
}
);
width = 259;
},
{
layerId = "40E32FB9-B6BE-48EB-82C7-9119AE8E729C";
paths = (
{
closed = 1;
nodes = (
"199 484 LINE",
"99 484 LINE",
"28 426 LINE",
"28 362 LINE",
"88 362 LINE",
"88 394 LINE",
"120 420 LINE",
"139 420 LINE",
"139 0 LINE",
"199 0 LINE"
);
}
);
width = 234;
},
{
associatedMasterId = "575D5349-E17C-4630-8554-E10C4C95202B";
layerId = "5499D732-9A41-41CA-8256-AB161D9ABCF4";
paths = (
{
closed = 1;
nodes = (
"289 699 LINE",
"153 699 LINE",
"40 626 LINE",
"40 571 LINE",
"61 571 LINE",
"61 620.5 LINE",
"160.5 686 LINE",
"268 686 LINE",
"268 0 LINE",
"289 0 LINE"
);
}
);
width = 324;
}
);
note = one;
},
{
color = 9;
glyphname = two.dnom;
layers = (
{
layerId = "575D5349-E17C-4630-8554-E10C4C95202B";
paths = (
{
closed = 1;
nodes = (
"421 393 LINE",
"353 483 LINE",
"81 483 LINE",
"22 402 LINE",
"51 381 LINE",
"100 445 LINE",
"337 445 LINE",
"385 380 LINE",
"385 333 LINE",
"333 257 LINE",
"48 104 LINE",
"48 0 LINE",
"411 0 LINE",
"411 38 LINE",
"84 38 LINE",
"84 80 LINE",
"356 228 LINE",
"421 320 LINE"
);
}
);
width = 444;
},
{
layerId = "40E32FB9-B6BE-48EB-82C7-9119AE8E729C";
paths = (
{
closed = 1;
nodes = (
"425 391 LINE",
"357 484 LINE",
"96 484 LINE",
"28 392 LINE",
"79 353 LINE",
"128 419 LINE",
"325 419 LINE",
"361 369 LINE",
"361 330 LINE",
"319 267 LINE",
"58 125 LINE",
"58 0 LINE",
"417 0 LINE",
"417 65 LINE",
"122 65 LINE",
"122 85 LINE",
"362 217 LINE",
"425 309 LINE"
);
}
);
width = 453;
},
{
associatedMasterId = "575D5349-E17C-4630-8554-E10C4C95202B";
layerId = "5499D732-9A41-41CA-8256-AB161D9ABCF4";
paths = (
{
closed = 1;
nodes = (
"598 579.5 LINE",
"505 701 LINE",
"112 701 LINE",
"40 605.5 LINE",
"51 598 LINE",
"120 688 LINE",
"501 688 LINE",
"584.5 575.5 LINE",
"584.5 481 LINE",
"498 355.5 LINE",
"72 130 LINE",
"72 0 LINE",
"583 0 LINE",
"583 13 LINE",
"85.5 13 LINE",
"85.5 120 LINE",
"507 346.5 LINE",
"598 476.5 LINE"
);
}
);
width = 638;
}
);
note = two;
},
{
color = 9;
glyphname = three.dnom;
layers = (
{
layerId = "575D5349-E17C-4630-8554-E10C4C95202B";
paths = (
{
closed = 1;
nodes = (
"362 200 LINE",
"307 241 LINE",
"362 284 LINE",
"362 429 LINE",
"294 484 LINE",
"98 484 LINE",
"24 430 LINE",
"24 370 LINE",
"60 370 LINE",
"60 411 LINE",
"111 447 LINE",
"281 447 LINE",
"326 411 LINE",
"326 304 LINE",
"245 241 LINE",
"326 181 LINE",
"326 74 LINE",
"282 38 LINE",
"110 38 LINE",
"60 75 LINE",
"60 114 LINE",
"24 114 LINE",
"24 54 LINE",
"98 0 LINE",
"294 0 LINE",
"362 54 LINE"
);
}
);
width = 386;
},
{
layerId = "40E32FB9-B6BE-48EB-82C7-9119AE8E729C";
paths = (
{
closed = 1;
nodes = (
"358 210 LINE",
"318 241 LINE",
"358 274 LINE",
"358 425 LINE",
"288 484 LINE",
"104 484 LINE",
"28 426 LINE",
"28 348 LINE",
"91 348 LINE",
"91 394 LINE",
"126 420 LINE",
"265 420 LINE",
"295 395 LINE",
"295 306 LINE",
"214 241 LINE",
"295 178 LINE",
"295 90 LINE",
"265 65 LINE",
"126 65 LINE",
"91 91 LINE",
"91 136 LINE",
"28 136 LINE",
"28 58 LINE",
"104 0 LINE",
"288 0 LINE",
"358 59 LINE"
);
}
);
width = 386;
},
{
associatedMasterId = "575D5349-E17C-4630-8554-E10C4C95202B";
layerId = "5499D732-9A41-41CA-8256-AB161D9ABCF4";
paths = (
{
closed = 1;
nodes = (
"519 276.5 LINE",
"419 350 LINE",
"519 425.5 LINE",
"519 629.5 LINE",
"428.5 702 LINE",
"140.5 702 LINE",
"40 630 LINE",
"40 574 LINE",
"55.5 574 LINE",
"55.5 625 LINE",
"147.5 689 LINE",
"421.5 689 LINE",
"503.5 624.5 LINE",
"503.5 432.5 LINE",
"394 349 LINE",
"503.5 270 LINE",
"503.5 79 LINE",
"423 13 LINE",
"146 13 LINE",
"55.5 79.5 LINE",
"55.5 128 LINE",
"40 128 LINE",
"40 72 LINE",
"140.5 0 LINE",
"428.5 0 LINE",
"519 71.5 LINE"
);
}
);
width = 559;
}
);
note = three;
},
{
color = 9;
glyphname = four.dnom;
layers = (
{
layerId = "575D5349-E17C-4630-8554-E10C4C95202B";
paths = (
{
closed = 1;
nodes = (
"347 200 LINE",
"212 200 LINE",
"212 282 LINE",
"177 282 LINE",
"177 200 LINE",
"61 200 LINE",
"61 420 LINE",
"105 457 LINE",
"83 485 LINE",
"24 439 LINE",
"24 163 LINE",
"177 163 LINE",
"177 0 LINE",
"212 0 LINE",
"212 163 LINE",
"347 163 LINE"
);
}
);
width = 364;
},
{
layerId = "40E32FB9-B6BE-48EB-82C7-9119AE8E729C";
paths = (
{
closed = 1;
nodes = (
"343 211 LINE",
"225 211 LINE",
"225 286 LINE",
"162 286 LINE",
"162 211 LINE",
"92 211 LINE",
"92 395 LINE",
"137 433 LINE",
"98 483 LINE",
"28 426 LINE",
"28 147 LINE",
"162 147 LINE",
"162 0 LINE",
"225 0 LINE",
"225 147 LINE",
"343 147 LINE"
);
}
);
width = 364;
},
{
associatedMasterId = "575D5349-E17C-4630-8554-E10C4C95202B";
layerId = "5499D732-9A41-41CA-8256-AB161D9ABCF4";
paths = (
{
closed = 1;
nodes = (
"497 271.5 LINE",
"290 271.5 LINE",
"290 395.5 LINE",
"277 395.5 LINE",
"277 271.5 LINE",
"56.5 271.5 LINE",
"56.5 642.5 LINE",
"116.5 690 LINE",
"107.5 700 LINE",
"40 648.5 LINE",
"40 259.5 LINE",
"277 259.5 LINE",
"277 0 LINE",
"290 0 LINE",
"290 259.5 LINE",
"497 259.5 LINE"
);
}
);
width = 527;
}
);
note = four;
},
{
color = 9;
glyphname = five.dnom;
layers = (
{
layerId = "575D5349-E17C-4630-8554-E10C4C95202B";
paths = (
{
closed = 1;
nodes = (
"421 163 LINE",
"355 258 LINE",
"83 321 LINE",
"83 446 LINE",
"400 446 LINE",
"400 484 LINE",
"48 484 LINE",
"48 291 LINE",
"334 223 LINE",
"385 150 LINE",
"385 102 LINE",
"335 38 LINE",
"99 38 LINE",
"51 101 LINE",
"22 79 LINE",
"81 0 LINE",
"353 0 LINE",
"421 88 LINE"
);
}
);
width = 445;
},
{
layerId = "40E32FB9-B6BE-48EB-82C7-9119AE8E729C";
paths = (
{
closed = 1;
nodes = (
"426 174 LINE",
"360 270 LINE",
"121 326 LINE",
"121 419 LINE",
"406 419 LINE",
"406 484 LINE",
"57 484 LINE",
"57 275 LINE",
"321 213 LINE",
"361 154 LINE",
"361 114 LINE",
"324 65 LINE",
"128 65 LINE",
"79 131 LINE",
"28 90 LINE",
"96 0 LINE",
"356 0 LINE",
"426 91 LINE"
);
}
);
width = 453;
},
{
associatedMasterId = "575D5349-E17C-4630-8554-E10C4C95202B";
layerId = "5499D732-9A41-41CA-8256-AB161D9ABCF4";
paths = (
{
closed = 1;
nodes = (
"599 223.5 LINE",
"507 354.5 LINE",
"84.5 452 LINE",
"84.5 688 LINE",
"566.5 688 LINE",
"566.5 701 LINE",
"71 701 LINE",
"71 441.5 LINE",
"498 342.5 LINE",
"584.5 220 LINE",
"584.5 124.5 LINE",
"498.5 13 LINE",
"119 13 LINE",
"51 101.5 LINE",
"40 93.5 LINE",
"112 0 LINE",
"505.5 0 LINE",
"599 118.5 LINE"
);
}
);
width = 639;
}
);
note = five;
},
{
color = 9;
glyphname = six.dnom;
layers = (
{
layerId = "575D5349-E17C-4630-8554-E10C4C95202B";
paths = (
{
closed = 1;
nodes = (
"361 219 LINE",
"294 273 LINE",
"59 273 LINE",
"59 409 LINE",
"103 445 LINE",
"276 445 LINE",
"327 409 LINE",
"327 369 LINE",
"361 369 LINE",
"361 429 LINE",
"287 483 LINE",
"91 483 LINE",
"24 429 LINE",
"24 0 LINE",
"294 0 LINE",
"361 53 LINE"
);
},
{
closed = 1;
nodes = (
"281 37 LINE",
"59 37 LINE",
"59 236 LINE",
"281 236 LINE",
"327 200 LINE",
"327 73 LINE"
);
}
);
width = 385;
},
{
layerId = "40E32FB9-B6BE-48EB-82C7-9119AE8E729C";
paths = (
{
closed = 1;
nodes = (
"364 224 LINE",
"295 282 LINE",
"97 282 LINE",
"97 393 LINE",
"127 418 LINE",
"267 418 LINE",
"302 393 LINE",
"302 355 LINE",
"364 355 LINE",
"364 426 LINE",
"288 483 LINE",
"104 483 LINE",
"35 424 LINE",
"35 1 LINE",
"295 1 LINE",
"364 59 LINE"
);
},
{
closed = 1;
nodes = (
"272 66 LINE",
"97 66 LINE",
"97 217 LINE",
"272 217 LINE",
"302 193 LINE",
"302 90 LINE"
);
}
);
width = 392;
},
{
associatedMasterId = "575D5349-E17C-4630-8554-E10C4C95202B";
layerId = "5499D732-9A41-41CA-8256-AB161D9ABCF4";
paths = (
{
closed = 1;
nodes = (
"513 298.5 LINE",
"422.5 368.5 LINE",
"48 368.5 LINE",
"48 622.5 LINE",
"130 687 LINE",
"408 687 LINE",
"500 623 LINE",
"500 573 LINE",
"513 573 LINE",
"513 629 LINE",
"412.5 700 LINE",
"125.5 700 LINE",
"35 628.5 LINE",
"35 1 LINE",
"422.5 1 LINE",
"513 71.5 LINE"
);
},
{
closed = 1;
nodes = (
"416.5 14 LINE",
"48 14 LINE",
"48 357 LINE",
"416.5 357 LINE",
"500 293.5 LINE",
"500 77.5 LINE"
);
}
);
width = 553;
}
);
note = six;
},
{
color = 9;
glyphname = seven.dnom;
layers = (
{
layerId = "575D5349-E17C-4630-8554-E10C4C95202B";
paths = (
{
closed = 1;
nodes = (
"372 393 LINE",
"305 483 LINE",
"84 483 LINE",
"22 402 LINE",
"51 381 LINE",
"101 445 LINE",
"288 445 LINE",
"337 380 LINE",
"337 329 LINE",
"214 0 LINE",
"253 0 LINE",
"372 323 LINE"
);
}
);
width = 396;
},
{
layerId = "40E32FB9-B6BE-48EB-82C7-9119AE8E729C";
paths = (
{
closed = 1;
nodes = (
"377 390 LINE",
"308 483 LINE",
"97 483 LINE",
"28 391 LINE",
"79 352 LINE",
"128 418 LINE",
"277 418 LINE",
"313 368 LINE",
"313 324 LINE",
"196 -1 LINE",
"264 -1 LINE",
"377 313 LINE"
);
}
);
width = 404;
},
{
associatedMasterId = "575D5349-E17C-4630-8554-E10C4C95202B";
layerId = "5499D732-9A41-41CA-8256-AB161D9ABCF4";
paths = (
{
closed = 1;
nodes = (
"528 578.5 LINE",
"435 700 LINE",
"116 700 LINE",
"40 604.5 LINE",
"52 597 LINE",
"122 687 LINE",
"429 687 LINE",
"514 574.5 LINE",
"514 477.5 LINE",
"332 -2 LINE",
"348.5 -2 LINE",
"528 476.5 LINE"
);
}
);
width = 568;
}
);
note = seven;
},
{
color = 9;
glyphname = eight.dnom;
layers = (
{
layerId = "575D5349-E17C-4630-8554-E10C4C95202B";
paths = (
{
closed = 1;
nodes = (
"362 200 LINE",
"307 241 LINE",
"362 284 LINE",
"362 428 LINE",
"294 483 LINE",
"92 483 LINE",
"24 428 LINE",
"24 284 LINE",
"80 241 LINE",
"24 200 LINE",
"24 54 LINE",
"92 0 LINE",
"294 0 LINE",
"362 54 LINE"
);
},
{
closed = 1;
nodes = (
"269 260 LINE",
"116 260 LINE",
"60 304 LINE",
"60 409 LINE",
"104 445 LINE",
"282 445 LINE",
"325 409 LINE",
"325 304 LINE"
);
},
{
closed = 1;
nodes = (
"282 37 LINE",
"104 37 LINE",
"60 74 LINE",
"60 181 LINE",
"116 223 LINE",
"270 223 LINE",
"325 181 LINE",
"325 74 LINE"
);
}
);
width = 386;
},
{
layerId = "40E32FB9-B6BE-48EB-82C7-9119AE8E729C";
paths = (
{
closed = 1;
nodes = (
"358 210 LINE",
"318 241 LINE",
"358 274 LINE",
"358 425 LINE",
"288 484 LINE",
"98 484 LINE",
"28 425 LINE",
"28 274 LINE",
"68 241 LINE",
"28 210 LINE",
"28 57 LINE",
"98 -1 LINE",
"288 -1 LINE",
"358 57 LINE"
);
},
{
closed = 1;
nodes = (
"255 274 LINE",
"131 274 LINE",
"91 306 LINE",
"91 395 LINE",
"121 420 LINE",
"265 420 LINE",
"294 395 LINE",
"294 306 LINE"
);
},
{
closed = 1;
nodes = (
"265 63 LINE",
"121 63 LINE",
"91 88 LINE",
"91 178 LINE",
"131 209 LINE",
"255 209 LINE",
"294 179 LINE",
"294 88 LINE"
);
}
);
width = 386;
},
{
associatedMasterId = "575D5349-E17C-4630-8554-E10C4C95202B";
layerId = "5499D732-9A41-41CA-8256-AB161D9ABCF4";
paths = (
{
closed = 1;
nodes = (
"519 276.5 LINE",
"419 350 LINE",
"519 425.5 LINE",
"519 626.5 LINE",
"427.5 699 LINE",
"131.5 699 LINE",
"40 626.5 LINE",
"40 425.5 LINE",
"141 350 LINE",
"40 276.5 LINE",
"40 69.5 LINE",
"131.5 -2 LINE",
"427.5 -2 LINE",
"519 69.5 LINE"
);
},
{
closed = 1;
nodes = (
"403.5 356.5 LINE",
"155.5 356.5 LINE",
"55.5 432.5 LINE",
"55.5 621.5 LINE",
"137.5 686 LINE",
"423 686 LINE",
"502.5 621.5 LINE",
"502.5 432.5 LINE"
);
},
{
closed = 1;
nodes = (
"423 11 LINE",
"136 11 LINE",
"55.5 77 LINE",
"55.5 270 LINE",
"155.5 343.5 LINE",
"404.5 343.5 LINE",
"502.5 269.5 LINE",
"502.5 77 LINE"
);
}
);
width = 559;
}
);
note = eight;
},
{
color = 9;
glyphname = nine.dnom;
layers = (
{
layerId = "575D5349-E17C-4630-8554-E10C4C95202B";
paths = (
{
closed = 1;
nodes = (
"362 483 LINE",
"91 483 LINE",
"24 428 LINE",
"24 268 LINE",
"91 214 LINE",
"326 214 LINE",
"326 74 LINE",
"281 38 LINE",
"111 38 LINE",
"60 74 LINE",
"60 114 LINE",
"24 114 LINE",
"24 55 LINE",
"98 0 LINE",
"294 0 LINE",
"362 55 LINE"
);
},
{
closed = 1;
nodes = (
"104 251 LINE",
"60 287 LINE",
"60 409 LINE",
"104 445 LINE",
"326 445 LINE",
"326 251 LINE"
);
}
);
width = 386;
},
{
layerId = "40E32FB9-B6BE-48EB-82C7-9119AE8E729C";
paths = (
{
closed = 1;
nodes = (
"358 483 LINE",
"97 483 LINE",
"28 424 LINE",
"28 259 LINE",
"97 201 LINE",
"295 201 LINE",
"295 89 LINE",
"265 64 LINE",
"126 64 LINE",
"91 90 LINE",
"91 128 LINE",
"28 128 LINE",
"28 58 LINE",
"103 -1 LINE",
"288 -1 LINE",
"358 59 LINE"
);
},
{
closed = 1;
nodes = (
"121 265 LINE",
"91 290 LINE",
"91 393 LINE",
"121 418 LINE",
"295 418 LINE",
"295 265 LINE"
);
}
);
width = 393;
},
{
associatedMasterId = "575D5349-E17C-4630-8554-E10C4C95202B";
layerId = "5499D732-9A41-41CA-8256-AB161D9ABCF4";
paths = (
{
closed = 1;
nodes = (
"519 700 LINE",
"130.5 700 LINE",
"40 627.5 LINE",
"40 401.5 LINE",
"130.5 330 LINE",
"503.5 330 LINE",
"503.5 76.5 LINE",
"421.5 12 LINE",
"147.5 12 LINE",
"55.5 76 LINE",
"55.5 127 LINE",
"40 127 LINE",
"40 72 LINE",
"141 -1 LINE",
"428.5 -1 LINE",
"519 71.5 LINE"
);
},
{
closed = 1;
nodes = (
"137.5 342 LINE",
"55.5 408 LINE",
"55.5 621 LINE",
"136 687 LINE",
"503.5 687 LINE",
"503.5 342 LINE"
);
}
);
width = 554;
}
);
note = nine;
},
{
color = 9;
glyphname = fraction;
layers = (
{
layerId = "575D5349-E17C-4630-8554-E10C4C95202B";
paths = (
{
closed = 1;
nodes = (
"39 -4 LINE",
"322 711 LINE",
"395 763 LINE",
"371 795 LINE",
"285 735 LINE",
"4 20 LINE",
"-70 -32 LINE",
"-46 -64 LINE"
);
}
);
width = 315;
},
{
layerId = "40E32FB9-B6BE-48EB-82C7-9119AE8E729C";
paths = (
{
closed = 1;
nodes = (
"55 0 LINE",
"322 690 LINE",
"398 746 LINE",
"357 801 LINE",
"262 731 LINE",
"-4 41 LINE",
"-80 -15 LINE",
"-40 -70 LINE"
);
}
);
width = 318;
},
{
associatedMasterId = "575D5349-E17C-4630-8554-E10C4C95202B";
layerId = "5499D732-9A41-41CA-8256-AB161D9ABCF4";
paths = (
{
closed = 1;
nodes = (
"417 792 LINE",
"340 741.5 LINE",
"114.5 2.5 LINE",
"42.5 -45.5 LINE",
"52 -55 LINE",
"127.5 -4.5 LINE",
"355.5 734.5 LINE",
"425.5 782.5 LINE"
);
}
);
width = 468.5;
}
);
note = fraction;
unicode = 2044;
},
{
color = 9;
glyphname = period;
layers = (
{
layerId = "575D5349-E17C-4630-8554-E10C4C95202B";
paths = (
{
closed = 1;
nodes = (
"90 60 LINE",
"50 60 LINE",
"50 1 LINE",
"90 1 LINE"
);
}
);
width = 140;
},
{
layerId = "40E32FB9-B6BE-48EB-82C7-9119AE8E729C";
paths = (
{
closed = 1;
nodes = (
"132 113 LINE",
"50 113 LINE",
"50 0 LINE",
"132 0 LINE"
);
}
);
width = 182;
},
{
associatedMasterId = "575D5349-E17C-4630-8554-E10C4C95202B";
layerId = "5499D732-9A41-41CA-8256-AB161D9ABCF4";
paths = (
{
closed = 1;
nodes = (
"24 33.5 LINE",
"5 33.5 LINE",
"5 1.5 LINE",
"24 1.5 LINE"
);
}
);
width = 74;
}
);
note = period;
unicode = 002E;
},
{
color = 9;
glyphname = comma;
layers = (
{
layerId = "575D5349-E17C-4630-8554-E10C4C95202B";
paths = (
{
closed = 1;
nodes = (
"116 113 LINE",
"75 113 LINE",
"75 0 LINE",
"35 -52 LINE",
"69 -78 LINE",
"116 -15 LINE"
);
}
);
width = 166;
},
{
layerId = "40E32FB9-B6BE-48EB-82C7-9119AE8E729C";
paths = (
{
closed = 1;
nodes = (
"178 168 LINE",
"97 168 LINE",
"97 -50 LINE",
"35 -102 LINE",
"83 -173 LINE",
"178 -95 LINE"
);
}
);
width = 228;
},
{
associatedMasterId = "575D5349-E17C-4630-8554-E10C4C95202B";
layerId = "5499D732-9A41-41CA-8256-AB161D9ABCF4";
paths = (
{
closed = 1;
nodes = (
"47.5 85.5 LINE",
"26.5 85.5 LINE",
"26.5 25 LINE",
"-2.5 -27 LINE",
"24.5 -30.5 LINE",
"47.5 25 LINE"
);
}
);
width = 97.5;
}
);
note = comma;
unicode = 002C;
},
{
color = 9;
glyphname = colon;
layers = (
{
layerId = "575D5349-E17C-4630-8554-E10C4C95202B";
paths = (
{
closed = 1;
nodes = (
"80 428 LINE",
"40 428 LINE",
"40 369 LINE",
"80 369 LINE"
);
},
{
closed = 1;
nodes = (
"80 121 LINE",
"40 121 LINE",
"40 62 LINE",
"80 62 LINE"
);
}
);
width = 120;
},
{
layerId = "40E32FB9-B6BE-48EB-82C7-9119AE8E729C";
paths = (
{
closed = 1;
nodes = (
"122 478 LINE",
"40 478 LINE",
"40 365 LINE",
"122 365 LINE"
);
},
{
closed = 1;
nodes = (
"122 129 LINE",
"40 129 LINE",
"40 16 LINE",
"122 16 LINE"
);
}
);
width = 162;
},
{
associatedMasterId = "575D5349-E17C-4630-8554-E10C4C95202B";
layerId = "5499D732-9A41-41CA-8256-AB161D9ABCF4";
paths = (
{
closed = 1;
nodes = (
"59 654.5 LINE",
"40 654.5 LINE",
"40 622.5 LINE",
"59 622.5 LINE"
);
},
{
closed = 1;
nodes = (
"59 -132.5 LINE",
"40 -132.5 LINE",
"40 -164.5 LINE",
"59 -164.5 LINE"
);
}
);
width = 99;
}
);
note = colon;
unicode = 003A;
},
{
color = 9;
glyphname = semicolon;
layers = (
{
layerId = "575D5349-E17C-4630-8554-E10C4C95202B";
paths = (
{
closed = 1;
nodes = (
"134 -1 LINE",
"93 -1 LINE",
"93 -56 LINE",
"35 -109 LINE",
"63 -141 LINE",
"134 -77 LINE"
);
},
{
closed = 1;
nodes = (
"134 197 LINE",
"93 197 LINE",
"93 104 LINE",
"134 104 LINE"
);
}
);
width = 184;
},
{
layerId = "40E32FB9-B6BE-48EB-82C7-9119AE8E729C";
paths = (
{
closed = 1;
nodes = (
"178 14 LINE",
"98 14 LINE",
"98 -48 LINE",
"35 -101 LINE",
"83 -174 LINE",
"178 -93 LINE"
);
},
{
closed = 1;
nodes = (
"178 212 LINE",
"98 212 LINE",
"98 92 LINE",
"178 92 LINE"
);
}
);
width = 228;
},
{
associatedMasterId = "575D5349-E17C-4630-8554-E10C4C95202B";
layerId = "5499D732-9A41-41CA-8256-AB161D9ABCF4";
width = 162;
}
);
note = semicolon;
unicode = 003B;
},
{
color = 9;
glyphname = ellipsis;
layers = (
{
layerId = "575D5349-E17C-4630-8554-E10C4C95202B";
paths = (
{
closed = 1;
nodes = (
"371 73 LINE",
"330 73 LINE",
"330 0 LINE",
"371 0 LINE"
);
},
{
closed = 1;
nodes = (
"229 73 LINE",
"188 73 LINE",
"188 0 LINE",
"229 0 LINE"
);
},
{
closed = 1;
nodes = (
"91 73 LINE",
"50 73 LINE",
"50 0 LINE",
"91 0 LINE"
);
}
);
width = 421;
},
{
layerId = "40E32FB9-B6BE-48EB-82C7-9119AE8E729C";
paths = (
{
closed = 1;
nodes = (
"451 113 LINE",
"360 113 LINE",
"360 0 LINE",
"451 0 LINE"
);
},
{
closed = 1;
nodes = (
"295 113 LINE",
"204 113 LINE",
"204 0 LINE",
"295 0 LINE"
);
},
{
closed = 1;
nodes = (
"141 113 LINE",
"50 113 LINE",
"50 0 LINE",
"141 0 LINE"
);
}
);
width = 501;
},
{
associatedMasterId = "575D5349-E17C-4630-8554-E10C4C95202B";
layerId = "5499D732-9A41-41CA-8256-AB161D9ABCF4";
paths = (
{
closed = 1;
nodes = (
"451 53 LINE",
"435 53 LINE",
"435 0 LINE",
"451 0 LINE"
);
},
{
closed = 1;
nodes = (
"256 53 LINE",
"240 53 LINE",
"240 0 LINE",
"256 0 LINE"
);
},
{
closed = 1;
nodes = (
"66 53 LINE",
"50 53 LINE",
"50 0 LINE",
"66 0 LINE"
);
}
);
width = 501;
}
);
note = ellipsis;
unicode = 2026;
},
{
color = 9;
glyphname = exclam;
layers = (
{
layerId = "575D5349-E17C-4630-8554-E10C4C95202B";
paths = (
{
closed = 1;
nodes = (
"90 179 LINE",
"90 700 LINE",
"50 700 LINE",
"50 179 LINE"
);
},
{
closed = 1;
nodes = (
"90 0 LINE",
"90 69 LINE",
"50 69 LINE",
"50 0 LINE"
);
}
);
width = 140;
},
{
layerId = "40E32FB9-B6BE-48EB-82C7-9119AE8E729C";
paths = (
{
closed = 1;
nodes = (
"140 215 LINE",
"140 700 LINE",
"50 700 LINE",
"50 215 LINE"
);
},
{
closed = 1;
nodes = (
"140 0 LINE",
"140 137 LINE",
"50 137 LINE",
"50 0 LINE"
);
}
);
width = 190;
},
{
associatedMasterId = "575D5349-E17C-4630-8554-E10C4C95202B";
layerId = "5499D732-9A41-41CA-8256-AB161D9ABCF4";
paths = (
{
closed = 1;
nodes = (
"65 -4 LINE",
"5 -246.5 LINE",
"50 -350 LINE",
"110 -107.5 LINE"
);
},
{
closed = 1;
nodes = (
"65 200 LINE",
"5 268.5 LINE",
"50 1050 LINE",
"110 981.5 LINE"
);
}
);
width = 115;
}
);
note = exclam;
unicode = 0021;
},
{
color = 9;
glyphname = question;
layers = (
{
layerId = "575D5349-E17C-4630-8554-E10C4C95202B";
paths = (
{
closed = 1;
nodes = (
"641 577 LINE",
"547 700 LINE",
"131 700 LINE",
"50 594 LINE",
"82 571 LINE",
"151 661 LINE",
"527 661 LINE",
"601 563 LINE",
"601 481 LINE",
"526 372 LINE",
"330 372 LINE",
"330 176 LINE",
"370 176 LINE",
"370 333 LINE",
"547 333 LINE",
"641 469 LINE"
);
},
{
closed = 1;
nodes = (
"370 67 LINE",
"330 67 LINE",
"330 0 LINE",
"370 0 LINE"
);
}
);
width = 691;
},
{
layerId = "40E32FB9-B6BE-48EB-82C7-9119AE8E729C";
paths = (
{
closed = 1;
nodes = (
"653 568 LINE",
"553 700 LINE",
"149 700 LINE",
"50 569 LINE",
"124 512 LINE",
"195 607 LINE",
"507 607 LINE",
"560 536 LINE",
"560 474 LINE",
"505 394 LINE",
"315 394 LINE",
"315 210 LINE",
"408 210 LINE",
"408 301 LINE",
"555 301 LINE",
"653 445 LINE"
);
},
{
closed = 1;
nodes = (
"408 137 LINE",
"315 137 LINE",
"315 0 LINE",
"408 0 LINE"
);
}
);
width = 703;
},
{
associatedMasterId = "575D5349-E17C-4630-8554-E10C4C95202B";
layerId = "5499D732-9A41-41CA-8256-AB161D9ABCF4";
paths = (
{
closed = 1;
nodes = (
"628 581.5 LINE",
"537 700 LINE",
"115 700 LINE",
"43 606.5 LINE",
"54 600.5 LINE",
"122 688 LINE",
"530 688 LINE",
"614.5 576.5 LINE",
"614.5 484.5 LINE",
"529.5 361 LINE",
"330.5 361 LINE",
"330.5 159 LINE",
"344 159 LINE",
"344 349 LINE",
"536 349 LINE",
"628 481 LINE"
);
},
{
closed = 1;
nodes = (
"344 32 LINE",
"330.5 32 LINE",
"330.5 0 LINE",
"344 0 LINE"
);
}
);
width = 668;
}
);
note = question;
unicode = 003F;
},
{
color = 9;
glyphname = periodcentered;
layers = (
{
layerId = "575D5349-E17C-4630-8554-E10C4C95202B";
paths = (
{
closed = 1;
nodes = (
"90 337 LINE",
"50 337 LINE",
"50 268 LINE",
"90 268 LINE"
);
}
);
width = 140;
},
{
layerId = "40E32FB9-B6BE-48EB-82C7-9119AE8E729C";
paths = (
{
closed = 1;
nodes = (
"132 368 LINE",
"50 368 LINE",
"50 255 LINE",
"132 255 LINE"
);
}
);
width = 182;
},
{
associatedMasterId = "575D5349-E17C-4630-8554-E10C4C95202B";
layerId = "5499D732-9A41-41CA-8256-AB161D9ABCF4";
paths = (
{
closed = 1;
nodes = (
"69 328.5 LINE",
"50 328.5 LINE",
"50 281.5 LINE",
"69 281.5 LINE"
);
}
);
width = 119;
}
);
note = periodcentered;
unicode = 00B7;
},
{
color = 9;
glyphname = bullet;
layers = (
{
layerId = "575D5349-E17C-4630-8554-E10C4C95202B";
paths = (
{
closed = 1;
nodes = (
"205 362 LINE",
"178 385 LINE",
"77 385 LINE",
"50 362 LINE",
"50 248 LINE",
"77 225 LINE",
"178 225 LINE",
"205 248 LINE"
);
}
);
width = 255;
},
{
layerId = "40E32FB9-B6BE-48EB-82C7-9119AE8E729C";
paths = (
{
closed = 1;
nodes = (
"287 395 LINE",
"244 427 LINE",
"93 427 LINE",
"50 395 LINE",
"50 215 LINE",
"93 183 LINE",
"244 183 LINE",
"287 215 LINE"
);
}
);
width = 337;
},
{
associatedMasterId = "575D5349-E17C-4630-8554-E10C4C95202B";
layerId = "5499D732-9A41-41CA-8256-AB161D9ABCF4";
paths = (
{
closed = 1;
nodes = (
"205 376 LINE",
"193.5 385 LINE",
"61.5 385 LINE",
"50 376 LINE",
"50 234 LINE",
"61.5 225 LINE",
"193.5 225 LINE",
"205 234 LINE"
);
}
);
width = 255;
}
);
note = bullet;
unicode = 2022;
},
{
color = 9;
glyphname = asterisk;
layers = (
{
layerId = "575D5349-E17C-4630-8554-E10C4C95202B";
paths = (
{
closed = 1;
nodes = (
"407 542 LINE",
"279 542 LINE",
"370 632 LINE",
"340 662 LINE",
"250 571 LINE",
"250 700 LINE",
"208 700 LINE",
"208 571 LINE",
"118 662 LINE",
"87 632 LINE",
"178 542 LINE",
"50 542 LINE",
"50 500 LINE",
"178 500 LINE",
"87 410 LINE",
"118 380 LINE",
"208 471 LINE",
"208 343 LINE",
"250 343 LINE",
"250 471 LINE",
"340 380 LINE",
"370 410 LINE",
"279 500 LINE",
"407 500 LINE"
);
}
);
width = 457;
},
{
layerId = "40E32FB9-B6BE-48EB-82C7-9119AE8E729C";
paths = (
{
closed = 1;
nodes = (
"407 566 LINE",
"328 566 LINE",
"387 615 LINE",
"323 679 LINE",
"274 620 LINE",
"274 700 LINE",
"184 700 LINE",
"184 620 LINE",
"135 679 LINE",
"70 615 LINE",
"129 566 LINE",
"50 566 LINE",
"50 476 LINE",
"129 476 LINE",
"70 427 LINE",
"135 363 LINE",
"184 422 LINE",
"184 343 LINE",
"274 343 LINE",
"274 422 LINE",
"323 363 LINE",
"387 427 LINE",
"328 476 LINE",
"407 476 LINE"
);
}
);
width = 457;
},
{
associatedMasterId = "575D5349-E17C-4630-8554-E10C4C95202B";
layerId = "5499D732-9A41-41CA-8256-AB161D9ABCF4";
paths = (
{
closed = 1;
nodes = (
"407 530 LINE",
"249.5 530 LINE",
"361.5 640.5 LINE",
"348.5 653.5 LINE",
"238 541.5 LINE",
"238 700 LINE",
"220 700 LINE",
"220 541.5 LINE",
"109.5 653.5 LINE",
"95.5 640.5 LINE",
"207.5 530 LINE",
"50 530 LINE",
"50 512 LINE",
"207.5 512 LINE",
"95.5 401.5 LINE",
"109.5 388.5 LINE",
"220 500.5 LINE",
"220 343 LINE",
"238 343 LINE",
"238 500.5 LINE",
"348.5 388.5 LINE",
"361.5 401.5 LINE",
"249.5 512 LINE",
"407 512 LINE"
);
}
);
width = 457;
}
);
note = asterisk;
unicode = 002A;
},
{
color = 9;
glyphname = numbersign;
layers = (
{
layerId = "575D5349-E17C-4630-8554-E10C4C95202B";
paths = (
{
closed = 1;
nodes = (
"737 288 LINE",
"557 288 LINE",
"582 457 LINE",
"737 457 LINE",
"737 496 LINE",
"588 496 LINE",
"621 718 LINE",
"691 769 LINE",
"667 800 LINE",
"584 739 LINE",
"548 496 LINE",
"282 496 LINE",
"315 718 LINE",
"384 769 LINE",
"360 800 LINE",
"278 739 LINE",
"241 496 LINE",
"50 496 LINE",
"50 457 LINE",
"236 457 LINE",
"210 288 LINE",
"50 288 LINE",
"50 249 LINE",
"204 249 LINE",
"169 17 LINE",
"100 -34 LINE",
"123 -65 LINE",
"206 -4 LINE",
"243 249 LINE",
"511 249 LINE",
"476 17 LINE",
"407 -34 LINE",
"430 -65 LINE",
"512 -4 LINE",
"551 249 LINE",
"737 249 LINE"
);
},
{
closed = 1;
nodes = (
"516 288 LINE",
"250 288 LINE",
"276 457 LINE",
"542 457 LINE"
);
}
);
width = 787;
},
{
layerId = "40E32FB9-B6BE-48EB-82C7-9119AE8E729C";
paths = (
{
closed = 1;
nodes = (
"737 311 LINE",
"576 311 LINE",
"591 410 LINE",
"737 410 LINE",
"737 505 LINE",
"605 505 LINE",
"629 667 LINE",
"707 724 LINE",
"650 800 LINE",
"542 719 LINE",
"510 505 LINE",
"324 505 LINE",
"348 667 LINE",
"425 724 LINE",
"369 800 LINE",
"261 719 LINE",
"229 505 LINE",
"50 505 LINE",
"50 410 LINE",
"215 410 LINE",
"201 311 LINE",
"50 311 LINE",
"50 216 LINE",
"187 216 LINE",
"161 44 LINE",
"85 -13 LINE",
"140 -89 LINE",
"248 -8 LINE",
"281 216 LINE",
"467 216 LINE",
"442 44 LINE",
"365 -13 LINE",
"421 -89 LINE",
"529 -8 LINE",
"563 216 LINE",
"737 216 LINE"
);
},
{
closed = 1;
nodes = (
"481 311 LINE",
"296 311 LINE",
"311 410 LINE",
"496 410 LINE"
);
}
);
width = 787;
},
{
associatedMasterId = "575D5349-E17C-4630-8554-E10C4C95202B";
layerId = "5499D732-9A41-41CA-8256-AB161D9ABCF4";
paths = (
{
closed = 1;
nodes = (
"727 276.5 LINE",
"537.5 276.5 LINE",
"567.5 480.5 LINE",
"727 480.5 LINE",
"727 491.5 LINE",
"569.5 491.5 LINE",
"607 743.5 LINE",
"673 791.5 LINE",
"665.5 800 LINE",
"595 749 LINE",
"557 491.5 LINE",
"251 491.5 LINE",
"288.5 743.5 LINE",
"353.5 791.5 LINE",
"345.5 800 LINE",
"276.5 749 LINE",
"237 491.5 LINE",
"40 491.5 LINE",
"40 480.5 LINE",
"236.5 480.5 LINE",
"204.5 276.5 LINE",
"40 276.5 LINE",
"40 265.5 LINE",
"202.5 265.5 LINE",
"163 3.5 LINE",
"97.5 -44.5 LINE",
"104.5 -53 LINE",
"175 -2 LINE",
"214 265.5 LINE",
"523 265.5 LINE",
"483 3.5 LINE",
"418 -44.5 LINE",
"424.5 -53 LINE",
"493.5 -2 LINE",
"535 265.5 LINE",
"727 265.5 LINE"
);
},
{
closed = 1;
nodes = (
"523.5 276.5 LINE",
"217 276.5 LINE",
"248.5 480.5 LINE",
"555 480.5 LINE"
);
}
);
width = 767;
}
);
note = numbersign;
unicode = 0023;
},
{
color = 9;
glyphname = slash;
layers = (
{
layerId = "575D5349-E17C-4630-8554-E10C4C95202B";
paths = (
{
closed = 1;
nodes = (
"315 801 LINE",
"228 740 LINE",
"113 18 LINE",
"40 -34 LINE",
"64 -65 LINE",
"151 -4 LINE",
"266 718 LINE",
"339 769 LINE"
);
}
);
width = 379;
},
{
layerId = "40E32FB9-B6BE-48EB-82C7-9119AE8E729C";
paths = (
{
closed = 1;
nodes = (
"311 801 LINE",
"208 720 LINE",
"113 45 LINE",
"40 -13 LINE",
"92 -89 LINE",
"195 -8 LINE",
"290 667 LINE",
"363 724 LINE"
);
}
);
width = 403;
},
{
associatedMasterId = "575D5349-E17C-4630-8554-E10C4C95202B";
layerId = "5499D732-9A41-41CA-8256-AB161D9ABCF4";
paths = (
{
closed = 1;
nodes = (
"319.5 801 LINE",
"240.5 750 LINE",
"115.5 4.5 LINE",
"42.5 -44.5 LINE",
"52.5 -53 LINE",
"131.5 -2 LINE",
"256.5 743.5 LINE",
"329.5 791.5 LINE"
);
}
);
width = 372;
}
);
note = slash;
unicode = 002F;
},
{
color = 9;
glyphname = backslash;
layers = (
{
layerId = "575D5349-E17C-4630-8554-E10C4C95202B";
paths = (
{
closed = 1;
nodes = (
"266 12 LINE",
"151 734 LINE",
"64 795 LINE",
"40 763 LINE",
"113 712 LINE",
"228 -10 LINE",
"315 -71 LINE",
"339 -40 LINE"
);
}
);
width = 379;
},
{
layerId = "40E32FB9-B6BE-48EB-82C7-9119AE8E729C";
paths = (
{
closed = 1;
nodes = (
"290 55 LINE",
"195 730 LINE",
"92 811 LINE",
"40 734 LINE",
"113 677 LINE",
"208 2 LINE",
"311 -79 LINE",
"363 -3 LINE"
);
}
);
width = 403;
},
{
associatedMasterId = "575D5349-E17C-4630-8554-E10C4C95202B";
layerId = "5499D732-9A41-41CA-8256-AB161D9ABCF4";
paths = (
{
closed = 1;
nodes = (
"256.5 5.5 LINE",
"131.5 751 LINE",
"52.5 802 LINE",
"42.5 792.5 LINE",
"115.5 744.5 LINE",
"240.5 -1 LINE",
"319.5 -52 LINE",
"329.5 -43.5 LINE"
);
}
);
width = 372;
}
);
note = backslash;
unicode = 005C;
},
{
color = 9;
glyphname = parenright;
layers = (
{
layerId = "575D5349-E17C-4630-8554-E10C4C95202B";
paths = (
{
closed = 1;
nodes = (
"151 633 LINE",
"58 697 LINE",
"35 663 LINE",
"110 614 LINE",
"110 -65 LINE",
"35 -115 LINE",
"58 -148 LINE",
"151 -84 LINE"
);
}
);
width = 201;
},
{
layerId = "40E32FB9-B6BE-48EB-82C7-9119AE8E729C";
paths = (
{
closed = 1;
nodes = (
"175 618 LINE",
"85 706 LINE",
"35 632 LINE",
"92 577 LINE",
"92 -28 LINE",
"35 -84 LINE",
"86 -157 LINE",
"175 -69 LINE"
);
}
);
width = 225;
},
{
associatedMasterId = "575D5349-E17C-4630-8554-E10C4C95202B";
layerId = "5499D732-9A41-41CA-8256-AB161D9ABCF4";
paths = (
{
closed = 1;
nodes = (
"159 640.5 LINE",
"64.5 692.5 LINE",
"55 678.5 LINE",
"139 632.5 LINE",
"139 -83.5 LINE",
"55 -130.5 LINE",
"64 -143.5 LINE",
"159 -91.5 LINE"
);
}
);
width = 194;
}
);
note = parenright;
unicode = 0029;
},
{
color = 9;
glyphname = braceleft;
layers = (
{
layerId = "575D5349-E17C-4630-8554-E10C4C95202B";
paths = (
{
closed = 1;
nodes = (
"170 -65 LINE",
"170 176 LINE",
"102 274 LINE",
"170 373 LINE",
"170 614 LINE",
"238 663 LINE",
"210 694 LINE",
"126 633 LINE",
"126 384 LINE",
"50 274 LINE",
"126 165 LINE",
"126 -84 LINE",
"210 -145 LINE",
"238 -115 LINE"
);
}
);
width = 273;
},
{
layerId = "40E32FB9-B6BE-48EB-82C7-9119AE8E729C";
paths = (
{
closed = 1;
nodes = (
"194 -28 LINE",
"194 191 LINE",
"149 274 LINE",
"194 358 LINE",
"194 577 LINE",
"255 632 LINE",
"201 706 LINE",
"110 622 LINE",
"110 384 LINE",
"50 274 LINE",
"110 165 LINE",
"110 -73 LINE",
"201 -157 LINE",
"255 -84 LINE"
);
}
);
width = 290;
},
{
associatedMasterId = "575D5349-E17C-4630-8554-E10C4C95202B";
layerId = "5499D732-9A41-41CA-8256-AB161D9ABCF4";
paths = (
{
closed = 1;
nodes = (
"159 -83.5 LINE",
"159 168.5 LINE",
"79.5 274 LINE",
"159 380.5 LINE",
"159 632.5 LINE",
"230.5 678.5 LINE",
"215.5 688 LINE",
"135 638.5 LINE",
"135 384 LINE",
"51 274 LINE",
"135 165 LINE",
"135 -89.5 LINE",
"215.5 -139 LINE",
"230.5 -130.5 LINE"
);
}
);
width = 273;
}
);
note = braceleft;
unicode = 007B;
},
{
color = 9;
glyphname = bracketleft;
layers = (
{
layerId = "575D5349-E17C-4630-8554-E10C4C95202B";
paths = (
{
closed = 1;
nodes = (
"187 -86 LINE",
"91 -86 LINE",
"91 659 LINE",
"187 659 LINE",
"187 699 LINE",
"50 699 LINE",
"50 -127 LINE",
"187 -127 LINE"
);
}
);
width = 227;
},
{
layerId = "40E32FB9-B6BE-48EB-82C7-9119AE8E729C";
paths = (
{
closed = 1;
nodes = (
"207 -32 LINE",
"132 -32 LINE",
"132 606 LINE",
"207 606 LINE",
"207 700 LINE",
"50 700 LINE",
"50 -126 LINE",
"207 -126 LINE"
);
}
);
width = 247;
},
{
associatedMasterId = "575D5349-E17C-4630-8554-E10C4C95202B";
layerId = "5499D732-9A41-41CA-8256-AB161D9ABCF4";
width = 227;
}
);
note = bracketleft;
unicode = 005B;
},
{
color = 9;
glyphname = hyphen;
layers = (
{
layerId = "575D5349-E17C-4630-8554-E10C4C95202B";
paths = (
{
closed = 1;
nodes = (
"50 309 LINE",
"50 268 LINE",
"354 268 LINE",
"354 309 LINE"
);
}
);
width = 404;
},
{
layerId = "40E32FB9-B6BE-48EB-82C7-9119AE8E729C";
paths = (
{
closed = 1;
nodes = (
"50 341 LINE",
"50 259 LINE",
"352 260 LINE",
"351 341 LINE"
);
}
);
width = 402;
},
{
associatedMasterId = "575D5349-E17C-4630-8554-E10C4C95202B";
layerId = "5499D732-9A41-41CA-8256-AB161D9ABCF4";
paths = (
{
closed = 1;
nodes = (
"-101 333.5 LINE",
"-100.5 231.5 LINE",
"506 231.5 LINE",
"506 334 LINE"
);
}
);
width = 405;
}
);
note = hyphen;
unicode = 002D;
},
{
color = 9;
glyphname = endash;
layers = (
{
layerId = "575D5349-E17C-4630-8554-E10C4C95202B";
paths = (
{
closed = 1;
nodes = (
"50 309 LINE",
"50 268 LINE",
"536 268 LINE",
"536 309 LINE"
);
}
);
width = 586;
},
{
layerId = "40E32FB9-B6BE-48EB-82C7-9119AE8E729C";
paths = (
{
closed = 1;
nodes = (
"50 341 LINE",
"50 259 LINE",
"526 260 LINE",
"526 341 LINE"
);
}
);
width = 576;
},
{
associatedMasterId = "575D5349-E17C-4630-8554-E10C4C95202B";
layerId = "5499D732-9A41-41CA-8256-AB161D9ABCF4";
paths = (
{
closed = 1;
nodes = (
"-188 333.5 LINE",
"-188 231.5 LINE",
"779 231.5 LINE",
"779 334 LINE"
);
}
);
width = 591;
}
);
note = endash;
unicode = 2013;
},
{
color = 9;
glyphname = emdash;
layers = (
{
layerId = "575D5349-E17C-4630-8554-E10C4C95202B";
paths = (
{
closed = 1;
nodes = (
"50 309 LINE",
"50 268 LINE",
"801 268 LINE",
"801 309 LINE"
);
}
);
width = 851;
},
{
layerId = "40E32FB9-B6BE-48EB-82C7-9119AE8E729C";
paths = (
{
closed = 1;
nodes = (
"50 341 LINE",
"50 259 LINE",
"794 260 LINE",
"794 341 LINE"
);
}
);
width = 844;
},
{
associatedMasterId = "575D5349-E17C-4630-8554-E10C4C95202B";
layerId = "5499D732-9A41-41CA-8256-AB161D9ABCF4";
paths = (
{
closed = 1;
nodes = (
"-322 333.5 LINE",
"-322 231.5 LINE",
"1176.5 231.5 LINE",
"1176.5 334 LINE"
);
}
);
width = 854.5;
}
);
note = emdash;
unicode = 2014;
},
{
color = 9;
glyphname = underscore;
layers = (
{
layerId = "575D5349-E17C-4630-8554-E10C4C95202B";
paths = (
{
closed = 1;
nodes = (
"50 -82 LINE",
"50 -117 LINE",
"526 -117 LINE",
"526 -82 LINE"
);
}
);
width = 576;
},
{
layerId = "40E32FB9-B6BE-48EB-82C7-9119AE8E729C";
paths = (
{
closed = 1;
nodes = (
"50 -64 LINE",
"50 -126 LINE",
"526 -125 LINE",
"526 -63 LINE"
);
}
);
width = 576;
},
{
associatedMasterId = "575D5349-E17C-4630-8554-E10C4C95202B";
layerId = "5499D732-9A41-41CA-8256-AB161D9ABCF4";
paths = (
{
closed = 1;
nodes = (
"-188 -44.5 LINE",
"-188 -147 LINE",
"767 -146.5 LINE",
"767 -44 LINE"
);
}
);
width = 579;
}
);
note = underscore;
unicode = 005F;
},
{
color = 9;
glyphname = quotesinglbase;
layers = (
{
layerId = "575D5349-E17C-4630-8554-E10C4C95202B";
paths = (
{
closed = 1;
nodes = (
"116 113 LINE",
"75 113 LINE",
"75 0 LINE",
"50 -42 LINE",
"88 -61 LINE",
"116 -15 LINE"
);
}
);
width = 166;
},
{
layerId = "40E32FB9-B6BE-48EB-82C7-9119AE8E729C";
paths = (
{
closed = 1;
nodes = (
"186 115 LINE",
"98 115 LINE",
"98 -39 LINE",
"56 -94 LINE",
"125 -147 LINE",
"186 -69 LINE"
);
}
);
width = 228;
},
{
associatedMasterId = "575D5349-E17C-4630-8554-E10C4C95202B";
layerId = "5499D732-9A41-41CA-8256-AB161D9ABCF4";
paths = (
{
closed = 1;
nodes = (
"47.5 85.5 LINE",
"26.5 85.5 LINE",
"26.5 25 LINE",
"-2.5 -27 LINE",
"24.5 -30.5 LINE",
"47.5 25 LINE"
);
}
);
width = 0;
}
);
note = quotesinglbase;
unicode = 201A;
},
{
color = 9;
glyphname = quotedblleft;
layers = (
{
components = (
{
name = quotesinglbase;
transform = "{1, 0, 0, 1, 79, 589}";
},
{
name = quotesinglbase;
transform = "{1, 0, 0, 1, -15, 589}";
}
);
layerId = "575D5349-E17C-4630-8554-E10C4C95202B";
width = 245;
},
{
components = (
{
name = quotesinglbase;
transform = "{1, 0, 0, 1, 143, 589}";
},
{
name = quotesinglbase;
transform = "{1, 0, 0, 1, -21, 589}";
}
);
layerId = "40E32FB9-B6BE-48EB-82C7-9119AE8E729C";
width = 379;
},
{
associatedMasterId = "575D5349-E17C-4630-8554-E10C4C95202B";
layerId = "5499D732-9A41-41CA-8256-AB161D9ABCF4";
paths = (
{
closed = 1;
nodes = (
"151 413.5 LINE",
"246 452.5 LINE",
"186 607.5 LINE",
"207.5 804.5 LINE",
"110.5 831 LINE",
"80.5 600 LINE"
);
},
{
closed = 1;
nodes = (
"53 413.5 LINE",
"148 452.5 LINE",
"88 607.5 LINE",
"109 804.5 LINE",
"13 831 LINE",
"-17.5 600 LINE"
);
}
);
width = 212;
}
);
note = quotedblleft;
unicode = 201C;
},
{
color = 9;
glyphname = quoteleft;
layers = (
{
components = (
{
name = quotesinglbase;
transform = "{1, 0, 0, 1, -15, 586}";
}
);
layerId = "575D5349-E17C-4630-8554-E10C4C95202B";
width = 151;
},
{
components = (
{
name = quotesinglbase;
transform = "{1, 0, 0, 1, -21, 585}";
}
);
layerId = "40E32FB9-B6BE-48EB-82C7-9119AE8E729C";
width = 215;
},
{
associatedMasterId = "575D5349-E17C-4630-8554-E10C4C95202B";
layerId = "5499D732-9A41-41CA-8256-AB161D9ABCF4";
paths = (
{
closed = 1;
nodes = (
"58.5 413.5 LINE",
"150.5 452.5 LINE",
"90.5 607.5 LINE",
"109 804.5 LINE",
"14.5 831 LINE",
"-12 600 LINE"
);
}
);
width = 119.5;
}
);
note = quoteleft;
unicode = 2018;
},
{
color = 9;
glyphname = guillemetleft;
layers = (
{
layerId = "575D5349-E17C-4630-8554-E10C4C95202B";
paths = (
{
closed = 1;
nodes = (
"229 287 LINE",
"474 129 LINE",
"495 164 LINE",
"290 299 LINE",
"495 431 LINE",
"474 467 LINE",
"229 311 LINE"
);
},
{
closed = 1;
nodes = (
"50 287 LINE",
"295 129 LINE",
"316 164 LINE",
"111 299 LINE",
"316 431 LINE",
"295 467 LINE",
"50 311 LINE"
);
}
);
width = 535;
},
{
layerId = "40E32FB9-B6BE-48EB-82C7-9119AE8E729C";
paths = (
{
closed = 1;
nodes = (
"351 279 LINE",
"619 113 LINE",
"668 189 LINE",
"498 299 LINE",
"668 406 LINE",
"619 483 LINE",
"351 319 LINE"
);
},
{
closed = 1;
nodes = (
"50 279 LINE",
"318 113 LINE",
"367 189 LINE",
"197 299 LINE",
"367 406 LINE",
"318 483 LINE",
"50 319 LINE"
);
}
);
width = 708;
},
{
associatedMasterId = "575D5349-E17C-4630-8554-E10C4C95202B";
layerId = "5499D732-9A41-41CA-8256-AB161D9ABCF4";
paths = (
{
closed = 1;
nodes = (
"186 299 LINE",
"408.5 446 LINE",
"401.5 461.5 LINE",
"157 299 LINE",
"401.5 134.5 LINE",
"408.5 149 LINE"
);
},
{
closed = 1;
nodes = (
"69 299 LINE",
"291.5 446 LINE",
"284.5 461.5 LINE",
"40 299 LINE",
"284.5 134.5 LINE",
"291.5 149 LINE"
);
}
);
width = 451;
}
);
note = guillemotleft;
unicode = 00AB;
},
{
color = 9;
glyphname = guilsinglleft;
layers = (
{
layerId = "575D5349-E17C-4630-8554-E10C4C95202B";
paths = (
{
closed = 1;
nodes = (
"50 287 LINE",
"295 129 LINE",
"316 164 LINE",
"111 299 LINE",
"316 431 LINE",
"295 467 LINE",
"50 311 LINE"
);
}
);
width = 356;
},
{
layerId = "40E32FB9-B6BE-48EB-82C7-9119AE8E729C";
paths = (
{
closed = 1;
nodes = (
"50 279 LINE",
"318 113 LINE",
"367 189 LINE",
"197 299 LINE",
"367 406 LINE",
"318 483 LINE",
"50 319 LINE"
);
}
);
width = 407;
},
{
associatedMasterId = "575D5349-E17C-4630-8554-E10C4C95202B";
layerId = "5499D732-9A41-41CA-8256-AB161D9ABCF4";
paths = (
{
closed = 1;
nodes = (
"72.5 299 LINE",
"313 446 LINE",
"302 461.5 LINE",
"35 299 LINE",
"303.5 134.5 LINE",
"313 149 LINE"
);
}
);
width = 353;
}
);
note = guilsinglleft;
unicode = 2039;
},
{
color = 9;
glyphname = quotedbl;
layers = (
{
layerId = "575D5349-E17C-4630-8554-E10C4C95202B";
paths = (
{
closed = 1;
nodes = (
"201 700 LINE",
"155 700 LINE",
"155 478 LINE",
"201 478 LINE"
);
},
{
closed = 1;
nodes = (
"96 700 LINE",
"50 700 LINE",
"50 478 LINE",
"96 478 LINE"
);
}
);
width = 251;
},
{
layerId = "40E32FB9-B6BE-48EB-82C7-9119AE8E729C";
paths = (
{
closed = 1;
nodes = (
"288 700 LINE",
"202 700 LINE",
"202 478 LINE",
"288 478 LINE"
);
},
{
closed = 1;
nodes = (
"136 699 LINE",
"50 699 LINE",
"50 477 LINE",
"136 477 LINE"
);
}
);
width = 338;
},
{
associatedMasterId = "575D5349-E17C-4630-8554-E10C4C95202B";
layerId = "5499D732-9A41-41CA-8256-AB161D9ABCF4";
paths = (
{
closed = 1;
nodes = (
"275 700 LINE",
"249 700 LINE",
"249 478 LINE",
"275 478 LINE"
);
},
{
closed = 1;
nodes = (
"-53.5 700.5 LINE",
"-79.5 700.5 LINE",
"-79.5 478.5 LINE",
"-53.5 478.5 LINE"
);
}
);
width = 233;
}
);
note = quotedbl;
unicode = 0022;
},
{
color = 9;
glyphname = quotesingle;
layers = (
{
layerId = "575D5349-E17C-4630-8554-E10C4C95202B";
paths = (
{
closed = 1;
nodes = (
"96 700 LINE",
"50 700 LINE",
"50 478 LINE",
"96 478 LINE"
);
}
);
width = 146;
},
{
layerId = "40E32FB9-B6BE-48EB-82C7-9119AE8E729C";
paths = (
{
closed = 1;
nodes = (
"136 700 LINE",
"50 700 LINE",
"50 478 LINE",
"136 478 LINE"
);
}
);
width = 186;
},
{
associatedMasterId = "575D5349-E17C-4630-8554-E10C4C95202B";
layerId = "5499D732-9A41-41CA-8256-AB161D9ABCF4";
paths = (
{
closed = 1;
nodes = (
"33.5 700 LINE",
"7.5 700 LINE",
"7.5 478 LINE",
"33.5 478 LINE"
);
}
);
width = 78.5;
}
);
note = quotesingle;
unicode = 0027;
},
{
glyphname = .notdef;
layers = (
{
layerId = "40E32FB9-B6BE-48EB-82C7-9119AE8E729C";
paths = (
{
closed = 1;
nodes = (
"349 -60 LINE",
"117 -60 LINE",
"117 596 LINE",
"349 596 LINE",
"349 664 LINE",
"50 664 LINE",
"50 -128 LINE",
"349 -128 LINE"
);
},
{
closed = 1;
nodes = (
"529 -128 LINE",
"529 664 LINE",
"320 664 LINE",
"320 596 LINE",
"462 596 LINE",
"462 -60 LINE",
"320 -60 LINE",
"320 -128 LINE"
);
}
);
width = 579;
},
{
associatedMasterId = "575D5349-E17C-4630-8554-E10C4C95202B";
layerId = "E1ADDF7C-A343-4E6D-B630-136BDFE64807";
paths = (
{
closed = 1;
nodes = (
"366 -38 LINE",
"132 -38 LINE",
"132 574 LINE",
"366 574 LINE",
"366 664 LINE",
"50 664 LINE",
"50 -128 LINE",
"366 -128 LINE"
);
},
{
closed = 1;
nodes = (
"529 -128 LINE",
"529 664 LINE",
"320 664 LINE",
"320 574 LINE",
"447 574 LINE",
"447 -38 LINE",
"320 -38 LINE",
"320 -128 LINE"
);
}
);
width = 579;
},
{
layerId = "575D5349-E17C-4630-8554-E10C4C95202B";
paths = (
{
closed = 1;
nodes = (
"349 -84 LINE",
"98 -84 LINE",
"98 620 LINE",
"349 620 LINE",
"349 664 LINE",
"50 664 LINE",
"50 -128 LINE",
"349 -128 LINE"
);
},
{
closed = 1;
nodes = (
"529 -128 LINE",
"529 664 LINE",
"320 664 LINE",
"320 620 LINE",
"481 620 LINE",
"481 -84 LINE",
"320 -84 LINE",
"320 -128 LINE"
);
}
);
width = 579;
}
);
},
{
color = 9;
glyphname = cent;
layers = (
{
layerId = "575D5349-E17C-4630-8554-E10C4C95202B";
paths = (
{
closed = 1;
nodes = (
"516 151 LINE",
"475 151 LINE",
"475 96 LINE",
"408 40 LINE",
"298 40 LINE",
"298 432 LINE",
"408 432 LINE",
"475 376 LINE",
"475 321 LINE",
"516 321 LINE",
"516 395 LINE",
"422 472 LINE",
"298 472 LINE",
"298 541 LINE",
"258 541 LINE",
"258 472 LINE",
"144 472 LINE",
"40 395 LINE",
"40 77 LINE",
"144 0 LINE",
"258 0 LINE",
"258 -70 LINE",
"298 -70 LINE",
"298 0 LINE",
"422 0 LINE",
"516 77 LINE"
);
},
{
closed = 1;
nodes = (
"157 40 LINE",
"81 97 LINE",
"81 375 LINE",
"157 432 LINE",
"258 432 LINE",
"258 40 LINE"
);
}
);
width = 556;
},
{
layerId = "40E32FB9-B6BE-48EB-82C7-9119AE8E729C";
paths = (
{
closed = 1;
nodes = (
"516 176 LINE",
"424 176 LINE",
"424 128 LINE",
"382 92 LINE",
"324 92 LINE",
"324 390 LINE",
"382 390 LINE",
"424 354 LINE",
"424 305 LINE",
"516 305 LINE",
"516 398 LINE",
"415 483 LINE",
"324 483 LINE",
"324 546 LINE",
"232 546 LINE",
"232 483 LINE",
"150 483 LINE",
"40 400 LINE",
"40 82 LINE",
"150 -1 LINE",
"232 -1 LINE",
"232 -65 LINE",
"324 -65 LINE",
"324 -1 LINE",
"415 -1 LINE",
"516 84 LINE"
);
},
{
closed = 1;
nodes = (
"181 92 LINE",
"132 129 LINE",
"132 353 LINE",
"181 390 LINE",
"232 390 LINE",
"232 92 LINE"
);
}
);
width = 556;
},
{
associatedMasterId = "575D5349-E17C-4630-8554-E10C4C95202B";
layerId = "5499D732-9A41-41CA-8256-AB161D9ABCF4";
paths = (
{
closed = 1;
nodes = (
"516.5 130.5 LINE",
"501 130.5 LINE",
"501 80 LINE",
"421.5 14 LINE",
"285.5 14 LINE",
"285.5 453 LINE",
"421.5 453 LINE",
"501 387 LINE",
"501 336.5 LINE",
"516.5 336.5 LINE",
"516.5 393.5 LINE",
"426 466.5 LINE",
"285.5 466.5 LINE",
"285.5 538.5 LINE",
"271.5 538.5 LINE",
"271.5 466.5 LINE",
"141.5 466.5 LINE",
"40.5 392.5 LINE",
"40.5 74.5 LINE",
"141.5 0.5 LINE",
"271.5 0.5 LINE",
"271.5 -72.5 LINE",
"285.5 -72.5 LINE",
"285.5 0.5 LINE",
"426 0.5 LINE",
"516.5 73.5 LINE"
);
},
{
closed = 1;
nodes = (
"145.5 14 LINE",
"56 81 LINE",
"56 386 LINE",
"145.5 453 LINE",
"271.5 453 LINE",
"271.5 14 LINE"
);
}
);
width = 556;
}
);
note = cent;
unicode = 00A2;
},
{
color = 9;
glyphname = currency;
layers = (
{
layerId = "575D5349-E17C-4630-8554-E10C4C95202B";
paths = (
{
closed = 1;
nodes = (
"498 97 LINE",
"531 122 LINE",
"531 444 LINE",
"498 469 LINE",
"556 531 LINE",
"527 558 LINE",
"466 493 LINE",
"427 522 LINE",
"168 522 LINE",
"131 493 LINE",
"69 559 LINE",
"40 531 LINE",
"98 469 LINE",
"64 444 LINE",
"64 122 LINE",
"98 97 LINE",
"40 35 LINE",
"69 8 LINE",
"131 73 LINE",
"168 45 LINE",
"427 45 LINE",
"465 73 LINE",
"527 7 LINE",
"556 34 LINE"
);
},
{
closed = 1;
nodes = (
"415 86 LINE",
"181 86 LINE",
"105 142 LINE",
"105 424 LINE",
"181 481 LINE",
"415 481 LINE",
"491 424 LINE",
"491 142 LINE"
);
}
);
width = 596;
},
{
layerId = "40E32FB9-B6BE-48EB-82C7-9119AE8E729C";
paths = (
{
closed = 1;
nodes = (
"532 112 LINE",
"548 124 LINE",
"548 442 LINE",
"532 454 LINE",
"582 508 LINE",
"514 571 LINE",
"458 510 LINE",
"436 526 LINE",
"185 526 LINE",
"165 510 LINE",
"108 571 LINE",
"40 508 LINE",
"90 454 LINE",
"73 442 LINE",
"73 124 LINE",
"90 112 LINE",
"40 58 LINE",
"108 -5 LINE",
"165 56 LINE",
"185 41 LINE",
"436 41 LINE",
"457 56 LINE",
"514 -6 LINE",
"582 57 LINE"
);
},
{
closed = 1;
nodes = (
"406 134 LINE",
"216 134 LINE",
"167 170 LINE",
"167 395 LINE",
"216 432 LINE",
"406 432 LINE",
"455 395 LINE",
"455 170 LINE"
);
}
);
width = 622;
},
{
associatedMasterId = "575D5349-E17C-4630-8554-E10C4C95202B";
layerId = "5499D732-9A41-41CA-8256-AB161D9ABCF4";
paths = (
{
closed = 1;
nodes = (
"484 89.5 LINE",
"525.5 121 LINE",
"525.5 445 LINE",
"484 476.5 LINE",
"546 542.5 LINE",
"536.5 551.5 LINE",
"473 484.5 LINE",
"425.5 520 LINE",
"162.5 520 LINE",
"117 484.5 LINE",
"52.5 553 LINE",
"43 542.5 LINE",
"105 476.5 LINE",
"62.5 445 LINE",
"62.5 121 LINE",
"105 89.5 LINE",
"43 23.5 LINE",
"52.5 14.5 LINE",
"117 81.5 LINE",
"162.5 47 LINE",
"425.5 47 LINE",
"472 81.5 LINE",
"536.5 13.5 LINE",
"546 22.5 LINE"
);
},
{
closed = 1;
nodes = (
"422.5 62 LINE",
"166.5 62 LINE",
"77 128 LINE",
"77 438.5 LINE",
"166.5 505.5 LINE",
"422.5 505.5 LINE",
"512 438.5 LINE",
"512 128 LINE"
);
}
);
width = 589;
}
);
note = currency;
unicode = 00A4;
},
{
color = 9;
glyphname = dollar;
layers = (
{
layerId = "575D5349-E17C-4630-8554-E10C4C95202B";
paths = (
{
closed = 1;
nodes = (
"630 283 LINE",
"525 370 LINE",
"355 370 LINE",
"355 659 LINE",
"468 659 LINE",
"590 555 LINE",
"590 499 LINE",
"630 499 LINE",
"630 573 LINE",
"483 698 LINE",
"355 698 LINE",
"355 768 LINE",
"315 768 LINE",
"315 698 LINE",
"189 698 LINE",
"40 573 LINE",
"40 418 LINE",
"145 330 LINE",
"315 330 LINE",
"315 42 LINE",
"202 42 LINE",
"80 145 LINE",
"80 213 LINE",
"40 213 LINE",
"40 128 LINE",
"187 2 LINE",
"315 2 LINE",
"315 -67 LINE",
"355 -67 LINE",
"355 2 LINE",
"481 2 LINE",
"630 127 LINE"
);
},
{
closed = 1;
nodes = (
"158 370 LINE",
"80 436 LINE",
"80 555 LINE",
"204 659 LINE",
"315 659 LINE",
"315 370 LINE"
);
},
{
closed = 1;
nodes = (
"466 42 LINE",
"355 42 LINE",
"355 330 LINE",
"511 330 LINE",
"590 265 LINE",
"590 146 LINE"
);
}
);
width = 670;
},
{
layerId = "40E32FB9-B6BE-48EB-82C7-9119AE8E729C";
paths = (
{
closed = 1;
nodes = (
"630 301 LINE",
"517 397 LINE",
"382 397 LINE",
"382 609 LINE",
"445 609 LINE",
"537 528 LINE",
"537 480 LINE",
"630 480 LINE",
"630 571 LINE",
"479 703 LINE",
"382 703 LINE",
"382 768 LINE",
"288 768 LINE",
"288 703 LINE",
"193 703 LINE",
"40 571 LINE",
"40 400 LINE",
"153 303 LINE",
"288 303 LINE",
"288 92 LINE",
"225 92 LINE",
"133 172 LINE",
"133 232 LINE",
"40 232 LINE",
"40 130 LINE",
"191 -2 LINE",
"288 -2 LINE",
"288 -67 LINE",
"382 -67 LINE",
"382 -2 LINE",
"477 -2 LINE",
"630 129 LINE"
);
},
{
closed = 1;
nodes = (
"186 397 LINE",
"133 444 LINE",
"133 528 LINE",
"227 609 LINE",
"288 609 LINE",
"288 397 LINE"
);
},
{
closed = 1;
nodes = (
"443 92 LINE",
"382 92 LINE",
"382 303 LINE",
"484 303 LINE",
"537 257 LINE",
"537 173 LINE"
);
}
);
width = 670;
},
{
associatedMasterId = "575D5349-E17C-4630-8554-E10C4C95202B";
layerId = "5499D732-9A41-41CA-8256-AB161D9ABCF4";
paths = (
{
closed = 1;
nodes = (
"630 274 LINE",
"529 356.5 LINE",
"341.5 356.5 LINE",
"341.5 684 LINE",
"479.5 684 LINE",
"616.5 568.5 LINE",
"616.5 518.5 LINE",
"630 518.5 LINE",
"630 574 LINE",
"485 695.5 LINE",
"341.5 695.5 LINE",
"341.5 768 LINE",
"328.5 768 LINE",
"328.5 695.5 LINE",
"187 695.5 LINE",
"40 574 LINE",
"40 427 LINE",
"141 343.5 LINE",
"328.5 343.5 LINE",
"328.5 17 LINE",
"190.5 17 LINE",
"53.5 131.5 LINE",
"53.5 193.5 LINE",
"40 193.5 LINE",
"40 127 LINE",
"185 4 LINE",
"328.5 4 LINE",
"328.5 -67 LINE",
"341.5 -67 LINE",
"341.5 4 LINE",
"483 4 LINE",
"630 126 LINE"
);
},
{
closed = 1;
nodes = (
"144 356.5 LINE",
"53.5 432 LINE",
"53.5 568.5 LINE",
"192.5 684 LINE",
"328.5 684 LINE",
"328.5 356.5 LINE"
);
},
{
closed = 1;
nodes = (
"477.5 17 LINE",
"341.5 17 LINE",
"341.5 343.5 LINE",
"524.5 343.5 LINE",
"616.5 269 LINE",
"616.5 132.5 LINE"
);
}
);
width = 670;
}
);
note = dollar;
unicode = 0024;
},
{
color = 9;
glyphname = euro;
layers = (
{
layerId = "575D5349-E17C-4630-8554-E10C4C95202B";
paths = (
{
closed = 1;
nodes = (
"631 702 LINE",
"218 702 LINE",
"124 579 LINE",
"124 461 LINE",
"40 461 LINE",
"40 421 LINE",
"124 421 LINE",
"124 291 LINE",
"40 291 LINE",
"40 251 LINE",
"124 251 LINE",
"124 124 LINE",
"218 0 LINE",
"630 0 LINE",
"710 106 LINE",
"679 129 LINE",
"611 40 LINE",
"237 40 LINE",
"163 137 LINE",
"163 251 LINE",
"509 251 LINE",
"509 291 LINE",
"163 291 LINE",
"163 421 LINE",
"509 421 LINE",
"509 461 LINE",
"163 461 LINE",
"163 565 LINE",
"237 662 LINE",
"612 662 LINE",
"680 572 LINE",
"712 596 LINE"
);
}
);
width = 752;
},
{
layerId = "40E32FB9-B6BE-48EB-82C7-9119AE8E729C";
paths = (
{
closed = 1;
nodes = (
"624 700 LINE",
"218 700 LINE",
"117 568 LINE",
"117 490 LINE",
"40 490 LINE",
"40 396 LINE",
"117 396 LINE",
"117 316 LINE",
"40 316 LINE",
"40 222 LINE",
"117 222 LINE",
"117 133 LINE",
"218 0 LINE",
"623 0 LINE",
"722 131 LINE",
"648 188 LINE",
"577 94 LINE",
"264 94 LINE",
"210 164 LINE",
"210 222 LINE",
"526 222 LINE",
"526 316 LINE",
"210 316 LINE",
"210 396 LINE",
"526 396 LINE",
"526 490 LINE",
"210 490 LINE",
"210 536 LINE",
"264 606 LINE",
"578 606 LINE",
"649 512 LINE",
"724 569 LINE"
);
}
);
width = 764;
},
{
associatedMasterId = "575D5349-E17C-4630-8554-E10C4C95202B";
layerId = "5499D732-9A41-41CA-8256-AB161D9ABCF4";
width = 828;
}
);
note = Euro;
unicode = 20AC;
},
{
glyphname = florin;
layers = (
{
layerId = "575D5349-E17C-4630-8554-E10C4C95202B";
paths = (
{
closed = 1;
nodes = (
"141 0 LINE",
"253 283 LINE",
"253 427 LINE",
"387 427 LINE",
"387 466 LINE",
"253 466 LINE",
"253 562 LINE",
"330 660 LINE",
"449 660 LINE",
"449 699 LINE",
"310 699 LINE",
"212 576 LINE",
"212 466 LINE",
"83 466 LINE",
"83 427 LINE",
"212 427 LINE",
"212 290 LINE",
"113 39 LINE",
"20 39 LINE",
"20 0 LINE"
);
}
);
width = 489;
},
{
layerId = "40E32FB9-B6BE-48EB-82C7-9119AE8E729C";
paths = (
{
closed = 1;
nodes = (
"204 0 LINE",
"302 283 LINE",
"302 392 LINE",
"416 392 LINE",
"416 485 LINE",
"302 485 LINE",
"302 535 LINE",
"354 606 LINE",
"469 606 LINE",
"469 699 LINE",
"309 699 LINE",
"211 567 LINE",
"211 485 LINE",
"101 485 LINE",
"101 392 LINE",
"211 392 LINE",
"211 300 LINE",
"132 84 LINE",
"20 84 LINE",
"20 0 LINE"
);
}
);
width = 509;
}
);
rightMetricsKey = sterling;
unicode = 0192;
},
{
color = 9;
glyphname = sterling;
layers = (
{
layerId = "575D5349-E17C-4630-8554-E10C4C95202B";
paths = (
{
closed = 1;
nodes = (
"422 39 LINE",
"114 39 LINE",
"210 283 LINE",
"210 427 LINE",
"344 427 LINE",
"344 466 LINE",
"210 466 LINE",
"210 562 LINE",
"287 660 LINE",
"406 660 LINE",
"406 699 LINE",
"267 699 LINE",
"169 576 LINE",
"169 466 LINE",
"40 466 LINE",
"40 427 LINE",
"169 427 LINE",
"169 290 LINE",
"55 0 LINE",
"422 0 LINE"
);
}
);
width = 462;
},
{
layerId = "40E32FB9-B6BE-48EB-82C7-9119AE8E729C";
paths = (
{
closed = 1;
nodes = (
"402 84 LINE",
"171 84 LINE",
"241 283 LINE",
"241 392 LINE",
"355 392 LINE",
"355 485 LINE",
"241 485 LINE",
"241 535 LINE",
"293 606 LINE",
"408 606 LINE",
"408 699 LINE",
"248 699 LINE",
"150 567 LINE",
"150 485 LINE",
"40 485 LINE",
"40 392 LINE",
"150 392 LINE",
"150 300 LINE",
"40 0 LINE",
"402 0 LINE"
);
}
);
width = 448;
},
{
associatedMasterId = "575D5349-E17C-4630-8554-E10C4C95202B";
layerId = "5499D732-9A41-41CA-8256-AB161D9ABCF4";
paths = (
{
closed = 1;
nodes = (
"422 12 LINE",
"85.5 12 LINE",
"194.5 283 LINE",
"194.5 444.5 LINE",
"338.5 444.5 LINE",
"338.5 456.5 LINE",
"194.5 456.5 LINE",
"194.5 575.5 LINE",
"284 687 LINE",
"405 687 LINE",
"405 699 LINE",
"276.5 699 LINE",
"178.5 580.5 LINE",
"178.5 456.5 LINE",
"40 456.5 LINE",
"40 444.5 LINE",
"178.5 444.5 LINE",
"178.5 285 LINE",
"62.5 0 LINE",
"422 0 LINE"
);
}
);
width = 462;
}
);
note = sterling;
unicode = 00A3;
},
{
color = 9;
glyphname = yen;
layers = (
{
layerId = "575D5349-E17C-4630-8554-E10C4C95202B";
paths = (
{
closed = 1;
nodes = (
"594 698 LINE",
"554 698 LINE",
"554 650 LINE",
"326 295 LINE",
"80 651 LINE",
"80 698 LINE",
"40 698 LINE",
"40 640 LINE",
"299 260 LINE",
"178 260 LINE",
"178 220 LINE",
"307 220 LINE",
"307 167 LINE",
"178 167 LINE",
"178 128 LINE",
"307 128 LINE",
"307 0 LINE",
"347 0 LINE",
"347 128 LINE",
"476 128 LINE",
"476 167 LINE",
"347 167 LINE",
"347 220 LINE",
"476 220 LINE",
"476 260 LINE",
"352 260 LINE",
"594 638 LINE"
);
}
);
width = 634;
},
{
layerId = "40E32FB9-B6BE-48EB-82C7-9119AE8E729C";
paths = (
{
closed = 1;
nodes = (
"594 700 LINE",
"501 700 LINE",
"501 635 LINE",
"324 351 LINE",
"133 637 LINE",
"133 700 LINE",
"40 700 LINE",
"40 609 LINE",
"248 298 LINE",
"164 298 LINE",
"164 204 LINE",
"280 204 LINE",
"280 165 LINE",
"164 165 LINE",
"164 72 LINE",
"280 72 LINE",
"280 0 LINE",
"372 0 LINE",
"372 72 LINE",
"488 72 LINE",
"488 165 LINE",
"372 165 LINE",
"372 204 LINE",
"488 204 LINE",
"488 298 LINE",
"400 298 LINE",
"594 608 LINE"
);
}
);
width = 634;
},
{
associatedMasterId = "575D5349-E17C-4630-8554-E10C4C95202B";
layerId = "5499D732-9A41-41CA-8256-AB161D9ABCF4";
width = 634;
}
);
note = yen;
unicode = 00A5;
},
{
color = 9;
glyphname = plus;
layers = (
{
layerId = "575D5349-E17C-4630-8554-E10C4C95202B";
paths = (
{
closed = 1;
nodes = (
"522 317 LINE",
"301 317 LINE",
"301 538 LINE",
"261 538 LINE",
"261 317 LINE",
"40 317 LINE",
"40 277 LINE",
"261 277 LINE",
"261 56 LINE",
"301 56 LINE",
"301 277 LINE",
"522 277 LINE"
);
}
);
width = 562;
},
{
layerId = "40E32FB9-B6BE-48EB-82C7-9119AE8E729C";
paths = (
{
closed = 1;
nodes = (
"522 343 LINE",
"327 343 LINE",
"327 538 LINE",
"235 538 LINE",
"235 343 LINE",
"40 343 LINE",
"40 251 LINE",
"235 251 LINE",
"235 56 LINE",
"327 56 LINE",
"327 251 LINE",
"522 251 LINE"
);
}
);
width = 562;
},
{
associatedMasterId = "575D5349-E17C-4630-8554-E10C4C95202B";
layerId = "5499D732-9A41-41CA-8256-AB161D9ABCF4";
paths = (
{
closed = 1;
nodes = (
"522 304 LINE",
"288 304 LINE",
"288 538 LINE",
"274 538 LINE",
"274 304 LINE",
"40 304 LINE",
"40 290 LINE",
"274 290 LINE",
"274 56 LINE",
"288 56 LINE",
"288 290 LINE",
"522 290 LINE"
);
}
);
width = 562;
}
);
note = plus;
unicode = 002B;
},
{
color = 9;
glyphname = minus;
layers = (
{
layerId = "575D5349-E17C-4630-8554-E10C4C95202B";
paths = (
{
closed = 1;
nodes = (
"40 320 LINE",
"40 279 LINE",
"517 279 LINE",
"517 320 LINE"
);
}
);
width = 557;
},
{
layerId = "40E32FB9-B6BE-48EB-82C7-9119AE8E729C";
paths = (
{
closed = 1;
nodes = (
"40 346 LINE",
"40 256 LINE",
"522 256 LINE",
"522 346 LINE"
);
}
);
width = 562;
},
{
associatedMasterId = "575D5349-E17C-4630-8554-E10C4C95202B";
layerId = "5499D732-9A41-41CA-8256-AB161D9ABCF4";
paths = (
{
closed = 1;
nodes = (
"-201 307 LINE",
"40 245.5 LINE",
"755.5 290.5 LINE",
"514.5 352 LINE"
);
}
);
width = 554.5;
}
);
note = minus;
unicode = 2212;
},
{
color = 9;
glyphname = multiply;
layers = (
{
layerId = "575D5349-E17C-4630-8554-E10C4C95202B";
paths = (
{
closed = 1;
nodes = (
"257 299 LINE",
"415 457 LINE",
"386 486 LINE",
"228 328 LINE",
"69 486 LINE",
"40 457 LINE",
"199 299 LINE",
"40 140 LINE",
"69 111 LINE",
"228 269 LINE",
"386 111 LINE",
"415 140 LINE"
);
}
);
width = 455;
},
{
layerId = "40E32FB9-B6BE-48EB-82C7-9119AE8E729C";
paths = (
{
closed = 1;
nodes = (
"305 299 LINE",
"441 435 LINE",
"377 499 LINE",
"241 363 LINE",
"104 499 LINE",
"40 434 LINE",
"177 299 LINE",
"40 162 LINE",
"104 98 LINE",
"241 234 LINE",
"377 98 LINE",
"441 162 LINE"
);
}
);
width = 481;
},
{
associatedMasterId = "575D5349-E17C-4630-8554-E10C4C95202B";
layerId = "5499D732-9A41-41CA-8256-AB161D9ABCF4";
paths = (
{
closed = 1;
nodes = (
"236 299 LINE",
"405 468 LINE",
"393.5 479.5 LINE",
"224.5 310.5 LINE",
"54.5 479.5 LINE",
"43 468.5 LINE",
"213 299 LINE",
"43 129 LINE",
"54.5 117.5 LINE",
"224.5 286.5 LINE",
"393.5 117.5 LINE",
"405 129 LINE"
);
}
);
width = 448;
}
);
note = multiply;
unicode = 00D7;
},
{
color = 9;
glyphname = divide;
layers = (
{
layerId = "575D5349-E17C-4630-8554-E10C4C95202B";
paths = (
{
closed = 1;
nodes = (
"522 280 LINE",
"522 322 LINE",
"40 322 LINE",
"40 280 LINE"
);
},
{
closed = 1;
nodes = (
"316 193 LINE",
"316 235 LINE",
"246 235 LINE",
"246 193 LINE"
);
},
{
closed = 1;
nodes = (
"316 367 LINE",
"316 409 LINE",
"246 409 LINE",
"246 367 LINE"
);
}
);
width = 562;
},
{
layerId = "40E32FB9-B6BE-48EB-82C7-9119AE8E729C";
paths = (
{
closed = 1;
nodes = (
"522 256 LINE",
"522 346 LINE",
"40 346 LINE",
"40 256 LINE"
);
},
{
closed = 1;
nodes = (
"339 95 LINE",
"339 185 LINE",
"223 185 LINE",
"223 95 LINE"
);
},
{
closed = 1;
nodes = (
"339 415 LINE",
"339 505 LINE",
"223 505 LINE",
"223 415 LINE"
);
}
);
width = 562;
},
{
associatedMasterId = "575D5349-E17C-4630-8554-E10C4C95202B";
layerId = "5499D732-9A41-41CA-8256-AB161D9ABCF4";
paths = (
{
closed = 1;
nodes = (
"228 440.5 LINE",
"334 440.5 LINE",
"334 422.5 LINE",
"228 422.5 LINE"
);
},
{
closed = 1;
nodes = (
"608.5 400.5 LINE",
"-46.5 400.5 LINE",
"-46.5 382.5 LINE",
"608.5 382.5 LINE"
);
},
{
closed = 1;
nodes = (
"314.5 89 LINE",
"247.5 89 LINE",
"247.5 71 LINE",
"314.5 71 LINE"
);
}
);
width = 562;
}
);
note = divide;
unicode = 00F7;
},
{
color = 9;
glyphname = equal;
layers = (
{
layerId = "575D5349-E17C-4630-8554-E10C4C95202B";
paths = (
{
closed = 1;
nodes = (
"522 392 LINE",
"40 392 LINE",
"40 347 LINE",
"522 347 LINE"
);
},
{
closed = 1;
nodes = (
"522 250 LINE",
"40 250 LINE",
"40 205 LINE",
"522 205 LINE"
);
}
);
width = 562;
},
{
layerId = "40E32FB9-B6BE-48EB-82C7-9119AE8E729C";
paths = (
{
closed = 1;
nodes = (
"522 428 LINE",
"40 428 LINE",
"40 343 LINE",
"522 343 LINE"
);
},
{
closed = 1;
nodes = (
"522 257 LINE",
"40 257 LINE",
"40 172 LINE",
"522 172 LINE"
);
}
);
width = 562;
},
{
associatedMasterId = "575D5349-E17C-4630-8554-E10C4C95202B";
layerId = "5499D732-9A41-41CA-8256-AB161D9ABCF4";
paths = (
{
closed = 1;
nodes = (
"522 374 LINE",
"40 374 LINE",
"40 349 LINE",
"522 349 LINE"
);
},
{
closed = 1;
nodes = (
"522 246.5 LINE",
"40 246.5 LINE",
"40 221.5 LINE",
"522 221.5 LINE"
);
}
);
width = 562;
}
);
note = equal;
unicode = 003D;
},
{
color = 9;
glyphname = notequal;
layers = (
{
layerId = "575D5349-E17C-4630-8554-E10C4C95202B";
paths = (
{
closed = 1;
nodes = (
"459 451 LINE",
"428 483 LINE",
"87 142 LINE",
"118 110 LINE"
);
},
{
closed = 1;
nodes = (
"522 225 LINE",
"522 270 LINE",
"40 270 LINE",
"40 225 LINE"
);
},
{
closed = 1;
nodes = (
"522 327 LINE",
"522 372 LINE",
"40 372 LINE",
"40 327 LINE"
);
}
);
width = 562;
},
{
layerId = "40E32FB9-B6BE-48EB-82C7-9119AE8E729C";
paths = (
{
closed = 1;
nodes = (
"498 453 LINE",
"435 516 LINE",
"57 137 LINE",
"120 74 LINE"
);
},
{
closed = 1;
nodes = (
"522 181 LINE",
"522 271 LINE",
"40 271 LINE",
"40 181 LINE"
);
},
{
closed = 1;
nodes = (
"522 328 LINE",
"522 418 LINE",
"40 418 LINE",
"40 328 LINE"
);
}
);
width = 562;
},
{
associatedMasterId = "575D5349-E17C-4630-8554-E10C4C95202B";
layerId = "5499D732-9A41-41CA-8256-AB161D9ABCF4";
paths = (
{
closed = 1;
nodes = (
"522 452.5 LINE",
"40 452.5 LINE",
"40 430 LINE",
"522 430 LINE"
);
},
{
closed = 1;
nodes = (
"522 166 LINE",
"40 166 LINE",
"40 143.5 LINE",
"522 143.5 LINE"
);
},
{
closed = 1;
nodes = (
"582 687.5 LINE",
"-118.5 -13.5 LINE",
"-40.5 -93 LINE",
"660 608 LINE"
);
}
);
width = 562.5;
}
);
note = notequal;
unicode = 2260;
},
{
color = 9;
glyphname = greater;
layers = (
{
layerId = "575D5349-E17C-4630-8554-E10C4C95202B";
paths = (
{
closed = 1;
nodes = (
"408 322 LINE",
"81 550 LINE",
"40 550 LINE",
"40 530 LINE",
"367 302 LINE",
"40 74 LINE",
"40 54 LINE",
"81 54 LINE",
"408 281 LINE"
);
}
);
width = 448;
},
{
layerId = "40E32FB9-B6BE-48EB-82C7-9119AE8E729C";
paths = (
{
closed = 1;
nodes = (
"408 335 LINE",
"131 540 LINE",
"40 540 LINE",
"40 493 LINE",
"298 302 LINE",
"40 111 LINE",
"40 64 LINE",
"131 64 LINE",
"408 268 LINE"
);
}
);
width = 448;
},
{
associatedMasterId = "575D5349-E17C-4630-8554-E10C4C95202B";
layerId = "5499D732-9A41-41CA-8256-AB161D9ABCF4";
paths = (
{
closed = 1;
nodes = (
"408 315.5 LINE",
"56 555 LINE",
"56 592 LINE",
"40 592 LINE",
"40 548.5 LINE",
"401.5 302 LINE",
"40 55.5 LINE",
"40 12 LINE",
"56 12 LINE",
"56 49 LINE",
"408 287.5 LINE"
);
}
);
width = 448;
}
);
note = greater;
unicode = 003E;
},
{
color = 9;
glyphname = less;
layers = (
{
components = (
{
name = greater;
transform = "{-1, 0, 0, 1, 448, 0}";
}
);
layerId = "575D5349-E17C-4630-8554-E10C4C95202B";
width = 448;
},
{
components = (
{
name = greater;
transform = "{-1, 0, 0, 1, 448, 0}";
}
);
layerId = "40E32FB9-B6BE-48EB-82C7-9119AE8E729C";
width = 448;
},
{
associatedMasterId = "575D5349-E17C-4630-8554-E10C4C95202B";
layerId = "5499D732-9A41-41CA-8256-AB161D9ABCF4";
paths = (
{
closed = 1;
nodes = (
"408 55.5 LINE",
"46.5 302 LINE",
"408 548.5 LINE",
"408 592 LINE",
"392 592 LINE",
"392 555 LINE",
"40 315.5 LINE",
"40 287.5 LINE",
"392 49 LINE",
"392 12 LINE",
"408 12 LINE"
);
}
);
width = 448;
}
);
note = less;
unicode = 003C;
},
{
color = 9;
glyphname = greaterequal;
layers = (
{
guideLines = (
{
angle = 90;
position = "{408, 302}";
}
);
layerId = "575D5349-E17C-4630-8554-E10C4C95202B";
paths = (
{
closed = 1;
nodes = (
"264 42 LINE",
"264 83 LINE",
"110 83 LINE",
"408 290 LINE",
"408 331 LINE",
"81 559 LINE",
"40 559 LINE",
"40 539 LINE",
"367 311 LINE",
"40 83 LINE",
"40 42 LINE"
);
}
);
width = 458;
},
{
guideLines = (
{
angle = 90;
position = "{408, 302}";
}
);
layerId = "40E32FB9-B6BE-48EB-82C7-9119AE8E729C";
paths = (
{
closed = 1;
nodes = (
"312 36 LINE",
"312 128 LINE",
"185 128 LINE",
"408 292 LINE",
"408 359 LINE",
"131 564 LINE",
"40 564 LINE",
"40 517 LINE",
"298 326 LINE",
"40 135 LINE",
"40 36 LINE"
);
}
);
width = 458;
},
{
associatedMasterId = "575D5349-E17C-4630-8554-E10C4C95202B";
layerId = "5499D732-9A41-41CA-8256-AB161D9ABCF4";
paths = (
{
closed = 1;
nodes = (
"485 281 LINE",
"485 303.5 LINE",
"35 450.5 LINE",
"35 435.5 LINE",
"472.5 292.5 LINE",
"35 153 LINE",
"35 138 LINE"
);
},
{
closed = 1;
nodes = (
"485 58.5 LINE",
"485 74 LINE",
"35 74 LINE",
"35 58.5 LINE"
);
}
);
width = 525;
}
);
note = greaterequal;
unicode = 2265;
},
{
color = 9;
glyphname = plusminus;
layers = (
{
layerId = "575D5349-E17C-4630-8554-E10C4C95202B";
paths = (
{
closed = 1;
nodes = (
"522 323 LINE",
"301 323 LINE",
"301 544 LINE",
"261 544 LINE",
"261 323 LINE",
"40 323 LINE",
"40 283 LINE",
"261 283 LINE",
"261 205 LINE",
"301 205 LINE",
"301 283 LINE",
"522 283 LINE"
);
},
{
closed = 1;
nodes = (
"522 134 LINE",
"40 134 LINE",
"40 92 LINE",
"522 92 LINE"
);
}
);
width = 562;
},
{
layerId = "40E32FB9-B6BE-48EB-82C7-9119AE8E729C";
paths = (
{
closed = 1;
nodes = (
"522 380 LINE",
"327 380 LINE",
"327 575 LINE",
"235 575 LINE",
"235 380 LINE",
"40 380 LINE",
"40 288 LINE",
"235 288 LINE",
"235 229 LINE",
"327 229 LINE",
"327 288 LINE",
"522 288 LINE"
);
},
{
closed = 1;
nodes = (
"522 185 LINE",
"40 185 LINE",
"40 92 LINE",
"522 92 LINE"
);
}
);
width = 562;
},
{
associatedMasterId = "575D5349-E17C-4630-8554-E10C4C95202B";
layerId = "5499D732-9A41-41CA-8256-AB161D9ABCF4";
paths = (
{
closed = 1;
nodes = (
"522 294.5 LINE",
"288 294.5 LINE",
"288 528.5 LINE",
"274 528.5 LINE",
"274 294.5 LINE",
"40 294.5 LINE",
"40 280.5 LINE",
"274 280.5 LINE",
"274 198 LINE",
"288 198 LINE",
"288 280.5 LINE",
"522 280.5 LINE"
);
},
{
closed = 1;
nodes = (
"522 108.5 LINE",
"40 108.5 LINE",
"40 92 LINE",
"522 92 LINE"
);
}
);
width = 562;
}
);
note = plusminus;
unicode = 00B1;
},
{
color = 9;
glyphname = approxequal;
layers = (
{
layerId = "575D5349-E17C-4630-8554-E10C4C95202B";
paths = (
{
closed = 1;
nodes = (
"442 314 LINE",
"379 245 LINE",
"132 245 LINE",
"132 200 LINE",
"396 200 LINE",
"470 283 LINE"
);
},
{
closed = 1;
nodes = (
"378 397 LINE",
"114 397 LINE",
"40 315 LINE",
"69 283 LINE",
"132 352 LINE",
"378 352 LINE"
);
}
);
width = 510;
},
{
layerId = "40E32FB9-B6BE-48EB-82C7-9119AE8E729C";
paths = (
{
closed = 1;
nodes = (
"457 327 LINE",
"390 265 LINE",
"173 265 LINE",
"173 180 LINE",
"428 180 LINE",
"522 267 LINE"
);
},
{
closed = 1;
nodes = (
"390 426 LINE",
"134 426 LINE",
"40 339 LINE",
"106 279 LINE",
"173 341 LINE",
"390 341 LINE"
);
}
);
width = 562;
},
{
associatedMasterId = "575D5349-E17C-4630-8554-E10C4C95202B";
layerId = "5499D732-9A41-41CA-8256-AB161D9ABCF4";
paths = (
{
closed = 1;
nodes = (
"437.5 307.5 LINE",
"376.5 235 LINE",
"114.5 235 LINE",
"114.5 210 LINE",
"383 210 LINE",
"447 291 LINE"
);
},
{
closed = 1;
nodes = (
"375 382.5 LINE",
"107 382.5 LINE",
"43 303 LINE",
"53.5 285 LINE",
"114.5 357.5 LINE",
"375 357.5 LINE"
);
}
);
width = 490;
}
);
note = approxequal;
unicode = 2248;
},
{
color = 9;
glyphname = asciitilde;
layers = (
{
layerId = "575D5349-E17C-4630-8554-E10C4C95202B";
paths = (
{
closed = 1;
nodes = (
"486 384 LINE",
"424 318 LINE",
"114 318 LINE",
"40 239 LINE",
"69 209 LINE",
"131 277 LINE",
"440 277 LINE",
"514 359 LINE"
);
}
);
width = 554;
},
{
layerId = "40E32FB9-B6BE-48EB-82C7-9119AE8E729C";
paths = (
{
closed = 1;
nodes = (
"509 403 LINE",
"442 342 LINE",
"135 342 LINE",
"40 255 LINE",
"107 195 LINE",
"174 256 LINE",
"480 256 LINE",
"575 343 LINE"
);
}
);
width = 615;
},
{
associatedMasterId = "575D5349-E17C-4630-8554-E10C4C95202B";
layerId = "5499D732-9A41-41CA-8256-AB161D9ABCF4";
paths = (
{
closed = 1;
nodes = (
"477.5 374.5 LINE",
"418 306 LINE",
"106.5 306 LINE",
"43 231 LINE",
"53 216 LINE",
"112.5 287.5 LINE",
"423 287.5 LINE",
"486.5 367 LINE"
);
}
);
width = 529.5;
}
);
note = asciitilde;
unicode = 007E;
},
{
color = 9;
glyphname = logicalnot;
layers = (
{
layerId = "575D5349-E17C-4630-8554-E10C4C95202B";
paths = (
{
closed = 1;
nodes = (
"472 322 LINE",
"40 322 LINE",
"40 281 LINE",
"431 281 LINE",
"431 189 LINE",
"359 189 LINE",
"359 148 LINE",
"472 148 LINE"
);
}
);
width = 522;
},
{
layerId = "40E32FB9-B6BE-48EB-82C7-9119AE8E729C";
paths = (
{
closed = 1;
nodes = (
"472 332 LINE",
"40 332 LINE",
"40 246 LINE",
"380 246 LINE",
"380 185 LINE",
"318 185 LINE",
"318 99 LINE",
"472 99 LINE"
);
}
);
width = 522;
},
{
associatedMasterId = "575D5349-E17C-4630-8554-E10C4C95202B";
layerId = "5499D732-9A41-41CA-8256-AB161D9ABCF4";
paths = (
{
closed = 1;
nodes = (
"472 317 LINE",
"40 317 LINE",
"40 298.5 LINE",
"456.5 298.5 LINE",
"456.5 191 LINE",
"379.5 191 LINE",
"379.5 172.5 LINE",
"472 172.5 LINE"
);
}
);
width = 522;
}
);
note = logicalnot;
unicode = 00AC;
},
{
color = 9;
glyphname = asciicircum;
layers = (
{
layerId = "575D5349-E17C-4630-8554-E10C4C95202B";
paths = (
{
closed = 1;
nodes = (
"217 700 LINE",
"174 700 LINE",
"40 502 LINE",
"92 502 LINE",
"195 655 LINE",
"296 502 LINE",
"347 502 LINE"
);
}
);
width = 387;
},
{
layerId = "40E32FB9-B6BE-48EB-82C7-9119AE8E729C";
paths = (
{
closed = 1;
nodes = (
"257 700 LINE",
"192 700 LINE",
"40 502 LINE",
"152 502 LINE",
"224 596 LINE",
"294 502 LINE",
"404 502 LINE"
);
}
);
width = 444;
},
{
associatedMasterId = "575D5349-E17C-4630-8554-E10C4C95202B";
layerId = "5499D732-9A41-41CA-8256-AB161D9ABCF4";
paths = (
{
closed = 1;
nodes = (
"197 700 LINE",
"165 700 LINE",
"40 502 LINE",
"62 502 LINE",
"180.5 684.5 LINE",
"297 502 LINE",
"318.5 502 LINE"
);
}
);
width = 358.5;
}
);
note = asciicircum;
unicode = 005E;
},
{
color = 9;
glyphname = infinity;
layers = (
{
layerId = "575D5349-E17C-4630-8554-E10C4C95202B";
paths = (
{
closed = 1;
nodes = (
"556 397 LINE",
"492 447 LINE",
"342 447 LINE",
"298 413 LINE",
"254 447 LINE",
"104 447 LINE",
"40 397 LINE",
"40 200 LINE",
"104 150 LINE",
"255 150 LINE",
"298 183 LINE",
"341 150 LINE",
"492 150 LINE",
"556 200 LINE"
);
},
{
closed = 1;
nodes = (
"480 192 LINE",
"356 192 LINE",
"318 220 LINE",
"318 377 LINE",
"356 405 LINE",
"480 405 LINE",
"516 376 LINE",
"516 221 LINE"
);
},
{
closed = 1;
nodes = (
"242 192 LINE",
"118 192 LINE",
"80 220 LINE",
"80 377 LINE",
"118 405 LINE",
"242 405 LINE",
"278 376 LINE",
"278 221 LINE"
);
}
);
width = 596;
},
{
layerId = "40E32FB9-B6BE-48EB-82C7-9119AE8E729C";
paths = (
{
closed = 1;
nodes = (
"556 393 LINE",
"491 447 LINE",
"327 447 LINE",
"298 421 LINE",
"269 447 LINE",
"106 447 LINE",
"40 393 LINE",
"40 204 LINE",
"106 150 LINE",
"269 150 LINE",
"298 175 LINE",
"327 150 LINE",
"491 150 LINE",
"556 204 LINE"
);
},
{
closed = 1;
nodes = (
"456 239 LINE",
"358 239 LINE",
"344 249 LINE",
"344 348 LINE",
"358 358 LINE",
"456 358 LINE",
"469 348 LINE",
"469 249 LINE"
);
},
{
closed = 1;
nodes = (
"238 239 LINE",
"141 239 LINE",
"127 249 LINE",
"127 348 LINE",
"141 358 LINE",
"238 358 LINE",
"252 348 LINE",
"252 249 LINE"
);
}
);
width = 596;
},
{
associatedMasterId = "575D5349-E17C-4630-8554-E10C4C95202B";
layerId = "5499D732-9A41-41CA-8256-AB161D9ABCF4";
paths = (
{
closed = 1;
nodes = (
"556 399 LINE",
"492.5 447 LINE",
"349.5 447 LINE",
"298 409 LINE",
"246.5 447 LINE",
"103 447 LINE",
"40 399 LINE",
"40 198 LINE",
"103 150 LINE",
"248 150 LINE",
"298 187 LINE",
"348 150 LINE",
"492.5 150 LINE",
"556 198 LINE"
);
},
{
closed = 1;
nodes = (
"492 168.5 LINE",
"355 168.5 LINE",
"305 205.5 LINE",
"305 391.5 LINE",
"355 428.5 LINE",
"492 428.5 LINE",
"539.5 390 LINE",
"539.5 207 LINE"
);
},
{
closed = 1;
nodes = (
"244 168.5 LINE",
"106.5 168.5 LINE",
"56.5 205.5 LINE",
"56.5 391.5 LINE",
"106.5 428.5 LINE",
"244 428.5 LINE",
"291 390 LINE",
"291 207 LINE"
);
}
);
width = 596;
}
);
note = infinity;
unicode = 221E;
},
{
color = 9;
glyphname = integral;
layers = (
{
layerId = "575D5349-E17C-4630-8554-E10C4C95202B";
paths = (
{
closed = 1;
nodes = (
"301 789 LINE",
"212 744 LINE",
"111 16 LINE",
"40 -20 LINE",
"61 -55 LINE",
"150 -10 LINE",
"251 719 LINE",
"321 755 LINE"
);
}
);
width = 361;
},
{
layerId = "40E32FB9-B6BE-48EB-82C7-9119AE8E729C";
paths = (
{
closed = 1;
nodes = (
"301 800 LINE",
"192 737 LINE",
"110 58 LINE",
"40 18 LINE",
"83 -65 LINE",
"192 -3 LINE",
"274 677 LINE",
"343 717 LINE"
);
}
);
width = 383;
},
{
associatedMasterId = "575D5349-E17C-4630-8554-E10C4C95202B";
layerId = "5499D732-9A41-41CA-8256-AB161D9ABCF4";
paths = (
{
closed = 1;
nodes = (
"303.5 783.5 LINE",
"224.5 747.5 LINE",
"114 -5 LINE",
"42.5 -39 LINE",
"52.5 -50 LINE",
"131.5 -13.5 LINE",
"242 740 LINE",
"312.5 774 LINE"
);
}
);
width = 355;
}
);
note = integral;
unicode = 222B;
},
{
color = 9;
glyphname = product;
layers = (
{
layerId = "575D5349-E17C-4630-8554-E10C4C95202B";
paths = (
{
closed = 1;
nodes = (
"499 700 LINE",
"40 700 LINE",
"40 660 LINE",
"183 660 LINE",
"183 0 LINE",
"223 0 LINE",
"223 660 LINE",
"341 660 LINE",
"341 0 LINE",
"382 0 LINE",
"382 660 LINE",
"499 660 LINE"
);
}
);
width = 539;
},
{
layerId = "40E32FB9-B6BE-48EB-82C7-9119AE8E729C";
paths = (
{
closed = 1;
nodes = (
"521 700 LINE",
"40 700 LINE",
"40 626 LINE",
"161 626 LINE",
"161 0 LINE",
"253 0 LINE",
"253 626 LINE",
"331 626 LINE",
"331 0 LINE",
"423 0 LINE",
"423 626 LINE",
"521 626 LINE"
);
}
);
width = 561;
},
{
associatedMasterId = "575D5349-E17C-4630-8554-E10C4C95202B";
layerId = "5499D732-9A41-41CA-8256-AB161D9ABCF4";
paths = (
{
closed = 1;
nodes = (
"488 700 LINE",
"40 700 LINE",
"40 687 LINE",
"194 687 LINE",
"194 0 LINE",
"208 0 LINE",
"208 687 LINE",
"346 687 LINE",
"346 0 LINE",
"361.5 0 LINE",
"361.5 687 LINE",
"488 687 LINE"
);
}
);
width = 528;
}
);
note = product;
unicode = 220F;
},
{
color = 9;
glyphname = summation;
layers = (
{
layerId = "575D5349-E17C-4630-8554-E10C4C95202B";
paths = (
{
closed = 1;
nodes = (
"408 -27 LINE",
"161 -27 LINE",
"91 28 LINE",
"91 232 LINE",
"205 315 LINE",
"91 400 LINE",
"91 605 LINE",
"161 660 LINE",
"408 660 LINE",
"408 700 LINE",
"146 700 LINE",
"50 624 LINE",
"50 381 LINE",
"138 316 LINE",
"50 252 LINE",
"50 9 LINE",
"146 -67 LINE",
"408 -67 LINE"
);
}
);
width = 448;
},
{
layerId = "40E32FB9-B6BE-48EB-82C7-9119AE8E729C";
paths = (
{
closed = 1;
nodes = (
"408 27 LINE",
"181 27 LINE",
"140 63 LINE",
"140 224 LINE",
"253 315 LINE",
"140 408 LINE",
"140 570 LINE",
"181 606 LINE",
"408 606 LINE",
"408 700 LINE",
"149 700 LINE",
"50 614 LINE",
"50 362 LINE",
"107 316 LINE",
"50 271 LINE",
"50 19 LINE",
"149 -67 LINE",
"408 -67 LINE"
);
}
);
width = 448;
},
{
associatedMasterId = "575D5349-E17C-4630-8554-E10C4C95202B";
layerId = "5499D732-9A41-41CA-8256-AB161D9ABCF4";
paths = (
{
closed = 1;
nodes = (
"433 -54 LINE",
"176 -54 LINE",
"91.5 10.5 LINE",
"91.5 236 LINE",
"206 315 LINE",
"91.5 396 LINE",
"91.5 622.5 LINE",
"176 687 LINE",
"433 687 LINE",
"433 700 LINE",
"169.5 700 LINE",
"75 629 LINE",
"75 390.5 LINE",
"178.5 316 LINE",
"75 242.5 LINE",
"75 4 LINE",
"169.5 -67 LINE",
"433 -67 LINE"
);
}
);
width = 372;
}
);
note = summation;
unicode = 2211;
},
{
color = 9;
glyphname = radical;
layers = (
{
layerId = "575D5349-E17C-4630-8554-E10C4C95202B";
paths = (
{
closed = 1;
nodes = (
"35 227 LINE",
"64 0 LINE",
"243 0 LINE",
"330 659 LINE",
"500 659 LINE",
"500 700 LINE",
"294 700 LINE",
"207 40 LINE",
"100 40 LINE",
"75 227 LINE"
);
}
);
width = 540;
},
{
layerId = "40E32FB9-B6BE-48EB-82C7-9119AE8E729C";
paths = (
{
closed = 1;
nodes = (
"35 278 LINE",
"70 0 LINE",
"280 0 LINE",
"356 605 LINE",
"509 605 LINE",
"509 700 LINE",
"275 700 LINE",
"199 94 LINE",
"154 94 LINE",
"130 278 LINE"
);
}
);
width = 549;
},
{
associatedMasterId = "575D5349-E17C-4630-8554-E10C4C95202B";
layerId = "5499D732-9A41-41CA-8256-AB161D9ABCF4";
paths = (
{
closed = 1;
nodes = (
"-194 -9.5 LINE",
"-33.5 -350 LINE",
"273 -47 LINE",
"426 941.5 LINE",
"693 849.5 LINE",
"740.5 911 LINE",
"414 1050 LINE",
"178.5 60 LINE",
"-20 -242.5 LINE",
"-134 38 LINE"
);
}
);
width = 553.5;
}
);
note = radical;
unicode = 221A;
},
{
color = 9;
glyphname = partialdiff;
layers = (
{
layerId = "575D5349-E17C-4630-8554-E10C4C95202B";
paths = (
{
closed = 1;
nodes = (
"519 623 LINE",
"425 700 LINE",
"161 700 LINE",
"175 660 LINE",
"409 660 LINE",
"478 605 LINE",
"478 382 LINE",
"134 382 LINE",
"40 306 LINE",
"40 76 LINE",
"134 -1 LINE",
"519 -1 LINE"
);
},
{
closed = 1;
nodes = (
"149 39 LINE",
"81 95 LINE",
"81 287 LINE",
"150 343 LINE",
"478 343 LINE",
"478 39 LINE"
);
}
);
width = 569;
},
{
layerId = "40E32FB9-B6BE-48EB-82C7-9119AE8E729C";
paths = (
{
closed = 1;
nodes = (
"519 614 LINE",
"418 700 LINE",
"135 700 LINE",
"167 606 LINE",
"384 606 LINE",
"427 570 LINE",
"427 408 LINE",
"141 408 LINE",
"40 323 LINE",
"40 85 LINE",
"141 -1 LINE",
"519 -1 LINE"
);
},
{
closed = 1;
nodes = (
"175 93 LINE",
"132 129 LINE",
"132 279 LINE",
"175 314 LINE",
"427 314 LINE",
"427 93 LINE"
);
}
);
width = 569;
},
{
associatedMasterId = "575D5349-E17C-4630-8554-E10C4C95202B";
layerId = "5499D732-9A41-41CA-8256-AB161D9ABCF4";
paths = (
{
closed = 1;
nodes = (
"519 627.5 LINE",
"428.5 700 LINE",
"174 700 LINE",
"179 687 LINE",
"421.5 687 LINE",
"503.5 622.5 LINE",
"503.5 369 LINE",
"130.5 369 LINE",
"40 297.5 LINE",
"40 71.5 LINE",
"130.5 -1 LINE",
"519 -1 LINE"
);
},
{
closed = 1;
nodes = (
"136 12 LINE",
"55.5 78 LINE",
"55.5 291 LINE",
"137.5 357.5 LINE",
"503.5 357.5 LINE",
"503.5 12 LINE"
);
}
);
width = 553.5;
}
);
note = partialdiff;
unicode = 2202;
},
{
glyphname = micro;
layers = (
{
components = (
{
name = u;
}
);
layerId = "575D5349-E17C-4630-8554-E10C4C95202B";
paths = (
{
closed = 1;
nodes = (
"40 -69 LINE",
"81 -69 LINE",
"81 149 LINE",
"40 149 LINE"
);
}
);
width = 537;
},
{
components = (
{
name = u;
}
);
layerId = "40E32FB9-B6BE-48EB-82C7-9119AE8E729C";
paths = (
{
closed = 1;
nodes = (
"40 -69 LINE",
"132 -69 LINE",
"132 149 LINE",
"40 149 LINE"
);
}
);
width = 537;
}
);
unicode = 00B5;
},
{
color = 9;
glyphname = percent;
layers = (
{
layerId = "575D5349-E17C-4630-8554-E10C4C95202B";
paths = (
{
closed = 1;
nodes = (
"550 789 LINE",
"468 728 LINE",
"360 6 LINE",
"292 -45 LINE",
"315 -76 LINE",
"397 -15 LINE",
"505 707 LINE",
"574 758 LINE"
);
},
{
closed = 1;
nodes = (
"320 651 LINE",
"258 697 LINE",
"111 697 LINE",
"50 651 LINE",
"50 467 LINE",
"111 421 LINE",
"258 421 LINE",
"320 467 LINE"
);
},
{
closed = 1;
nodes = (
"246 461 LINE",
"125 461 LINE",
"88 487 LINE",
"88 631 LINE",
"125 657 LINE",
"246 657 LINE",
"281 631 LINE",
"281 487 LINE"
);
},
{
closed = 1;
nodes = (
"601 6 LINE",
"748 6 LINE",
"810 52 LINE",
"810 235 LINE",
"748 281 LINE",
"601 281 LINE",
"540 235 LINE",
"540 52 LINE"
);
},
{
closed = 1;
nodes = (
"578 216 LINE",
"615 242 LINE",
"735 242 LINE",
"770 216 LINE",
"770 72 LINE",
"735 45 LINE",
"615 45 LINE",
"578 72 LINE"
);
}
);
width = 860;
},
{
layerId = "40E32FB9-B6BE-48EB-82C7-9119AE8E729C";
paths = (
{
closed = 1;
nodes = (
"588 801 LINE",
"479 720 LINE",
"379 45 LINE",
"301 -12 LINE",
"357 -88 LINE",
"466 -7 LINE",
"566 668 LINE",
"643 725 LINE"
);
},
{
closed = 1;
nodes = (
"358 643 LINE",
"281 700 LINE",
"126 700 LINE",
"50 643 LINE",
"50 442 LINE",
"126 385 LINE",
"281 385 LINE",
"358 442 LINE"
);
},
{
closed = 1;
nodes = (
"250 480 LINE",
"158 480 LINE",
"143 490 LINE",
"143 595 LINE",
"158 605 LINE",
"250 605 LINE",
"264 595 LINE",
"264 490 LINE"
);
},
{
closed = 1;
nodes = (
"658 0 LINE",
"813 0 LINE",
"890 58 LINE",
"890 258 LINE",
"813 315 LINE",
"658 315 LINE",
"582 258 LINE",
"582 58 LINE"
);
},
{
closed = 1;
nodes = (
"675 210 LINE",
"690 221 LINE",
"782 221 LINE",
"796 210 LINE",
"796 105 LINE",
"782 95 LINE",
"690 95 LINE",
"675 105 LINE"
);
}
);
width = 940;
},
{
associatedMasterId = "575D5349-E17C-4630-8554-E10C4C95202B";
layerId = "5499D732-9A41-41CA-8256-AB161D9ABCF4";
paths = (
{
closed = 1;
nodes = (
"551 783 LINE",
"482.5 732 LINE",
"370.5 -13.5 LINE",
"307.5 -61.5 LINE",
"314 -70 LINE",
"382.5 -19 LINE",
"494.5 726.5 LINE",
"559.5 774.5 LINE"
);
},
{
closed = 1;
nodes = (
"291 655 LINE",
"236.5 695.5 LINE",
"93.5 695.5 LINE",
"40 655 LINE",
"40 479.5 LINE",
"93.5 439 LINE",
"236.5 439 LINE",
"291 479.5 LINE"
);
},
{
closed = 1;
nodes = (
"234 451.5 LINE",
"98.5 451.5 LINE",
"50.5 485.5 LINE",
"50.5 649 LINE",
"98.5 683 LINE",
"234 683 LINE",
"279.5 649 LINE",
"279.5 485.5 LINE"
);
},
{
closed = 1;
nodes = (
"622.5 9 LINE",
"765.5 9 LINE",
"820 49 LINE",
"820 223.5 LINE",
"765.5 264 LINE",
"622.5 264 LINE",
"569 223.5 LINE",
"569 49 LINE"
);
},
{
closed = 1;
nodes = (
"579.5 219 LINE",
"627.5 252.5 LINE",
"761.5 252.5 LINE",
"807 219 LINE",
"807 55.5 LINE",
"761.5 20 LINE",
"627.5 20 LINE",
"579.5 55.5 LINE"
);
}
);
width = 860;
}
);
note = percent;
unicode = 0025;
},
{
color = 9;
glyphname = perthousand;
layers = (
{
layerId = "575D5349-E17C-4630-8554-E10C4C95202B";
paths = (
{
closed = 1;
nodes = (
"392 -4 LINE",
"500 718 LINE",
"568 769 LINE",
"545 801 LINE",
"464 739 LINE",
"357 18 LINE",
"289 -34 LINE",
"312 -65 LINE"
);
},
{
closed = 1;
nodes = (
"257 433 LINE",
"317 478 LINE",
"317 662 LINE",
"257 708 LINE",
"112 708 LINE",
"50 662 LINE",
"50 478 LINE",
"112 433 LINE"
);
},
{
closed = 1;
nodes = (
"89 498 LINE",
"89 643 LINE",
"124 669 LINE",
"243 669 LINE",
"279 643 LINE",
"279 498 LINE",
"243 472 LINE",
"124 472 LINE"
);
},
{
closed = 1;
nodes = (
"740 17 LINE",
"801 63 LINE",
"801 246 LINE",
"740 292 LINE",
"595 292 LINE",
"533 246 LINE",
"533 63 LINE",
"595 17 LINE"
);
},
{
closed = 1;
nodes = (
"572 83 LINE",
"572 227 LINE",
"607 253 LINE",
"727 253 LINE",
"762 227 LINE",
"762 83 LINE",
"727 56 LINE",
"607 56 LINE"
);
},
{
closed = 1;
nodes = (
"1096 17 LINE",
"1158 63 LINE",
"1158 246 LINE",
"1096 292 LINE",
"952 292 LINE",
"890 246 LINE",
"890 63 LINE",
"952 17 LINE"
);
},
{
closed = 1;
nodes = (
"929 83 LINE",
"929 227 LINE",
"964 253 LINE",
"1084 253 LINE",
"1119 227 LINE",
"1119 83 LINE",
"1084 56 LINE",
"964 56 LINE"
);
}
);
width = 1208;
},
{
layerId = "40E32FB9-B6BE-48EB-82C7-9119AE8E729C";
paths = (
{
closed = 1;
nodes = (
"481 4 LINE",
"583 679 LINE",
"661 736 LINE",
"605 813 LINE",
"494 731 LINE",
"393 57 LINE",
"314 -1 LINE",
"372 -77 LINE"
);
},
{
closed = 1;
nodes = (
"285 400 LINE",
"362 456 LINE",
"362 658 LINE",
"285 714 LINE",
"128 714 LINE",
"50 658 LINE",
"50 456 LINE",
"128 400 LINE"
);
},
{
closed = 1;
nodes = (
"145 504 LINE",
"145 610 LINE",
"159 620 LINE",
"253 620 LINE",
"267 610 LINE",
"267 504 LINE",
"253 494 LINE",
"159 494 LINE"
);
},
{
closed = 1;
nodes = (
"842 11 LINE",
"920 69 LINE",
"920 269 LINE",
"842 326 LINE",
"685 326 LINE",
"607 269 LINE",
"607 69 LINE",
"685 11 LINE"
);
},
{
closed = 1;
nodes = (
"703 116 LINE",
"703 222 LINE",
"717 232 LINE",
"811 232 LINE",
"825 222 LINE",
"825 116 LINE",
"811 106 LINE",
"717 106 LINE"
);
},
{
closed = 1;
nodes = (
"1230 11 LINE",
"1308 69 LINE",
"1308 269 LINE",
"1230 326 LINE",
"1073 326 LINE",
"995 269 LINE",
"995 69 LINE",
"1073 11 LINE"
);
},
{
closed = 1;
nodes = (
"1091 116 LINE",
"1091 222 LINE",
"1104 232 LINE",
"1199 232 LINE",
"1213 222 LINE",
"1213 116 LINE",
"1199 106 LINE",
"1104 106 LINE"
);
}
);
width = 1358;
},
{
associatedMasterId = "575D5349-E17C-4630-8554-E10C4C95202B";
layerId = "5499D732-9A41-41CA-8256-AB161D9ABCF4";
paths = (
{
closed = 1;
nodes = (
"540 795 LINE",
"474 743 LINE",
"364 -1.5 LINE",
"301.5 -50.5 LINE",
"307 -59 LINE",
"372.5 -8 LINE",
"483.5 737.5 LINE",
"546.5 785.5 LINE"
);
},
{
closed = 1;
nodes = (
"284.5 664 LINE",
"233 705 LINE",
"94 705 LINE",
"40 664 LINE",
"40 489 LINE",
"94 449.5 LINE",
"233 449.5 LINE",
"284.5 489 LINE"
);
},
{
closed = 1;
nodes = (
"228 461 LINE",
"96.5 461 LINE",
"51 495 LINE",
"51 659.5 LINE",
"96.5 693.5 LINE",
"228 693.5 LINE",
"275 659.5 LINE",
"275 495 LINE"
);
},
{
closed = 1;
nodes = (
"610 20 LINE",
"749 20 LINE",
"801.5 60 LINE",
"801.5 234.5 LINE",
"749 275 LINE",
"610 275 LINE",
"556 234.5 LINE",
"556 60 LINE"
);
},
{
closed = 1;
nodes = (
"566.5 229.5 LINE",
"612 263.5 LINE",
"745 263.5 LINE",
"790.5 229.5 LINE",
"790.5 66.5 LINE",
"745 31 LINE",
"612 31 LINE",
"566.5 66.5 LINE"
);
},
{
closed = 1;
nodes = (
"869 -109 LINE",
"1124 -137.5 LINE",
"1295.5 -68.5 LINE",
"1334.5 234.5 LINE",
"1241.5 403.5 LINE",
"986.5 432.5 LINE",
"815 363.5 LINE",
"776 60 LINE"
);
},
{
closed = 1;
nodes = (
"889 287.5 LINE",
"989 326.5 LINE",
"1175.5 321.5 LINE",
"1228 229.5 LINE",
"1221.5 8.5 LINE",
"1121.5 -32 LINE",
"934.5 -27 LINE",
"882 66.5 LINE"
);
}
);
width = 1218;
}
);
note = perthousand;
unicode = 2030;
},
{
color = 9;
glyphname = rightArrow;
layers = (
{
layerId = "575D5349-E17C-4630-8554-E10C4C95202B";
paths = (
{
closed = 1;
nodes = (
"750 339 LINE",
"750 381 LINE",
"430 607 LINE",
"430 560 LINE",
"684 379 LINE",
"50 379 LINE",
"50 339 LINE",
"684 339 LINE",
"430 158 LINE",
"430 113 LINE"
);
}
);
width = 800;
},
{
layerId = "40E32FB9-B6BE-48EB-82C7-9119AE8E729C";
paths = (
{
closed = 1;
nodes = (
"768 320 LINE",
"768 388 LINE",
"416 628 LINE",
"416 517 LINE",
"587 399 LINE",
"50 399 LINE",
"50 307 LINE",
"584 307 LINE",
"416 196 LINE",
"416 80 LINE"
);
}
);
width = 818;
},
{
associatedMasterId = "575D5349-E17C-4630-8554-E10C4C95202B";
layerId = "5499D732-9A41-41CA-8256-AB161D9ABCF4";
width = 791;
}
);
note = arrowright;
unicode = 2192;
},
{
color = 9;
glyphname = downArrow;
layers = (
{
layerId = "575D5349-E17C-4630-8554-E10C4C95202B";
paths = (
{
closed = 1;
nodes = (
"318 0 LINE",
"544 320 LINE",
"497 320 LINE",
"316 66 LINE",
"316 700 LINE",
"276 700 LINE",
"276 66 LINE",
"95 320 LINE",
"50 320 LINE",
"276 0 LINE"
);
}
);
width = 594;
},
{
layerId = "40E32FB9-B6BE-48EB-82C7-9119AE8E729C";
paths = (
{
closed = 1;
nodes = (
"358 -5 LINE",
"598 347 LINE",
"482 347 LINE",
"371 179 LINE",
"371 713 LINE",
"279 713 LINE",
"279 176 LINE",
"161 347 LINE",
"50 347 LINE",
"290 -5 LINE"
);
}
);
width = 648;
},
{
associatedMasterId = "575D5349-E17C-4630-8554-E10C4C95202B";
layerId = "5499D732-9A41-41CA-8256-AB161D9ABCF4";
paths = (
{
closed = 1;
nodes = (
"600.5 482.5 LINE",
"295 101.5 LINE",
"175 876.5 LINE",
"173 876.5 LINE",
"228.5 9.5 LINE",
"-43 123.5 LINE",
"-64.5 123.5 LINE",
"274.5 -88 LINE",
"396.5 -173.5 LINE",
"791 306.5 LINE"
);
}
);
width = 567;
}
);
note = arrowdown;
unicode = 2193;
},
{
color = 9;
glyphname = leftRightArrow;
layers = (
{
layerId = "575D5349-E17C-4630-8554-E10C4C95202B";
paths = (
{
closed = 1;
nodes = (
"800 329 LINE",
"800 371 LINE",
"479 597 LINE",
"479 552 LINE",
"734 371 LINE",
"177 371 LINE",
"177 331 LINE",
"734 331 LINE",
"479 150 LINE",
"480 103 LINE"
);
},
{
closed = 1;
nodes = (
"371 150 LINE",
"116 331 LINE",
"672 331 LINE",
"672 371 LINE",
"116 371 LINE",
"370 552 LINE",
"370 597 LINE",
"50 371 LINE",
"50 329 LINE",
"370 103 LINE"
);
}
);
width = 850;
},
{
layerId = "40E32FB9-B6BE-48EB-82C7-9119AE8E729C";
paths = (
{
closed = 1;
nodes = (
"1002 265 LINE",
"1002 333 LINE",
"650 573 LINE",
"650 462 LINE",
"821 344 LINE",
"284 344 LINE",
"284 252 LINE",
"818 252 LINE",
"650 141 LINE",
"650 25 LINE"
);
},
{
closed = 1;
nodes = (
"402 141 LINE",
"234 252 LINE",
"768 252 LINE",
"768 344 LINE",
"231 344 LINE",
"402 462 LINE",
"402 573 LINE",
"50 333 LINE",
"50 265 LINE",
"402 25 LINE"
);
}
);
width = 1052;
},
{
associatedMasterId = "575D5349-E17C-4630-8554-E10C4C95202B";
layerId = "5499D732-9A41-41CA-8256-AB161D9ABCF4";
paths = (
{
closed = 1;
nodes = (
"531.5 58.5 LINE",
"149 364 LINE",
"807 484 LINE",
"807 486 LINE",
"57 430.5 LINE",
"171 702 LINE",
"171 723.5 LINE",
"-40.5 384.5 LINE",
"-126 262.5 LINE",
"354 -132 LINE"
);
},
{
closed = 1;
nodes = (
"800 262.5 LINE",
"714.5 384.5 LINE",
"501.5 723.5 LINE",
"501.5 702 LINE",
"617 430.5 LINE",
"-134.5 486 LINE",
"-134.5 484 LINE",
"525 364 LINE",
"142.5 58.5 LINE",
"320 -132 LINE"
);
}
);
width = 674;
}
);
note = arrowboth;
unicode = 2194;
},
{
color = 9;
glyphname = upDownArrow;
layers = (
{
layerId = "575D5349-E17C-4630-8554-E10C4C95202B";
paths = (
{
closed = 1;
nodes = (
"316 42 LINE",
"316 599 LINE",
"497 344 LINE",
"544 345 LINE",
"318 665 LINE",
"276 665 LINE",
"50 344 LINE",
"95 344 LINE",
"276 599 LINE",
"276 42 LINE"
);
},
{
closed = 1;
nodes = (
"318 -85 LINE",
"544 235 LINE",
"497 236 LINE",
"316 -19 LINE",
"316 537 LINE",
"276 537 LINE",
"276 -19 LINE",
"95 235 LINE",
"50 235 LINE",
"276 -85 LINE"
);
}
);
width = 594;
},
{
layerId = "40E32FB9-B6BE-48EB-82C7-9119AE8E729C";
paths = (
{
closed = 1;
nodes = (
"371 57 LINE",
"371 591 LINE",
"482 423 LINE",
"598 423 LINE",
"358 775 LINE",
"290 775 LINE",
"50 423 LINE",
"161 423 LINE",
"279 594 LINE",
"279 57 LINE"
);
},
{
closed = 1;
nodes = (
"358 -177 LINE",
"598 175 LINE",
"482 175 LINE",
"371 7 LINE",
"371 541 LINE",
"279 541 LINE",
"279 4 LINE",
"161 175 LINE",
"50 175 LINE",
"290 -177 LINE"
);
}
);
width = 648;
},
{
associatedMasterId = "575D5349-E17C-4630-8554-E10C4C95202B";
layerId = "5499D732-9A41-41CA-8256-AB161D9ABCF4";
paths = (
{
closed = 1;
nodes = (
"600.5 570 LINE",
"295 187.5 LINE",
"175 845.5 LINE",
"173 845.5 LINE",
"228.5 95.5 LINE",
"-43 209.5 LINE",
"-64.5 209.5 LINE",
"274.5 -2 LINE",
"396.5 -87.5 LINE",
"791 392.5 LINE"
);
},
{
closed = 1;
nodes = (
"396.5 838.5 LINE",
"274.5 753 LINE",
"-64.5 540 LINE",
"-43 540 LINE",
"228.5 655.5 LINE",
"173 -96 LINE",
"175 -96 LINE",
"295 563.5 LINE",
"600.5 181 LINE",
"791 358.5 LINE"
);
}
);
width = 567;
}
);
note = arrowupdn;
unicode = 2195;
},
{
color = 9;
glyphname = lozenge;
layers = (
{
layerId = "575D5349-E17C-4630-8554-E10C4C95202B";
paths = (
{
closed = 1;
nodes = (
"342 331 LINE",
"218 645 LINE",
"170 645 LINE",
"50 334 LINE",
"50 314 LINE",
"174 0 LINE",
"222 0 LINE",
"342 312 LINE"
);
},
{
closed = 1;
nodes = (
"199 55 LINE",
"91 324 LINE",
"195 590 LINE",
"301 321 LINE"
);
}
);
width = 392;
},
{
layerId = "40E32FB9-B6BE-48EB-82C7-9119AE8E729C";
paths = (
{
closed = 1;
nodes = (
"332 335 LINE",
"223 645 LINE",
"146 645 LINE",
"40 338 LINE",
"40 310 LINE",
"149 0 LINE",
"226 0 LINE",
"332 308 LINE"
);
},
{
closed = 1;
nodes = (
"188 162 LINE",
"130 324 LINE",
"185 483 LINE",
"242 321 LINE"
);
}
);
width = 372;
},
{
associatedMasterId = "575D5349-E17C-4630-8554-E10C4C95202B";
layerId = "5499D732-9A41-41CA-8256-AB161D9ABCF4";
paths = (
{
closed = 1;
nodes = (
"332 329 LINE",
"200.5 645 LINE",
"167 645 LINE",
"40 332 LINE",
"40 316 LINE",
"171.5 0 LINE",
"205 0 LINE",
"332 314 LINE"
);
},
{
closed = 1;
nodes = (
"189.5 1.5 LINE",
"56.5 324 LINE",
"185 643.5 LINE",
"315.5 321 LINE"
);
}
);
width = 372;
}
);
note = lozenge;
unicode = 25CA;
},
{
color = 9;
glyphname = at;
layers = (
{
layerId = "575D5349-E17C-4630-8554-E10C4C95202B";
paths = (
{
closed = 1;
nodes = (
"362 0 LINE",
"362 40 LINE",
"164 40 LINE",
"90 138 LINE",
"90 562 LINE",
"164 660 LINE",
"671 660 LINE",
"744 562 LINE",
"744 138 LINE",
"671 40 LINE",
"586 40 LINE",
"586 522 LINE",
"545 522 LINE",
"545 476 LINE",
"505 521 LINE",
"286 521 LINE",
"212 460 LINE",
"212 223 LINE",
"286 160 LINE",
"502 160 LINE",
"545 193 LINE",
"545 0 LINE",
"691 0 LINE",
"785 124 LINE",
"785 576 LINE",
"691 700 LINE",
"144 700 LINE",
"50 576 LINE",
"50 124 LINE",
"144 0 LINE"
);
},
{
closed = 1;
nodes = (
"251 241 LINE",
"251 441 LINE",
"301 482 LINE",
"487 482 LINE",
"545 419 LINE",
"545 242 LINE",
"490 200 LINE",
"301 200 LINE"
);
}
);
width = 835;
},
{
layerId = "40E32FB9-B6BE-48EB-82C7-9119AE8E729C";
paths = (
{
closed = 1;
nodes = (
"395 0 LINE",
"395 94 LINE",
"198 94 LINE",
"144 165 LINE",
"144 535 LINE",
"198 606 LINE",
"637 606 LINE",
"690 535 LINE",
"690 165 LINE",
"637 94 LINE",
"601 94 LINE",
"601 536 LINE",
"506 536 LINE",
"506 499 LINE",
"468 536 LINE",
"286 536 LINE",
"199 464 LINE",
"199 220 LINE",
"286 147 LINE",
"464 147 LINE",
"505 177 LINE",
"506 0 LINE",
"684 0 LINE",
"785 133 LINE",
"785 567 LINE",
"684 700 LINE",
"151 700 LINE",
"50 567 LINE",
"50 133 LINE",
"151 0 LINE"
);
},
{
closed = 1;
nodes = (
"293 264 LINE",
"293 420 LINE",
"320 442 LINE",
"469 442 LINE",
"506 402 LINE",
"506 265 LINE",
"475 241 LINE",
"320 241 LINE"
);
}
);
width = 835;
},
{
associatedMasterId = "575D5349-E17C-4630-8554-E10C4C95202B";
layerId = "5499D732-9A41-41CA-8256-AB161D9ABCF4";
width = 835;
}
);
note = at;
unicode = 0040;
},
{
color = 9;
glyphname = ampersand;
layers = (
{
layerId = "575D5349-E17C-4630-8554-E10C4C95202B";
paths = (
{
closed = 1;
nodes = (
"529 0 LINE",
"622 76 LINE",
"622 234 LINE",
"582 234 LINE",
"582 92 LINE",
"564 76 LINE",
"285 353 LINE",
"485 487 LINE",
"485 624 LINE",
"381 700 LINE",
"194 700 LINE",
"100 624 LINE",
"100 489 LINE",
"223 360 LINE",
"50 244 LINE",
"50 78 LINE",
"135 0 LINE"
);
},
{
closed = 1;
nodes = (
"90 96 LINE",
"90 224 LINE",
"250 330 LINE",
"535 51 LINE",
"523 40 LINE",
"151 40 LINE"
);
},
{
closed = 1;
nodes = (
"140 505 LINE",
"140 605 LINE",
"208 660 LINE",
"369 660 LINE",
"445 604 LINE",
"445 508 LINE",
"257 383 LINE"
);
}
);
width = 672;
},
{
layerId = "40E32FB9-B6BE-48EB-82C7-9119AE8E729C";
paths = (
{
closed = 1;
nodes = (
"520 0 LINE",
"622 85 LINE",
"622 272 LINE",
"529 272 LINE",
"529 154 LINE",
"529 154 LINE",
"335 349 LINE",
"498 460 LINE",
"498 616 LINE",
"386 700 LINE",
"198 700 LINE",
"95 615 LINE",
"95 466 LINE",
"191 364 LINE",
"50 268 LINE",
"50 88 LINE",
"144 0 LINE"
);
},
{
closed = 1;
nodes = (
"143 129 LINE",
"143 219 LINE",
"255 295 LINE",
"456 94 LINE",
"456 94 LINE",
"181 94 LINE"
);
},
{
closed = 1;
nodes = (
"188 503 LINE",
"188 570 LINE",
"231 606 LINE",
"356 606 LINE",
"405 569 LINE",
"405 510 LINE",
"269 418 LINE"
);
}
);
width = 672;
},
{
associatedMasterId = "575D5349-E17C-4630-8554-E10C4C95202B";
layerId = "5499D732-9A41-41CA-8256-AB161D9ABCF4";
width = 647;
}
);
note = ampersand;
unicode = 0026;
},
{
color = 9;
glyphname = paragraph;
layers = (
{
layerId = "575D5349-E17C-4630-8554-E10C4C95202B";
paths = (
{
closed = 1;
nodes = (
"400 0 LINE",
"400 700 LINE",
"88 700 LINE",
"40 586 LINE",
"40 491 LINE",
"153 383 LINE",
"360 383 LINE",
"360 0 LINE"
);
},
{
closed = 1;
nodes = (
"80 505 LINE",
"80 577 LINE",
"116 664 LINE",
"360 664 LINE",
"360 423 LINE",
"166 423 LINE"
);
},
{
closed = 1;
nodes = (
"491 0 LINE",
"491 700 LINE",
"451 700 LINE",
"451 0 LINE"
);
}
);
width = 541;
},
{
layerId = "40E32FB9-B6BE-48EB-82C7-9119AE8E729C";
paths = (
{
closed = 1;
nodes = (
"417 0 LINE",
"417 700 LINE",
"92 700 LINE",
"40 572 LINE",
"40 468 LINE",
"157 352 LINE",
"324 352 LINE",
"324 0 LINE"
);
},
{
closed = 1;
nodes = (
"128 494 LINE",
"128 552 LINE",
"157 622 LINE",
"324 622 LINE",
"324 430 LINE",
"193 430 LINE"
);
},
{
closed = 1;
nodes = (
"592 0 LINE",
"592 700 LINE",
"499 700 LINE",
"499 0 LINE"
);
}
);
width = 642;
},
{
associatedMasterId = "575D5349-E17C-4630-8554-E10C4C95202B";
layerId = "5499D732-9A41-41CA-8256-AB161D9ABCF4";
paths = (
{
closed = 1;
nodes = (
"425.5 700 LINE",
"412 700 LINE",
"412 0 LINE",
"425.5 0 LINE"
);
},
{
closed = 1;
nodes = (
"391.5 700 LINE",
"86 700 LINE",
"40 593 LINE",
"40 502.5 LINE",
"151 398.5 LINE",
"378 398.5 LINE",
"378 0 LINE",
"391.5 0 LINE"
);
}
);
width = 475.5;
}
);
note = paragraph;
unicode = 00B6;
},
{
color = 9;
glyphname = section;
layers = (
{
layerId = "575D5349-E17C-4630-8554-E10C4C95202B";
paths = (
{
closed = 1;
nodes = (
"367 224 LINE",
"316 261 LINE",
"367 299 LINE",
"367 439 LINE",
"294 491 LINE",
"132 491 LINE",
"82 528 LINE",
"82 629 LINE",
"122 660 LINE",
"286 660 LINE",
"325 629 LINE",
"325 603 LINE",
"367 603 LINE",
"367 648 LINE",
"300 700 LINE",
"107 700 LINE",
"40 648 LINE",
"40 509 LINE",
"91 471 LINE",
"40 433 LINE",
"40 294 LINE",
"107 241 LINE",
"273 241 LINE",
"325 204 LINE",
"325 104 LINE",
"286 73 LINE",
"122 73 LINE",
"82 104 LINE",
"82 129 LINE",
"40 129 LINE",
"40 84 LINE",
"106 33 LINE",
"301 33 LINE",
"367 84 LINE"
);
},
{
closed = 1;
nodes = (
"276 282 LINE",
"122 282 LINE",
"82 312 LINE",
"82 414 LINE",
"132 450 LINE",
"281 450 LINE",
"325 419 LINE",
"325 318 LINE"
);
}
);
width = 407;
},
{
layerId = "40E32FB9-B6BE-48EB-82C7-9119AE8E729C";
paths = (
{
closed = 1;
nodes = (
"367 251 LINE",
"342 271 LINE",
"367 291 LINE",
"367 447 LINE",
"288 509 LINE",
"145 509 LINE",
"130 528 LINE",
"130 589 LINE",
"145 606 LINE",
"262 606 LINE",
"277 589 LINE",
"277 554 LINE",
"367 554 LINE",
"367 637 LINE",
"294 700 LINE",
"113 700 LINE",
"40 637 LINE",
"40 482 LINE",
"65 462 LINE",
"40 441 LINE",
"40 287 LINE",
"113 223 LINE",
"262 223 LINE",
"277 204 LINE",
"277 142 LINE",
"262 127 LINE",
"145 127 LINE",
"130 142 LINE",
"130 178 LINE",
"40 178 LINE",
"40 95 LINE",
"113 33 LINE",
"294 33 LINE",
"367 95 LINE"
);
},
{
closed = 1;
nodes = (
"262 318 LINE",
"145 318 LINE",
"130 337 LINE",
"130 395 LINE",
"145 414 LINE",
"262 414 LINE",
"277 395 LINE",
"277 337 LINE"
);
}
);
width = 407;
},
{
associatedMasterId = "575D5349-E17C-4630-8554-E10C4C95202B";
layerId = "5499D732-9A41-41CA-8256-AB161D9ABCF4";
paths = (
{
closed = 1;
nodes = (
"367 210.5 LINE",
"303 256 LINE",
"367 303 LINE",
"367 435 LINE",
"297 482 LINE",
"125.5 482 LINE",
"58 528 LINE",
"58 649 LINE",
"110.5 687 LINE",
"298 687 LINE",
"349 649 LINE",
"349 627.5 LINE",
"367 627.5 LINE",
"367 653.5 LINE",
"303 700 LINE",
"104 700 LINE",
"40 653.5 LINE",
"40 522.5 LINE",
"104 475.5 LINE",
"40 429 LINE",
"40 297.5 LINE",
"104 250 LINE",
"278.5 250 LINE",
"349 204 LINE",
"349 85 LINE",
"298 46 LINE",
"110.5 46 LINE",
"58 85 LINE",
"58 104.5 LINE",
"40 104.5 LINE",
"40 78.5 LINE",
"102.5 33 LINE",
"304.5 33 LINE",
"367 78.5 LINE"
);
},
{
closed = 1;
nodes = (
"283 264 LINE",
"110.5 264 LINE",
"58 299.5 LINE",
"58 423.5 LINE",
"125.5 468 LINE",
"290.5 468 LINE",
"349 431 LINE",
"349 308.5 LINE"
);
}
);
width = 407;
}
);
note = section;
unicode = 00A7;
},
